M48
; DRILL file {KiCad 7.0.8-7.0.8~ubuntu22.04.1} date wto, 12 gru 2023, 02:33:39
; FORMAT={-:-/ absolute / metric / decimal}
; #@! TF.CreationDate,2023-12-12T02:33:39+01:00
; #@! TF.GenerationSoftware,Kicad,Pcbnew,7.0.8-7.0.8~ubuntu22.04.1
; #@! TF.FileFunction,Plated,1,2,PTH
FMAT,2
METRIC
; #@! TA.AperFunction,Plated,PTH,ViaDrill
T1C0.400
; #@! TA.AperFunction,Plated,PTH,ComponentDrill
T2C0.750
; #@! TA.AperFunction,Plated,PTH,ComponentDrill
T3C0.800
; #@! TA.AperFunction,Plated,PTH,ComponentDrill
T4C0.900
; #@! TA.AperFunction,Plated,PTH,ComponentDrill
T5C0.965
; #@! TA.AperFunction,Plated,PTH,ComponentDrill
T6C0.990
; #@! TA.AperFunction,Plated,PTH,ComponentDrill
T7C1.020
; #@! TA.AperFunction,Plated,PTH,ComponentDrill
T8C1.100
%
G90
G05
T1
X147.32Y-76.2
X151.0Y-61.0
X152.4Y-86.36
X154.94Y-68.58
X160.02Y-66.04
X160.02Y-73.66
X160.02Y-78.74
X160.02Y-86.36
X165.1Y-81.28
X167.64Y-60.96
X170.18Y-68.58
X170.18Y-73.66
X170.18Y-78.74
T2
X146.0Y-58.0
X147.27Y-58.0
X148.54Y-58.0
X160.02Y-60.96
X161.29Y-60.96
X162.56Y-60.96
T3
X154.0Y-54.0
X166.7Y-54.0
T4
X137.16Y-45.72
X139.7Y-45.72
X142.24Y-45.72
X144.78Y-45.72
X147.32Y-45.72
X149.86Y-45.72
T5
X157.48Y-45.0
X157.48Y-50.08
X160.02Y-47.54
X162.56Y-45.0
X162.56Y-50.08
T6
X138.75Y-92.75
X138.75Y-97.25
X145.25Y-92.75
X145.25Y-97.25
T7
X112.11Y-44.87
X112.11Y-47.41
X112.11Y-49.95
X112.11Y-52.49
X112.11Y-55.03
X112.11Y-57.57
X112.11Y-60.11
X112.11Y-62.65
X112.11Y-65.19
X112.11Y-67.73
X112.11Y-70.27
X112.11Y-72.81
X112.11Y-75.35
X112.11Y-77.89
X112.11Y-80.43
X112.11Y-82.97
X112.11Y-85.51
X112.11Y-88.05
X112.11Y-90.59
X112.11Y-93.13
X118.46Y-92.9
X121.0Y-92.9
X123.54Y-92.9
X129.89Y-44.87
X129.89Y-47.41
X129.89Y-49.95
X129.89Y-52.49
X129.89Y-55.03
X129.89Y-57.57
X129.89Y-60.11
X129.89Y-62.65
X129.89Y-65.19
X129.89Y-67.73
X129.89Y-70.27
X129.89Y-72.81
X129.89Y-75.35
X129.89Y-77.89
X129.89Y-80.43
X129.89Y-82.97
X129.89Y-85.51
X129.89Y-88.05
X129.89Y-90.59
X129.89Y-93.13
T8
X139.7Y-71.12
X149.86Y-71.12
T0
M30
