%TF.GenerationSoftware,KiCad,Pcbnew,7.0.8-7.0.8~ubuntu22.04.1*%
%TF.CreationDate,2023-12-12T02:33:41+01:00*%
%TF.ProjectId,kicad,6b696361-642e-46b6-9963-61645f706362,rev?*%
%TF.SameCoordinates,Original*%
%TF.FileFunction,Drillmap*%
%TF.FilePolarity,Positive*%
%FSLAX45Y45*%
G04 Gerber Fmt 4.5, Leading zero omitted, Abs format (unit mm)*
G04 Created by KiCad (PCBNEW 7.0.8-7.0.8~ubuntu22.04.1) date 2023-12-12 02:33:41*
%MOMM*%
%LPD*%
G01*
G04 APERTURE LIST*
%ADD10C,0.100000*%
%ADD11C,0.200000*%
%ADD12C,0.150000*%
%ADD13C,0.180000*%
%ADD14C,0.350000*%
G04 APERTURE END LIST*
D10*
X10000000Y-10800000D02*
X10000000Y-4300000D01*
X10000000Y-4300000D02*
X17500000Y-4300000D01*
X17500000Y-4300000D02*
X17500000Y-10800000D01*
X17500000Y-10800000D02*
X10000000Y-10800000D01*
D11*
D12*
X11782500Y-4728000D02*
X11932500Y-4878000D01*
X11932500Y-4728000D02*
X11782500Y-4878000D01*
X12267500Y-4728000D02*
X12417500Y-4878000D01*
X12417500Y-4728000D02*
X12267500Y-4878000D01*
D13*
X11917500Y-4500000D02*
G75*
G03*
X11917500Y-4500000I-90000J0D01*
G01*
X12462500Y-4500000D02*
G75*
G03*
X12462500Y-4500000I-90000J0D01*
G01*
D14*
X10500000Y-4625000D02*
X10500000Y-4975000D01*
X10325000Y-4800000D02*
X10675000Y-4800000D01*
X10500000Y-10125000D02*
X10500000Y-10475000D01*
X10325000Y-10300000D02*
X10675000Y-10300000D01*
X17000000Y-4625000D02*
X17000000Y-4975000D01*
X16825000Y-4800000D02*
X17175000Y-4800000D01*
X17000000Y-10125000D02*
X17000000Y-10475000D01*
X16825000Y-10300000D02*
X17175000Y-10300000D01*
D11*
X10255777Y-11116484D02*
X10255777Y-10916484D01*
X10255777Y-10916484D02*
X10303396Y-10916484D01*
X10303396Y-10916484D02*
X10331967Y-10926008D01*
X10331967Y-10926008D02*
X10351015Y-10945055D01*
X10351015Y-10945055D02*
X10360539Y-10964103D01*
X10360539Y-10964103D02*
X10370063Y-11002198D01*
X10370063Y-11002198D02*
X10370063Y-11030770D01*
X10370063Y-11030770D02*
X10360539Y-11068865D01*
X10360539Y-11068865D02*
X10351015Y-11087912D01*
X10351015Y-11087912D02*
X10331967Y-11106960D01*
X10331967Y-11106960D02*
X10303396Y-11116484D01*
X10303396Y-11116484D02*
X10255777Y-11116484D01*
X10455777Y-11116484D02*
X10455777Y-10983150D01*
X10455777Y-11021246D02*
X10465301Y-11002198D01*
X10465301Y-11002198D02*
X10474824Y-10992674D01*
X10474824Y-10992674D02*
X10493872Y-10983150D01*
X10493872Y-10983150D02*
X10512920Y-10983150D01*
X10579586Y-11116484D02*
X10579586Y-10983150D01*
X10579586Y-10916484D02*
X10570063Y-10926008D01*
X10570063Y-10926008D02*
X10579586Y-10935531D01*
X10579586Y-10935531D02*
X10589110Y-10926008D01*
X10589110Y-10926008D02*
X10579586Y-10916484D01*
X10579586Y-10916484D02*
X10579586Y-10935531D01*
X10703396Y-11116484D02*
X10684348Y-11106960D01*
X10684348Y-11106960D02*
X10674824Y-11087912D01*
X10674824Y-11087912D02*
X10674824Y-10916484D01*
X10808158Y-11116484D02*
X10789110Y-11106960D01*
X10789110Y-11106960D02*
X10779586Y-11087912D01*
X10779586Y-11087912D02*
X10779586Y-10916484D01*
X11036729Y-11116484D02*
X11036729Y-10916484D01*
X11036729Y-10916484D02*
X11103396Y-11059341D01*
X11103396Y-11059341D02*
X11170063Y-10916484D01*
X11170063Y-10916484D02*
X11170063Y-11116484D01*
X11351015Y-11116484D02*
X11351015Y-11011722D01*
X11351015Y-11011722D02*
X11341491Y-10992674D01*
X11341491Y-10992674D02*
X11322443Y-10983150D01*
X11322443Y-10983150D02*
X11284348Y-10983150D01*
X11284348Y-10983150D02*
X11265301Y-10992674D01*
X11351015Y-11106960D02*
X11331967Y-11116484D01*
X11331967Y-11116484D02*
X11284348Y-11116484D01*
X11284348Y-11116484D02*
X11265301Y-11106960D01*
X11265301Y-11106960D02*
X11255777Y-11087912D01*
X11255777Y-11087912D02*
X11255777Y-11068865D01*
X11255777Y-11068865D02*
X11265301Y-11049817D01*
X11265301Y-11049817D02*
X11284348Y-11040293D01*
X11284348Y-11040293D02*
X11331967Y-11040293D01*
X11331967Y-11040293D02*
X11351015Y-11030770D01*
X11446253Y-10983150D02*
X11446253Y-11183150D01*
X11446253Y-10992674D02*
X11465301Y-10983150D01*
X11465301Y-10983150D02*
X11503396Y-10983150D01*
X11503396Y-10983150D02*
X11522443Y-10992674D01*
X11522443Y-10992674D02*
X11531967Y-11002198D01*
X11531967Y-11002198D02*
X11541491Y-11021246D01*
X11541491Y-11021246D02*
X11541491Y-11078389D01*
X11541491Y-11078389D02*
X11531967Y-11097436D01*
X11531967Y-11097436D02*
X11522443Y-11106960D01*
X11522443Y-11106960D02*
X11503396Y-11116484D01*
X11503396Y-11116484D02*
X11465301Y-11116484D01*
X11465301Y-11116484D02*
X11446253Y-11106960D01*
X11627205Y-11097436D02*
X11636729Y-11106960D01*
X11636729Y-11106960D02*
X11627205Y-11116484D01*
X11627205Y-11116484D02*
X11617682Y-11106960D01*
X11617682Y-11106960D02*
X11627205Y-11097436D01*
X11627205Y-11097436D02*
X11627205Y-11116484D01*
X11627205Y-10992674D02*
X11636729Y-11002198D01*
X11636729Y-11002198D02*
X11627205Y-11011722D01*
X11627205Y-11011722D02*
X11617682Y-11002198D01*
X11617682Y-11002198D02*
X11627205Y-10992674D01*
X11627205Y-10992674D02*
X11627205Y-11011722D01*
D12*
X9845000Y-11370000D02*
X9995000Y-11520000D01*
X9995000Y-11370000D02*
X9845000Y-11520000D01*
D11*
X10360539Y-11536484D02*
X10246253Y-11536484D01*
X10303396Y-11536484D02*
X10303396Y-11336484D01*
X10303396Y-11336484D02*
X10284348Y-11365055D01*
X10284348Y-11365055D02*
X10265301Y-11384103D01*
X10265301Y-11384103D02*
X10246253Y-11393627D01*
X10446253Y-11517436D02*
X10455777Y-11526960D01*
X10455777Y-11526960D02*
X10446253Y-11536484D01*
X10446253Y-11536484D02*
X10436729Y-11526960D01*
X10436729Y-11526960D02*
X10446253Y-11517436D01*
X10446253Y-11517436D02*
X10446253Y-11536484D01*
X10636729Y-11336484D02*
X10541491Y-11336484D01*
X10541491Y-11336484D02*
X10531967Y-11431722D01*
X10531967Y-11431722D02*
X10541491Y-11422198D01*
X10541491Y-11422198D02*
X10560539Y-11412674D01*
X10560539Y-11412674D02*
X10608158Y-11412674D01*
X10608158Y-11412674D02*
X10627205Y-11422198D01*
X10627205Y-11422198D02*
X10636729Y-11431722D01*
X10636729Y-11431722D02*
X10646253Y-11450769D01*
X10646253Y-11450769D02*
X10646253Y-11498388D01*
X10646253Y-11498388D02*
X10636729Y-11517436D01*
X10636729Y-11517436D02*
X10627205Y-11526960D01*
X10627205Y-11526960D02*
X10608158Y-11536484D01*
X10608158Y-11536484D02*
X10560539Y-11536484D01*
X10560539Y-11536484D02*
X10541491Y-11526960D01*
X10541491Y-11526960D02*
X10531967Y-11517436D01*
X10770063Y-11336484D02*
X10789110Y-11336484D01*
X10789110Y-11336484D02*
X10808158Y-11346008D01*
X10808158Y-11346008D02*
X10817682Y-11355531D01*
X10817682Y-11355531D02*
X10827205Y-11374579D01*
X10827205Y-11374579D02*
X10836729Y-11412674D01*
X10836729Y-11412674D02*
X10836729Y-11460293D01*
X10836729Y-11460293D02*
X10827205Y-11498388D01*
X10827205Y-11498388D02*
X10817682Y-11517436D01*
X10817682Y-11517436D02*
X10808158Y-11526960D01*
X10808158Y-11526960D02*
X10789110Y-11536484D01*
X10789110Y-11536484D02*
X10770063Y-11536484D01*
X10770063Y-11536484D02*
X10751015Y-11526960D01*
X10751015Y-11526960D02*
X10741491Y-11517436D01*
X10741491Y-11517436D02*
X10731967Y-11498388D01*
X10731967Y-11498388D02*
X10722444Y-11460293D01*
X10722444Y-11460293D02*
X10722444Y-11412674D01*
X10722444Y-11412674D02*
X10731967Y-11374579D01*
X10731967Y-11374579D02*
X10741491Y-11355531D01*
X10741491Y-11355531D02*
X10751015Y-11346008D01*
X10751015Y-11346008D02*
X10770063Y-11336484D01*
X10960539Y-11336484D02*
X10979586Y-11336484D01*
X10979586Y-11336484D02*
X10998634Y-11346008D01*
X10998634Y-11346008D02*
X11008158Y-11355531D01*
X11008158Y-11355531D02*
X11017682Y-11374579D01*
X11017682Y-11374579D02*
X11027205Y-11412674D01*
X11027205Y-11412674D02*
X11027205Y-11460293D01*
X11027205Y-11460293D02*
X11017682Y-11498388D01*
X11017682Y-11498388D02*
X11008158Y-11517436D01*
X11008158Y-11517436D02*
X10998634Y-11526960D01*
X10998634Y-11526960D02*
X10979586Y-11536484D01*
X10979586Y-11536484D02*
X10960539Y-11536484D01*
X10960539Y-11536484D02*
X10941491Y-11526960D01*
X10941491Y-11526960D02*
X10931967Y-11517436D01*
X10931967Y-11517436D02*
X10922444Y-11498388D01*
X10922444Y-11498388D02*
X10912920Y-11460293D01*
X10912920Y-11460293D02*
X10912920Y-11412674D01*
X10912920Y-11412674D02*
X10922444Y-11374579D01*
X10922444Y-11374579D02*
X10931967Y-11355531D01*
X10931967Y-11355531D02*
X10941491Y-11346008D01*
X10941491Y-11346008D02*
X10960539Y-11336484D01*
X11112920Y-11536484D02*
X11112920Y-11403150D01*
X11112920Y-11422198D02*
X11122444Y-11412674D01*
X11122444Y-11412674D02*
X11141491Y-11403150D01*
X11141491Y-11403150D02*
X11170063Y-11403150D01*
X11170063Y-11403150D02*
X11189110Y-11412674D01*
X11189110Y-11412674D02*
X11198634Y-11431722D01*
X11198634Y-11431722D02*
X11198634Y-11536484D01*
X11198634Y-11431722D02*
X11208158Y-11412674D01*
X11208158Y-11412674D02*
X11227205Y-11403150D01*
X11227205Y-11403150D02*
X11255777Y-11403150D01*
X11255777Y-11403150D02*
X11274824Y-11412674D01*
X11274824Y-11412674D02*
X11284348Y-11431722D01*
X11284348Y-11431722D02*
X11284348Y-11536484D01*
X11379586Y-11536484D02*
X11379586Y-11403150D01*
X11379586Y-11422198D02*
X11389110Y-11412674D01*
X11389110Y-11412674D02*
X11408158Y-11403150D01*
X11408158Y-11403150D02*
X11436729Y-11403150D01*
X11436729Y-11403150D02*
X11455777Y-11412674D01*
X11455777Y-11412674D02*
X11465301Y-11431722D01*
X11465301Y-11431722D02*
X11465301Y-11536484D01*
X11465301Y-11431722D02*
X11474824Y-11412674D01*
X11474824Y-11412674D02*
X11493872Y-11403150D01*
X11493872Y-11403150D02*
X11522443Y-11403150D01*
X11522443Y-11403150D02*
X11541491Y-11412674D01*
X11541491Y-11412674D02*
X11551015Y-11431722D01*
X11551015Y-11431722D02*
X11551015Y-11536484D01*
X11941491Y-11326960D02*
X11770063Y-11584103D01*
X12198634Y-11336484D02*
X12217682Y-11336484D01*
X12217682Y-11336484D02*
X12236729Y-11346008D01*
X12236729Y-11346008D02*
X12246253Y-11355531D01*
X12246253Y-11355531D02*
X12255777Y-11374579D01*
X12255777Y-11374579D02*
X12265301Y-11412674D01*
X12265301Y-11412674D02*
X12265301Y-11460293D01*
X12265301Y-11460293D02*
X12255777Y-11498388D01*
X12255777Y-11498388D02*
X12246253Y-11517436D01*
X12246253Y-11517436D02*
X12236729Y-11526960D01*
X12236729Y-11526960D02*
X12217682Y-11536484D01*
X12217682Y-11536484D02*
X12198634Y-11536484D01*
X12198634Y-11536484D02*
X12179586Y-11526960D01*
X12179586Y-11526960D02*
X12170063Y-11517436D01*
X12170063Y-11517436D02*
X12160539Y-11498388D01*
X12160539Y-11498388D02*
X12151015Y-11460293D01*
X12151015Y-11460293D02*
X12151015Y-11412674D01*
X12151015Y-11412674D02*
X12160539Y-11374579D01*
X12160539Y-11374579D02*
X12170063Y-11355531D01*
X12170063Y-11355531D02*
X12179586Y-11346008D01*
X12179586Y-11346008D02*
X12198634Y-11336484D01*
X12351015Y-11517436D02*
X12360539Y-11526960D01*
X12360539Y-11526960D02*
X12351015Y-11536484D01*
X12351015Y-11536484D02*
X12341491Y-11526960D01*
X12341491Y-11526960D02*
X12351015Y-11517436D01*
X12351015Y-11517436D02*
X12351015Y-11536484D01*
X12484348Y-11336484D02*
X12503396Y-11336484D01*
X12503396Y-11336484D02*
X12522444Y-11346008D01*
X12522444Y-11346008D02*
X12531967Y-11355531D01*
X12531967Y-11355531D02*
X12541491Y-11374579D01*
X12541491Y-11374579D02*
X12551015Y-11412674D01*
X12551015Y-11412674D02*
X12551015Y-11460293D01*
X12551015Y-11460293D02*
X12541491Y-11498388D01*
X12541491Y-11498388D02*
X12531967Y-11517436D01*
X12531967Y-11517436D02*
X12522444Y-11526960D01*
X12522444Y-11526960D02*
X12503396Y-11536484D01*
X12503396Y-11536484D02*
X12484348Y-11536484D01*
X12484348Y-11536484D02*
X12465301Y-11526960D01*
X12465301Y-11526960D02*
X12455777Y-11517436D01*
X12455777Y-11517436D02*
X12446253Y-11498388D01*
X12446253Y-11498388D02*
X12436729Y-11460293D01*
X12436729Y-11460293D02*
X12436729Y-11412674D01*
X12436729Y-11412674D02*
X12446253Y-11374579D01*
X12446253Y-11374579D02*
X12455777Y-11355531D01*
X12455777Y-11355531D02*
X12465301Y-11346008D01*
X12465301Y-11346008D02*
X12484348Y-11336484D01*
X12731967Y-11336484D02*
X12636729Y-11336484D01*
X12636729Y-11336484D02*
X12627206Y-11431722D01*
X12627206Y-11431722D02*
X12636729Y-11422198D01*
X12636729Y-11422198D02*
X12655777Y-11412674D01*
X12655777Y-11412674D02*
X12703396Y-11412674D01*
X12703396Y-11412674D02*
X12722444Y-11422198D01*
X12722444Y-11422198D02*
X12731967Y-11431722D01*
X12731967Y-11431722D02*
X12741491Y-11450769D01*
X12741491Y-11450769D02*
X12741491Y-11498388D01*
X12741491Y-11498388D02*
X12731967Y-11517436D01*
X12731967Y-11517436D02*
X12722444Y-11526960D01*
X12722444Y-11526960D02*
X12703396Y-11536484D01*
X12703396Y-11536484D02*
X12655777Y-11536484D01*
X12655777Y-11536484D02*
X12636729Y-11526960D01*
X12636729Y-11526960D02*
X12627206Y-11517436D01*
X12836729Y-11536484D02*
X12874825Y-11536484D01*
X12874825Y-11536484D02*
X12893872Y-11526960D01*
X12893872Y-11526960D02*
X12903396Y-11517436D01*
X12903396Y-11517436D02*
X12922444Y-11488865D01*
X12922444Y-11488865D02*
X12931967Y-11450769D01*
X12931967Y-11450769D02*
X12931967Y-11374579D01*
X12931967Y-11374579D02*
X12922444Y-11355531D01*
X12922444Y-11355531D02*
X12912920Y-11346008D01*
X12912920Y-11346008D02*
X12893872Y-11336484D01*
X12893872Y-11336484D02*
X12855777Y-11336484D01*
X12855777Y-11336484D02*
X12836729Y-11346008D01*
X12836729Y-11346008D02*
X12827206Y-11355531D01*
X12827206Y-11355531D02*
X12817682Y-11374579D01*
X12817682Y-11374579D02*
X12817682Y-11422198D01*
X12817682Y-11422198D02*
X12827206Y-11441246D01*
X12827206Y-11441246D02*
X12836729Y-11450769D01*
X12836729Y-11450769D02*
X12855777Y-11460293D01*
X12855777Y-11460293D02*
X12893872Y-11460293D01*
X12893872Y-11460293D02*
X12912920Y-11450769D01*
X12912920Y-11450769D02*
X12922444Y-11441246D01*
X12922444Y-11441246D02*
X12931967Y-11422198D01*
X13122444Y-11536484D02*
X13008158Y-11536484D01*
X13065301Y-11536484D02*
X13065301Y-11336484D01*
X13065301Y-11336484D02*
X13046253Y-11365055D01*
X13046253Y-11365055D02*
X13027206Y-11384103D01*
X13027206Y-11384103D02*
X13008158Y-11393627D01*
X13198634Y-11336484D02*
X13198634Y-11374579D01*
X13274825Y-11336484D02*
X13274825Y-11374579D01*
X13570063Y-11612674D02*
X13560539Y-11603150D01*
X13560539Y-11603150D02*
X13541491Y-11574579D01*
X13541491Y-11574579D02*
X13531968Y-11555531D01*
X13531968Y-11555531D02*
X13522444Y-11526960D01*
X13522444Y-11526960D02*
X13512920Y-11479341D01*
X13512920Y-11479341D02*
X13512920Y-11441246D01*
X13512920Y-11441246D02*
X13522444Y-11393627D01*
X13522444Y-11393627D02*
X13531968Y-11365055D01*
X13531968Y-11365055D02*
X13541491Y-11346008D01*
X13541491Y-11346008D02*
X13560539Y-11317436D01*
X13560539Y-11317436D02*
X13570063Y-11307912D01*
X13636729Y-11355531D02*
X13646253Y-11346008D01*
X13646253Y-11346008D02*
X13665301Y-11336484D01*
X13665301Y-11336484D02*
X13712920Y-11336484D01*
X13712920Y-11336484D02*
X13731968Y-11346008D01*
X13731968Y-11346008D02*
X13741491Y-11355531D01*
X13741491Y-11355531D02*
X13751015Y-11374579D01*
X13751015Y-11374579D02*
X13751015Y-11393627D01*
X13751015Y-11393627D02*
X13741491Y-11422198D01*
X13741491Y-11422198D02*
X13627206Y-11536484D01*
X13627206Y-11536484D02*
X13751015Y-11536484D01*
X13989110Y-11536484D02*
X13989110Y-11336484D01*
X14074825Y-11536484D02*
X14074825Y-11431722D01*
X14074825Y-11431722D02*
X14065301Y-11412674D01*
X14065301Y-11412674D02*
X14046253Y-11403150D01*
X14046253Y-11403150D02*
X14017682Y-11403150D01*
X14017682Y-11403150D02*
X13998634Y-11412674D01*
X13998634Y-11412674D02*
X13989110Y-11422198D01*
X14198634Y-11536484D02*
X14179587Y-11526960D01*
X14179587Y-11526960D02*
X14170063Y-11517436D01*
X14170063Y-11517436D02*
X14160539Y-11498388D01*
X14160539Y-11498388D02*
X14160539Y-11441246D01*
X14160539Y-11441246D02*
X14170063Y-11422198D01*
X14170063Y-11422198D02*
X14179587Y-11412674D01*
X14179587Y-11412674D02*
X14198634Y-11403150D01*
X14198634Y-11403150D02*
X14227206Y-11403150D01*
X14227206Y-11403150D02*
X14246253Y-11412674D01*
X14246253Y-11412674D02*
X14255777Y-11422198D01*
X14255777Y-11422198D02*
X14265301Y-11441246D01*
X14265301Y-11441246D02*
X14265301Y-11498388D01*
X14265301Y-11498388D02*
X14255777Y-11517436D01*
X14255777Y-11517436D02*
X14246253Y-11526960D01*
X14246253Y-11526960D02*
X14227206Y-11536484D01*
X14227206Y-11536484D02*
X14198634Y-11536484D01*
X14379587Y-11536484D02*
X14360539Y-11526960D01*
X14360539Y-11526960D02*
X14351015Y-11507912D01*
X14351015Y-11507912D02*
X14351015Y-11336484D01*
X14531968Y-11526960D02*
X14512920Y-11536484D01*
X14512920Y-11536484D02*
X14474825Y-11536484D01*
X14474825Y-11536484D02*
X14455777Y-11526960D01*
X14455777Y-11526960D02*
X14446253Y-11507912D01*
X14446253Y-11507912D02*
X14446253Y-11431722D01*
X14446253Y-11431722D02*
X14455777Y-11412674D01*
X14455777Y-11412674D02*
X14474825Y-11403150D01*
X14474825Y-11403150D02*
X14512920Y-11403150D01*
X14512920Y-11403150D02*
X14531968Y-11412674D01*
X14531968Y-11412674D02*
X14541491Y-11431722D01*
X14541491Y-11431722D02*
X14541491Y-11450769D01*
X14541491Y-11450769D02*
X14446253Y-11469817D01*
X14617682Y-11526960D02*
X14636730Y-11536484D01*
X14636730Y-11536484D02*
X14674825Y-11536484D01*
X14674825Y-11536484D02*
X14693872Y-11526960D01*
X14693872Y-11526960D02*
X14703396Y-11507912D01*
X14703396Y-11507912D02*
X14703396Y-11498388D01*
X14703396Y-11498388D02*
X14693872Y-11479341D01*
X14693872Y-11479341D02*
X14674825Y-11469817D01*
X14674825Y-11469817D02*
X14646253Y-11469817D01*
X14646253Y-11469817D02*
X14627206Y-11460293D01*
X14627206Y-11460293D02*
X14617682Y-11441246D01*
X14617682Y-11441246D02*
X14617682Y-11431722D01*
X14617682Y-11431722D02*
X14627206Y-11412674D01*
X14627206Y-11412674D02*
X14646253Y-11403150D01*
X14646253Y-11403150D02*
X14674825Y-11403150D01*
X14674825Y-11403150D02*
X14693872Y-11412674D01*
X14770063Y-11612674D02*
X14779587Y-11603150D01*
X14779587Y-11603150D02*
X14798634Y-11574579D01*
X14798634Y-11574579D02*
X14808158Y-11555531D01*
X14808158Y-11555531D02*
X14817682Y-11526960D01*
X14817682Y-11526960D02*
X14827206Y-11479341D01*
X14827206Y-11479341D02*
X14827206Y-11441246D01*
X14827206Y-11441246D02*
X14817682Y-11393627D01*
X14817682Y-11393627D02*
X14808158Y-11365055D01*
X14808158Y-11365055D02*
X14798634Y-11346008D01*
X14798634Y-11346008D02*
X14779587Y-11317436D01*
X14779587Y-11317436D02*
X14770063Y-11307912D01*
X15131968Y-11612674D02*
X15122444Y-11603150D01*
X15122444Y-11603150D02*
X15103396Y-11574579D01*
X15103396Y-11574579D02*
X15093872Y-11555531D01*
X15093872Y-11555531D02*
X15084349Y-11526960D01*
X15084349Y-11526960D02*
X15074825Y-11479341D01*
X15074825Y-11479341D02*
X15074825Y-11441246D01*
X15074825Y-11441246D02*
X15084349Y-11393627D01*
X15084349Y-11393627D02*
X15093872Y-11365055D01*
X15093872Y-11365055D02*
X15103396Y-11346008D01*
X15103396Y-11346008D02*
X15122444Y-11317436D01*
X15122444Y-11317436D02*
X15131968Y-11307912D01*
X15208158Y-11403150D02*
X15208158Y-11536484D01*
X15208158Y-11422198D02*
X15217682Y-11412674D01*
X15217682Y-11412674D02*
X15236730Y-11403150D01*
X15236730Y-11403150D02*
X15265301Y-11403150D01*
X15265301Y-11403150D02*
X15284349Y-11412674D01*
X15284349Y-11412674D02*
X15293872Y-11431722D01*
X15293872Y-11431722D02*
X15293872Y-11536484D01*
X15417682Y-11536484D02*
X15398634Y-11526960D01*
X15398634Y-11526960D02*
X15389111Y-11517436D01*
X15389111Y-11517436D02*
X15379587Y-11498388D01*
X15379587Y-11498388D02*
X15379587Y-11441246D01*
X15379587Y-11441246D02*
X15389111Y-11422198D01*
X15389111Y-11422198D02*
X15398634Y-11412674D01*
X15398634Y-11412674D02*
X15417682Y-11403150D01*
X15417682Y-11403150D02*
X15446253Y-11403150D01*
X15446253Y-11403150D02*
X15465301Y-11412674D01*
X15465301Y-11412674D02*
X15474825Y-11422198D01*
X15474825Y-11422198D02*
X15484349Y-11441246D01*
X15484349Y-11441246D02*
X15484349Y-11498388D01*
X15484349Y-11498388D02*
X15474825Y-11517436D01*
X15474825Y-11517436D02*
X15465301Y-11526960D01*
X15465301Y-11526960D02*
X15446253Y-11536484D01*
X15446253Y-11536484D02*
X15417682Y-11536484D01*
X15541492Y-11403150D02*
X15617682Y-11403150D01*
X15570063Y-11336484D02*
X15570063Y-11507912D01*
X15570063Y-11507912D02*
X15579587Y-11526960D01*
X15579587Y-11526960D02*
X15598634Y-11536484D01*
X15598634Y-11536484D02*
X15617682Y-11536484D01*
X15836730Y-11403150D02*
X15836730Y-11603150D01*
X15836730Y-11412674D02*
X15855777Y-11403150D01*
X15855777Y-11403150D02*
X15893873Y-11403150D01*
X15893873Y-11403150D02*
X15912920Y-11412674D01*
X15912920Y-11412674D02*
X15922444Y-11422198D01*
X15922444Y-11422198D02*
X15931968Y-11441246D01*
X15931968Y-11441246D02*
X15931968Y-11498388D01*
X15931968Y-11498388D02*
X15922444Y-11517436D01*
X15922444Y-11517436D02*
X15912920Y-11526960D01*
X15912920Y-11526960D02*
X15893873Y-11536484D01*
X15893873Y-11536484D02*
X15855777Y-11536484D01*
X15855777Y-11536484D02*
X15836730Y-11526960D01*
X16046253Y-11536484D02*
X16027206Y-11526960D01*
X16027206Y-11526960D02*
X16017682Y-11507912D01*
X16017682Y-11507912D02*
X16017682Y-11336484D01*
X16208158Y-11536484D02*
X16208158Y-11431722D01*
X16208158Y-11431722D02*
X16198634Y-11412674D01*
X16198634Y-11412674D02*
X16179587Y-11403150D01*
X16179587Y-11403150D02*
X16141492Y-11403150D01*
X16141492Y-11403150D02*
X16122444Y-11412674D01*
X16208158Y-11526960D02*
X16189111Y-11536484D01*
X16189111Y-11536484D02*
X16141492Y-11536484D01*
X16141492Y-11536484D02*
X16122444Y-11526960D01*
X16122444Y-11526960D02*
X16112920Y-11507912D01*
X16112920Y-11507912D02*
X16112920Y-11488865D01*
X16112920Y-11488865D02*
X16122444Y-11469817D01*
X16122444Y-11469817D02*
X16141492Y-11460293D01*
X16141492Y-11460293D02*
X16189111Y-11460293D01*
X16189111Y-11460293D02*
X16208158Y-11450769D01*
X16274825Y-11403150D02*
X16351015Y-11403150D01*
X16303396Y-11336484D02*
X16303396Y-11507912D01*
X16303396Y-11507912D02*
X16312920Y-11526960D01*
X16312920Y-11526960D02*
X16331968Y-11536484D01*
X16331968Y-11536484D02*
X16351015Y-11536484D01*
X16493873Y-11526960D02*
X16474825Y-11536484D01*
X16474825Y-11536484D02*
X16436730Y-11536484D01*
X16436730Y-11536484D02*
X16417682Y-11526960D01*
X16417682Y-11526960D02*
X16408158Y-11507912D01*
X16408158Y-11507912D02*
X16408158Y-11431722D01*
X16408158Y-11431722D02*
X16417682Y-11412674D01*
X16417682Y-11412674D02*
X16436730Y-11403150D01*
X16436730Y-11403150D02*
X16474825Y-11403150D01*
X16474825Y-11403150D02*
X16493873Y-11412674D01*
X16493873Y-11412674D02*
X16503396Y-11431722D01*
X16503396Y-11431722D02*
X16503396Y-11450769D01*
X16503396Y-11450769D02*
X16408158Y-11469817D01*
X16674825Y-11536484D02*
X16674825Y-11336484D01*
X16674825Y-11526960D02*
X16655777Y-11536484D01*
X16655777Y-11536484D02*
X16617682Y-11536484D01*
X16617682Y-11536484D02*
X16598634Y-11526960D01*
X16598634Y-11526960D02*
X16589111Y-11517436D01*
X16589111Y-11517436D02*
X16579587Y-11498388D01*
X16579587Y-11498388D02*
X16579587Y-11441246D01*
X16579587Y-11441246D02*
X16589111Y-11422198D01*
X16589111Y-11422198D02*
X16598634Y-11412674D01*
X16598634Y-11412674D02*
X16617682Y-11403150D01*
X16617682Y-11403150D02*
X16655777Y-11403150D01*
X16655777Y-11403150D02*
X16674825Y-11412674D01*
X16751015Y-11612674D02*
X16760539Y-11603150D01*
X16760539Y-11603150D02*
X16779587Y-11574579D01*
X16779587Y-11574579D02*
X16789111Y-11555531D01*
X16789111Y-11555531D02*
X16798635Y-11526960D01*
X16798635Y-11526960D02*
X16808158Y-11479341D01*
X16808158Y-11479341D02*
X16808158Y-11441246D01*
X16808158Y-11441246D02*
X16798635Y-11393627D01*
X16798635Y-11393627D02*
X16789111Y-11365055D01*
X16789111Y-11365055D02*
X16779587Y-11346008D01*
X16779587Y-11346008D02*
X16760539Y-11317436D01*
X16760539Y-11317436D02*
X16751015Y-11307912D01*
D13*
X9995000Y-11715000D02*
G75*
G03*
X9995000Y-11715000I-90000J0D01*
G01*
D11*
X10360539Y-11806484D02*
X10246253Y-11806484D01*
X10303396Y-11806484D02*
X10303396Y-11606484D01*
X10303396Y-11606484D02*
X10284348Y-11635055D01*
X10284348Y-11635055D02*
X10265301Y-11654103D01*
X10265301Y-11654103D02*
X10246253Y-11663627D01*
X10446253Y-11787436D02*
X10455777Y-11796960D01*
X10455777Y-11796960D02*
X10446253Y-11806484D01*
X10446253Y-11806484D02*
X10436729Y-11796960D01*
X10436729Y-11796960D02*
X10446253Y-11787436D01*
X10446253Y-11787436D02*
X10446253Y-11806484D01*
X10570063Y-11692198D02*
X10551015Y-11682674D01*
X10551015Y-11682674D02*
X10541491Y-11673150D01*
X10541491Y-11673150D02*
X10531967Y-11654103D01*
X10531967Y-11654103D02*
X10531967Y-11644579D01*
X10531967Y-11644579D02*
X10541491Y-11625531D01*
X10541491Y-11625531D02*
X10551015Y-11616008D01*
X10551015Y-11616008D02*
X10570063Y-11606484D01*
X10570063Y-11606484D02*
X10608158Y-11606484D01*
X10608158Y-11606484D02*
X10627205Y-11616008D01*
X10627205Y-11616008D02*
X10636729Y-11625531D01*
X10636729Y-11625531D02*
X10646253Y-11644579D01*
X10646253Y-11644579D02*
X10646253Y-11654103D01*
X10646253Y-11654103D02*
X10636729Y-11673150D01*
X10636729Y-11673150D02*
X10627205Y-11682674D01*
X10627205Y-11682674D02*
X10608158Y-11692198D01*
X10608158Y-11692198D02*
X10570063Y-11692198D01*
X10570063Y-11692198D02*
X10551015Y-11701722D01*
X10551015Y-11701722D02*
X10541491Y-11711246D01*
X10541491Y-11711246D02*
X10531967Y-11730293D01*
X10531967Y-11730293D02*
X10531967Y-11768388D01*
X10531967Y-11768388D02*
X10541491Y-11787436D01*
X10541491Y-11787436D02*
X10551015Y-11796960D01*
X10551015Y-11796960D02*
X10570063Y-11806484D01*
X10570063Y-11806484D02*
X10608158Y-11806484D01*
X10608158Y-11806484D02*
X10627205Y-11796960D01*
X10627205Y-11796960D02*
X10636729Y-11787436D01*
X10636729Y-11787436D02*
X10646253Y-11768388D01*
X10646253Y-11768388D02*
X10646253Y-11730293D01*
X10646253Y-11730293D02*
X10636729Y-11711246D01*
X10636729Y-11711246D02*
X10627205Y-11701722D01*
X10627205Y-11701722D02*
X10608158Y-11692198D01*
X10770063Y-11606484D02*
X10789110Y-11606484D01*
X10789110Y-11606484D02*
X10808158Y-11616008D01*
X10808158Y-11616008D02*
X10817682Y-11625531D01*
X10817682Y-11625531D02*
X10827205Y-11644579D01*
X10827205Y-11644579D02*
X10836729Y-11682674D01*
X10836729Y-11682674D02*
X10836729Y-11730293D01*
X10836729Y-11730293D02*
X10827205Y-11768388D01*
X10827205Y-11768388D02*
X10817682Y-11787436D01*
X10817682Y-11787436D02*
X10808158Y-11796960D01*
X10808158Y-11796960D02*
X10789110Y-11806484D01*
X10789110Y-11806484D02*
X10770063Y-11806484D01*
X10770063Y-11806484D02*
X10751015Y-11796960D01*
X10751015Y-11796960D02*
X10741491Y-11787436D01*
X10741491Y-11787436D02*
X10731967Y-11768388D01*
X10731967Y-11768388D02*
X10722444Y-11730293D01*
X10722444Y-11730293D02*
X10722444Y-11682674D01*
X10722444Y-11682674D02*
X10731967Y-11644579D01*
X10731967Y-11644579D02*
X10741491Y-11625531D01*
X10741491Y-11625531D02*
X10751015Y-11616008D01*
X10751015Y-11616008D02*
X10770063Y-11606484D01*
X10960539Y-11606484D02*
X10979586Y-11606484D01*
X10979586Y-11606484D02*
X10998634Y-11616008D01*
X10998634Y-11616008D02*
X11008158Y-11625531D01*
X11008158Y-11625531D02*
X11017682Y-11644579D01*
X11017682Y-11644579D02*
X11027205Y-11682674D01*
X11027205Y-11682674D02*
X11027205Y-11730293D01*
X11027205Y-11730293D02*
X11017682Y-11768388D01*
X11017682Y-11768388D02*
X11008158Y-11787436D01*
X11008158Y-11787436D02*
X10998634Y-11796960D01*
X10998634Y-11796960D02*
X10979586Y-11806484D01*
X10979586Y-11806484D02*
X10960539Y-11806484D01*
X10960539Y-11806484D02*
X10941491Y-11796960D01*
X10941491Y-11796960D02*
X10931967Y-11787436D01*
X10931967Y-11787436D02*
X10922444Y-11768388D01*
X10922444Y-11768388D02*
X10912920Y-11730293D01*
X10912920Y-11730293D02*
X10912920Y-11682674D01*
X10912920Y-11682674D02*
X10922444Y-11644579D01*
X10922444Y-11644579D02*
X10931967Y-11625531D01*
X10931967Y-11625531D02*
X10941491Y-11616008D01*
X10941491Y-11616008D02*
X10960539Y-11606484D01*
X11112920Y-11806484D02*
X11112920Y-11673150D01*
X11112920Y-11692198D02*
X11122444Y-11682674D01*
X11122444Y-11682674D02*
X11141491Y-11673150D01*
X11141491Y-11673150D02*
X11170063Y-11673150D01*
X11170063Y-11673150D02*
X11189110Y-11682674D01*
X11189110Y-11682674D02*
X11198634Y-11701722D01*
X11198634Y-11701722D02*
X11198634Y-11806484D01*
X11198634Y-11701722D02*
X11208158Y-11682674D01*
X11208158Y-11682674D02*
X11227205Y-11673150D01*
X11227205Y-11673150D02*
X11255777Y-11673150D01*
X11255777Y-11673150D02*
X11274824Y-11682674D01*
X11274824Y-11682674D02*
X11284348Y-11701722D01*
X11284348Y-11701722D02*
X11284348Y-11806484D01*
X11379586Y-11806484D02*
X11379586Y-11673150D01*
X11379586Y-11692198D02*
X11389110Y-11682674D01*
X11389110Y-11682674D02*
X11408158Y-11673150D01*
X11408158Y-11673150D02*
X11436729Y-11673150D01*
X11436729Y-11673150D02*
X11455777Y-11682674D01*
X11455777Y-11682674D02*
X11465301Y-11701722D01*
X11465301Y-11701722D02*
X11465301Y-11806484D01*
X11465301Y-11701722D02*
X11474824Y-11682674D01*
X11474824Y-11682674D02*
X11493872Y-11673150D01*
X11493872Y-11673150D02*
X11522443Y-11673150D01*
X11522443Y-11673150D02*
X11541491Y-11682674D01*
X11541491Y-11682674D02*
X11551015Y-11701722D01*
X11551015Y-11701722D02*
X11551015Y-11806484D01*
X11941491Y-11596960D02*
X11770063Y-11854103D01*
X12198634Y-11606484D02*
X12217682Y-11606484D01*
X12217682Y-11606484D02*
X12236729Y-11616008D01*
X12236729Y-11616008D02*
X12246253Y-11625531D01*
X12246253Y-11625531D02*
X12255777Y-11644579D01*
X12255777Y-11644579D02*
X12265301Y-11682674D01*
X12265301Y-11682674D02*
X12265301Y-11730293D01*
X12265301Y-11730293D02*
X12255777Y-11768388D01*
X12255777Y-11768388D02*
X12246253Y-11787436D01*
X12246253Y-11787436D02*
X12236729Y-11796960D01*
X12236729Y-11796960D02*
X12217682Y-11806484D01*
X12217682Y-11806484D02*
X12198634Y-11806484D01*
X12198634Y-11806484D02*
X12179586Y-11796960D01*
X12179586Y-11796960D02*
X12170063Y-11787436D01*
X12170063Y-11787436D02*
X12160539Y-11768388D01*
X12160539Y-11768388D02*
X12151015Y-11730293D01*
X12151015Y-11730293D02*
X12151015Y-11682674D01*
X12151015Y-11682674D02*
X12160539Y-11644579D01*
X12160539Y-11644579D02*
X12170063Y-11625531D01*
X12170063Y-11625531D02*
X12179586Y-11616008D01*
X12179586Y-11616008D02*
X12198634Y-11606484D01*
X12351015Y-11787436D02*
X12360539Y-11796960D01*
X12360539Y-11796960D02*
X12351015Y-11806484D01*
X12351015Y-11806484D02*
X12341491Y-11796960D01*
X12341491Y-11796960D02*
X12351015Y-11787436D01*
X12351015Y-11787436D02*
X12351015Y-11806484D01*
X12484348Y-11606484D02*
X12503396Y-11606484D01*
X12503396Y-11606484D02*
X12522444Y-11616008D01*
X12522444Y-11616008D02*
X12531967Y-11625531D01*
X12531967Y-11625531D02*
X12541491Y-11644579D01*
X12541491Y-11644579D02*
X12551015Y-11682674D01*
X12551015Y-11682674D02*
X12551015Y-11730293D01*
X12551015Y-11730293D02*
X12541491Y-11768388D01*
X12541491Y-11768388D02*
X12531967Y-11787436D01*
X12531967Y-11787436D02*
X12522444Y-11796960D01*
X12522444Y-11796960D02*
X12503396Y-11806484D01*
X12503396Y-11806484D02*
X12484348Y-11806484D01*
X12484348Y-11806484D02*
X12465301Y-11796960D01*
X12465301Y-11796960D02*
X12455777Y-11787436D01*
X12455777Y-11787436D02*
X12446253Y-11768388D01*
X12446253Y-11768388D02*
X12436729Y-11730293D01*
X12436729Y-11730293D02*
X12436729Y-11682674D01*
X12436729Y-11682674D02*
X12446253Y-11644579D01*
X12446253Y-11644579D02*
X12455777Y-11625531D01*
X12455777Y-11625531D02*
X12465301Y-11616008D01*
X12465301Y-11616008D02*
X12484348Y-11606484D01*
X12617682Y-11606484D02*
X12751015Y-11606484D01*
X12751015Y-11606484D02*
X12665301Y-11806484D01*
X12865301Y-11606484D02*
X12884348Y-11606484D01*
X12884348Y-11606484D02*
X12903396Y-11616008D01*
X12903396Y-11616008D02*
X12912920Y-11625531D01*
X12912920Y-11625531D02*
X12922444Y-11644579D01*
X12922444Y-11644579D02*
X12931967Y-11682674D01*
X12931967Y-11682674D02*
X12931967Y-11730293D01*
X12931967Y-11730293D02*
X12922444Y-11768388D01*
X12922444Y-11768388D02*
X12912920Y-11787436D01*
X12912920Y-11787436D02*
X12903396Y-11796960D01*
X12903396Y-11796960D02*
X12884348Y-11806484D01*
X12884348Y-11806484D02*
X12865301Y-11806484D01*
X12865301Y-11806484D02*
X12846253Y-11796960D01*
X12846253Y-11796960D02*
X12836729Y-11787436D01*
X12836729Y-11787436D02*
X12827206Y-11768388D01*
X12827206Y-11768388D02*
X12817682Y-11730293D01*
X12817682Y-11730293D02*
X12817682Y-11682674D01*
X12817682Y-11682674D02*
X12827206Y-11644579D01*
X12827206Y-11644579D02*
X12836729Y-11625531D01*
X12836729Y-11625531D02*
X12846253Y-11616008D01*
X12846253Y-11616008D02*
X12865301Y-11606484D01*
X13027206Y-11806484D02*
X13065301Y-11806484D01*
X13065301Y-11806484D02*
X13084348Y-11796960D01*
X13084348Y-11796960D02*
X13093872Y-11787436D01*
X13093872Y-11787436D02*
X13112920Y-11758865D01*
X13112920Y-11758865D02*
X13122444Y-11720769D01*
X13122444Y-11720769D02*
X13122444Y-11644579D01*
X13122444Y-11644579D02*
X13112920Y-11625531D01*
X13112920Y-11625531D02*
X13103396Y-11616008D01*
X13103396Y-11616008D02*
X13084348Y-11606484D01*
X13084348Y-11606484D02*
X13046253Y-11606484D01*
X13046253Y-11606484D02*
X13027206Y-11616008D01*
X13027206Y-11616008D02*
X13017682Y-11625531D01*
X13017682Y-11625531D02*
X13008158Y-11644579D01*
X13008158Y-11644579D02*
X13008158Y-11692198D01*
X13008158Y-11692198D02*
X13017682Y-11711246D01*
X13017682Y-11711246D02*
X13027206Y-11720769D01*
X13027206Y-11720769D02*
X13046253Y-11730293D01*
X13046253Y-11730293D02*
X13084348Y-11730293D01*
X13084348Y-11730293D02*
X13103396Y-11720769D01*
X13103396Y-11720769D02*
X13112920Y-11711246D01*
X13112920Y-11711246D02*
X13122444Y-11692198D01*
X13198634Y-11606484D02*
X13198634Y-11644579D01*
X13274825Y-11606484D02*
X13274825Y-11644579D01*
X13570063Y-11882674D02*
X13560539Y-11873150D01*
X13560539Y-11873150D02*
X13541491Y-11844579D01*
X13541491Y-11844579D02*
X13531968Y-11825531D01*
X13531968Y-11825531D02*
X13522444Y-11796960D01*
X13522444Y-11796960D02*
X13512920Y-11749341D01*
X13512920Y-11749341D02*
X13512920Y-11711246D01*
X13512920Y-11711246D02*
X13522444Y-11663627D01*
X13522444Y-11663627D02*
X13531968Y-11635055D01*
X13531968Y-11635055D02*
X13541491Y-11616008D01*
X13541491Y-11616008D02*
X13560539Y-11587436D01*
X13560539Y-11587436D02*
X13570063Y-11577912D01*
X13636729Y-11625531D02*
X13646253Y-11616008D01*
X13646253Y-11616008D02*
X13665301Y-11606484D01*
X13665301Y-11606484D02*
X13712920Y-11606484D01*
X13712920Y-11606484D02*
X13731968Y-11616008D01*
X13731968Y-11616008D02*
X13741491Y-11625531D01*
X13741491Y-11625531D02*
X13751015Y-11644579D01*
X13751015Y-11644579D02*
X13751015Y-11663627D01*
X13751015Y-11663627D02*
X13741491Y-11692198D01*
X13741491Y-11692198D02*
X13627206Y-11806484D01*
X13627206Y-11806484D02*
X13751015Y-11806484D01*
X13989110Y-11806484D02*
X13989110Y-11606484D01*
X14074825Y-11806484D02*
X14074825Y-11701722D01*
X14074825Y-11701722D02*
X14065301Y-11682674D01*
X14065301Y-11682674D02*
X14046253Y-11673150D01*
X14046253Y-11673150D02*
X14017682Y-11673150D01*
X14017682Y-11673150D02*
X13998634Y-11682674D01*
X13998634Y-11682674D02*
X13989110Y-11692198D01*
X14198634Y-11806484D02*
X14179587Y-11796960D01*
X14179587Y-11796960D02*
X14170063Y-11787436D01*
X14170063Y-11787436D02*
X14160539Y-11768388D01*
X14160539Y-11768388D02*
X14160539Y-11711246D01*
X14160539Y-11711246D02*
X14170063Y-11692198D01*
X14170063Y-11692198D02*
X14179587Y-11682674D01*
X14179587Y-11682674D02*
X14198634Y-11673150D01*
X14198634Y-11673150D02*
X14227206Y-11673150D01*
X14227206Y-11673150D02*
X14246253Y-11682674D01*
X14246253Y-11682674D02*
X14255777Y-11692198D01*
X14255777Y-11692198D02*
X14265301Y-11711246D01*
X14265301Y-11711246D02*
X14265301Y-11768388D01*
X14265301Y-11768388D02*
X14255777Y-11787436D01*
X14255777Y-11787436D02*
X14246253Y-11796960D01*
X14246253Y-11796960D02*
X14227206Y-11806484D01*
X14227206Y-11806484D02*
X14198634Y-11806484D01*
X14379587Y-11806484D02*
X14360539Y-11796960D01*
X14360539Y-11796960D02*
X14351015Y-11777912D01*
X14351015Y-11777912D02*
X14351015Y-11606484D01*
X14531968Y-11796960D02*
X14512920Y-11806484D01*
X14512920Y-11806484D02*
X14474825Y-11806484D01*
X14474825Y-11806484D02*
X14455777Y-11796960D01*
X14455777Y-11796960D02*
X14446253Y-11777912D01*
X14446253Y-11777912D02*
X14446253Y-11701722D01*
X14446253Y-11701722D02*
X14455777Y-11682674D01*
X14455777Y-11682674D02*
X14474825Y-11673150D01*
X14474825Y-11673150D02*
X14512920Y-11673150D01*
X14512920Y-11673150D02*
X14531968Y-11682674D01*
X14531968Y-11682674D02*
X14541491Y-11701722D01*
X14541491Y-11701722D02*
X14541491Y-11720769D01*
X14541491Y-11720769D02*
X14446253Y-11739817D01*
X14617682Y-11796960D02*
X14636730Y-11806484D01*
X14636730Y-11806484D02*
X14674825Y-11806484D01*
X14674825Y-11806484D02*
X14693872Y-11796960D01*
X14693872Y-11796960D02*
X14703396Y-11777912D01*
X14703396Y-11777912D02*
X14703396Y-11768388D01*
X14703396Y-11768388D02*
X14693872Y-11749341D01*
X14693872Y-11749341D02*
X14674825Y-11739817D01*
X14674825Y-11739817D02*
X14646253Y-11739817D01*
X14646253Y-11739817D02*
X14627206Y-11730293D01*
X14627206Y-11730293D02*
X14617682Y-11711246D01*
X14617682Y-11711246D02*
X14617682Y-11701722D01*
X14617682Y-11701722D02*
X14627206Y-11682674D01*
X14627206Y-11682674D02*
X14646253Y-11673150D01*
X14646253Y-11673150D02*
X14674825Y-11673150D01*
X14674825Y-11673150D02*
X14693872Y-11682674D01*
X14770063Y-11882674D02*
X14779587Y-11873150D01*
X14779587Y-11873150D02*
X14798634Y-11844579D01*
X14798634Y-11844579D02*
X14808158Y-11825531D01*
X14808158Y-11825531D02*
X14817682Y-11796960D01*
X14817682Y-11796960D02*
X14827206Y-11749341D01*
X14827206Y-11749341D02*
X14827206Y-11711246D01*
X14827206Y-11711246D02*
X14817682Y-11663627D01*
X14817682Y-11663627D02*
X14808158Y-11635055D01*
X14808158Y-11635055D02*
X14798634Y-11616008D01*
X14798634Y-11616008D02*
X14779587Y-11587436D01*
X14779587Y-11587436D02*
X14770063Y-11577912D01*
X15131968Y-11882674D02*
X15122444Y-11873150D01*
X15122444Y-11873150D02*
X15103396Y-11844579D01*
X15103396Y-11844579D02*
X15093872Y-11825531D01*
X15093872Y-11825531D02*
X15084349Y-11796960D01*
X15084349Y-11796960D02*
X15074825Y-11749341D01*
X15074825Y-11749341D02*
X15074825Y-11711246D01*
X15074825Y-11711246D02*
X15084349Y-11663627D01*
X15084349Y-11663627D02*
X15093872Y-11635055D01*
X15093872Y-11635055D02*
X15103396Y-11616008D01*
X15103396Y-11616008D02*
X15122444Y-11587436D01*
X15122444Y-11587436D02*
X15131968Y-11577912D01*
X15208158Y-11673150D02*
X15208158Y-11806484D01*
X15208158Y-11692198D02*
X15217682Y-11682674D01*
X15217682Y-11682674D02*
X15236730Y-11673150D01*
X15236730Y-11673150D02*
X15265301Y-11673150D01*
X15265301Y-11673150D02*
X15284349Y-11682674D01*
X15284349Y-11682674D02*
X15293872Y-11701722D01*
X15293872Y-11701722D02*
X15293872Y-11806484D01*
X15417682Y-11806484D02*
X15398634Y-11796960D01*
X15398634Y-11796960D02*
X15389111Y-11787436D01*
X15389111Y-11787436D02*
X15379587Y-11768388D01*
X15379587Y-11768388D02*
X15379587Y-11711246D01*
X15379587Y-11711246D02*
X15389111Y-11692198D01*
X15389111Y-11692198D02*
X15398634Y-11682674D01*
X15398634Y-11682674D02*
X15417682Y-11673150D01*
X15417682Y-11673150D02*
X15446253Y-11673150D01*
X15446253Y-11673150D02*
X15465301Y-11682674D01*
X15465301Y-11682674D02*
X15474825Y-11692198D01*
X15474825Y-11692198D02*
X15484349Y-11711246D01*
X15484349Y-11711246D02*
X15484349Y-11768388D01*
X15484349Y-11768388D02*
X15474825Y-11787436D01*
X15474825Y-11787436D02*
X15465301Y-11796960D01*
X15465301Y-11796960D02*
X15446253Y-11806484D01*
X15446253Y-11806484D02*
X15417682Y-11806484D01*
X15541492Y-11673150D02*
X15617682Y-11673150D01*
X15570063Y-11606484D02*
X15570063Y-11777912D01*
X15570063Y-11777912D02*
X15579587Y-11796960D01*
X15579587Y-11796960D02*
X15598634Y-11806484D01*
X15598634Y-11806484D02*
X15617682Y-11806484D01*
X15836730Y-11673150D02*
X15836730Y-11873150D01*
X15836730Y-11682674D02*
X15855777Y-11673150D01*
X15855777Y-11673150D02*
X15893873Y-11673150D01*
X15893873Y-11673150D02*
X15912920Y-11682674D01*
X15912920Y-11682674D02*
X15922444Y-11692198D01*
X15922444Y-11692198D02*
X15931968Y-11711246D01*
X15931968Y-11711246D02*
X15931968Y-11768388D01*
X15931968Y-11768388D02*
X15922444Y-11787436D01*
X15922444Y-11787436D02*
X15912920Y-11796960D01*
X15912920Y-11796960D02*
X15893873Y-11806484D01*
X15893873Y-11806484D02*
X15855777Y-11806484D01*
X15855777Y-11806484D02*
X15836730Y-11796960D01*
X16046253Y-11806484D02*
X16027206Y-11796960D01*
X16027206Y-11796960D02*
X16017682Y-11777912D01*
X16017682Y-11777912D02*
X16017682Y-11606484D01*
X16208158Y-11806484D02*
X16208158Y-11701722D01*
X16208158Y-11701722D02*
X16198634Y-11682674D01*
X16198634Y-11682674D02*
X16179587Y-11673150D01*
X16179587Y-11673150D02*
X16141492Y-11673150D01*
X16141492Y-11673150D02*
X16122444Y-11682674D01*
X16208158Y-11796960D02*
X16189111Y-11806484D01*
X16189111Y-11806484D02*
X16141492Y-11806484D01*
X16141492Y-11806484D02*
X16122444Y-11796960D01*
X16122444Y-11796960D02*
X16112920Y-11777912D01*
X16112920Y-11777912D02*
X16112920Y-11758865D01*
X16112920Y-11758865D02*
X16122444Y-11739817D01*
X16122444Y-11739817D02*
X16141492Y-11730293D01*
X16141492Y-11730293D02*
X16189111Y-11730293D01*
X16189111Y-11730293D02*
X16208158Y-11720769D01*
X16274825Y-11673150D02*
X16351015Y-11673150D01*
X16303396Y-11606484D02*
X16303396Y-11777912D01*
X16303396Y-11777912D02*
X16312920Y-11796960D01*
X16312920Y-11796960D02*
X16331968Y-11806484D01*
X16331968Y-11806484D02*
X16351015Y-11806484D01*
X16493873Y-11796960D02*
X16474825Y-11806484D01*
X16474825Y-11806484D02*
X16436730Y-11806484D01*
X16436730Y-11806484D02*
X16417682Y-11796960D01*
X16417682Y-11796960D02*
X16408158Y-11777912D01*
X16408158Y-11777912D02*
X16408158Y-11701722D01*
X16408158Y-11701722D02*
X16417682Y-11682674D01*
X16417682Y-11682674D02*
X16436730Y-11673150D01*
X16436730Y-11673150D02*
X16474825Y-11673150D01*
X16474825Y-11673150D02*
X16493873Y-11682674D01*
X16493873Y-11682674D02*
X16503396Y-11701722D01*
X16503396Y-11701722D02*
X16503396Y-11720769D01*
X16503396Y-11720769D02*
X16408158Y-11739817D01*
X16674825Y-11806484D02*
X16674825Y-11606484D01*
X16674825Y-11796960D02*
X16655777Y-11806484D01*
X16655777Y-11806484D02*
X16617682Y-11806484D01*
X16617682Y-11806484D02*
X16598634Y-11796960D01*
X16598634Y-11796960D02*
X16589111Y-11787436D01*
X16589111Y-11787436D02*
X16579587Y-11768388D01*
X16579587Y-11768388D02*
X16579587Y-11711246D01*
X16579587Y-11711246D02*
X16589111Y-11692198D01*
X16589111Y-11692198D02*
X16598634Y-11682674D01*
X16598634Y-11682674D02*
X16617682Y-11673150D01*
X16617682Y-11673150D02*
X16655777Y-11673150D01*
X16655777Y-11673150D02*
X16674825Y-11682674D01*
X16751015Y-11882674D02*
X16760539Y-11873150D01*
X16760539Y-11873150D02*
X16779587Y-11844579D01*
X16779587Y-11844579D02*
X16789111Y-11825531D01*
X16789111Y-11825531D02*
X16798635Y-11796960D01*
X16798635Y-11796960D02*
X16808158Y-11749341D01*
X16808158Y-11749341D02*
X16808158Y-11711246D01*
X16808158Y-11711246D02*
X16798635Y-11663627D01*
X16798635Y-11663627D02*
X16789111Y-11635055D01*
X16789111Y-11635055D02*
X16779587Y-11616008D01*
X16779587Y-11616008D02*
X16760539Y-11587436D01*
X16760539Y-11587436D02*
X16751015Y-11577912D01*
X9895000Y-11915000D02*
X9895000Y-12115000D01*
X9795000Y-12015000D02*
X9995000Y-12015000D01*
X10236729Y-11906484D02*
X10360539Y-11906484D01*
X10360539Y-11906484D02*
X10293872Y-11982674D01*
X10293872Y-11982674D02*
X10322444Y-11982674D01*
X10322444Y-11982674D02*
X10341491Y-11992198D01*
X10341491Y-11992198D02*
X10351015Y-12001722D01*
X10351015Y-12001722D02*
X10360539Y-12020769D01*
X10360539Y-12020769D02*
X10360539Y-12068388D01*
X10360539Y-12068388D02*
X10351015Y-12087436D01*
X10351015Y-12087436D02*
X10341491Y-12096960D01*
X10341491Y-12096960D02*
X10322444Y-12106484D01*
X10322444Y-12106484D02*
X10265301Y-12106484D01*
X10265301Y-12106484D02*
X10246253Y-12096960D01*
X10246253Y-12096960D02*
X10236729Y-12087436D01*
X10446253Y-12087436D02*
X10455777Y-12096960D01*
X10455777Y-12096960D02*
X10446253Y-12106484D01*
X10446253Y-12106484D02*
X10436729Y-12096960D01*
X10436729Y-12096960D02*
X10446253Y-12087436D01*
X10446253Y-12087436D02*
X10446253Y-12106484D01*
X10636729Y-11906484D02*
X10541491Y-11906484D01*
X10541491Y-11906484D02*
X10531967Y-12001722D01*
X10531967Y-12001722D02*
X10541491Y-11992198D01*
X10541491Y-11992198D02*
X10560539Y-11982674D01*
X10560539Y-11982674D02*
X10608158Y-11982674D01*
X10608158Y-11982674D02*
X10627205Y-11992198D01*
X10627205Y-11992198D02*
X10636729Y-12001722D01*
X10636729Y-12001722D02*
X10646253Y-12020769D01*
X10646253Y-12020769D02*
X10646253Y-12068388D01*
X10646253Y-12068388D02*
X10636729Y-12087436D01*
X10636729Y-12087436D02*
X10627205Y-12096960D01*
X10627205Y-12096960D02*
X10608158Y-12106484D01*
X10608158Y-12106484D02*
X10560539Y-12106484D01*
X10560539Y-12106484D02*
X10541491Y-12096960D01*
X10541491Y-12096960D02*
X10531967Y-12087436D01*
X10770063Y-11906484D02*
X10789110Y-11906484D01*
X10789110Y-11906484D02*
X10808158Y-11916008D01*
X10808158Y-11916008D02*
X10817682Y-11925531D01*
X10817682Y-11925531D02*
X10827205Y-11944579D01*
X10827205Y-11944579D02*
X10836729Y-11982674D01*
X10836729Y-11982674D02*
X10836729Y-12030293D01*
X10836729Y-12030293D02*
X10827205Y-12068388D01*
X10827205Y-12068388D02*
X10817682Y-12087436D01*
X10817682Y-12087436D02*
X10808158Y-12096960D01*
X10808158Y-12096960D02*
X10789110Y-12106484D01*
X10789110Y-12106484D02*
X10770063Y-12106484D01*
X10770063Y-12106484D02*
X10751015Y-12096960D01*
X10751015Y-12096960D02*
X10741491Y-12087436D01*
X10741491Y-12087436D02*
X10731967Y-12068388D01*
X10731967Y-12068388D02*
X10722444Y-12030293D01*
X10722444Y-12030293D02*
X10722444Y-11982674D01*
X10722444Y-11982674D02*
X10731967Y-11944579D01*
X10731967Y-11944579D02*
X10741491Y-11925531D01*
X10741491Y-11925531D02*
X10751015Y-11916008D01*
X10751015Y-11916008D02*
X10770063Y-11906484D01*
X10960539Y-11906484D02*
X10979586Y-11906484D01*
X10979586Y-11906484D02*
X10998634Y-11916008D01*
X10998634Y-11916008D02*
X11008158Y-11925531D01*
X11008158Y-11925531D02*
X11017682Y-11944579D01*
X11017682Y-11944579D02*
X11027205Y-11982674D01*
X11027205Y-11982674D02*
X11027205Y-12030293D01*
X11027205Y-12030293D02*
X11017682Y-12068388D01*
X11017682Y-12068388D02*
X11008158Y-12087436D01*
X11008158Y-12087436D02*
X10998634Y-12096960D01*
X10998634Y-12096960D02*
X10979586Y-12106484D01*
X10979586Y-12106484D02*
X10960539Y-12106484D01*
X10960539Y-12106484D02*
X10941491Y-12096960D01*
X10941491Y-12096960D02*
X10931967Y-12087436D01*
X10931967Y-12087436D02*
X10922444Y-12068388D01*
X10922444Y-12068388D02*
X10912920Y-12030293D01*
X10912920Y-12030293D02*
X10912920Y-11982674D01*
X10912920Y-11982674D02*
X10922444Y-11944579D01*
X10922444Y-11944579D02*
X10931967Y-11925531D01*
X10931967Y-11925531D02*
X10941491Y-11916008D01*
X10941491Y-11916008D02*
X10960539Y-11906484D01*
X11112920Y-12106484D02*
X11112920Y-11973150D01*
X11112920Y-11992198D02*
X11122444Y-11982674D01*
X11122444Y-11982674D02*
X11141491Y-11973150D01*
X11141491Y-11973150D02*
X11170063Y-11973150D01*
X11170063Y-11973150D02*
X11189110Y-11982674D01*
X11189110Y-11982674D02*
X11198634Y-12001722D01*
X11198634Y-12001722D02*
X11198634Y-12106484D01*
X11198634Y-12001722D02*
X11208158Y-11982674D01*
X11208158Y-11982674D02*
X11227205Y-11973150D01*
X11227205Y-11973150D02*
X11255777Y-11973150D01*
X11255777Y-11973150D02*
X11274824Y-11982674D01*
X11274824Y-11982674D02*
X11284348Y-12001722D01*
X11284348Y-12001722D02*
X11284348Y-12106484D01*
X11379586Y-12106484D02*
X11379586Y-11973150D01*
X11379586Y-11992198D02*
X11389110Y-11982674D01*
X11389110Y-11982674D02*
X11408158Y-11973150D01*
X11408158Y-11973150D02*
X11436729Y-11973150D01*
X11436729Y-11973150D02*
X11455777Y-11982674D01*
X11455777Y-11982674D02*
X11465301Y-12001722D01*
X11465301Y-12001722D02*
X11465301Y-12106484D01*
X11465301Y-12001722D02*
X11474824Y-11982674D01*
X11474824Y-11982674D02*
X11493872Y-11973150D01*
X11493872Y-11973150D02*
X11522443Y-11973150D01*
X11522443Y-11973150D02*
X11541491Y-11982674D01*
X11541491Y-11982674D02*
X11551015Y-12001722D01*
X11551015Y-12001722D02*
X11551015Y-12106484D01*
X11941491Y-11896960D02*
X11770063Y-12154103D01*
X12198634Y-11906484D02*
X12217682Y-11906484D01*
X12217682Y-11906484D02*
X12236729Y-11916008D01*
X12236729Y-11916008D02*
X12246253Y-11925531D01*
X12246253Y-11925531D02*
X12255777Y-11944579D01*
X12255777Y-11944579D02*
X12265301Y-11982674D01*
X12265301Y-11982674D02*
X12265301Y-12030293D01*
X12265301Y-12030293D02*
X12255777Y-12068388D01*
X12255777Y-12068388D02*
X12246253Y-12087436D01*
X12246253Y-12087436D02*
X12236729Y-12096960D01*
X12236729Y-12096960D02*
X12217682Y-12106484D01*
X12217682Y-12106484D02*
X12198634Y-12106484D01*
X12198634Y-12106484D02*
X12179586Y-12096960D01*
X12179586Y-12096960D02*
X12170063Y-12087436D01*
X12170063Y-12087436D02*
X12160539Y-12068388D01*
X12160539Y-12068388D02*
X12151015Y-12030293D01*
X12151015Y-12030293D02*
X12151015Y-11982674D01*
X12151015Y-11982674D02*
X12160539Y-11944579D01*
X12160539Y-11944579D02*
X12170063Y-11925531D01*
X12170063Y-11925531D02*
X12179586Y-11916008D01*
X12179586Y-11916008D02*
X12198634Y-11906484D01*
X12351015Y-12087436D02*
X12360539Y-12096960D01*
X12360539Y-12096960D02*
X12351015Y-12106484D01*
X12351015Y-12106484D02*
X12341491Y-12096960D01*
X12341491Y-12096960D02*
X12351015Y-12087436D01*
X12351015Y-12087436D02*
X12351015Y-12106484D01*
X12551015Y-12106484D02*
X12436729Y-12106484D01*
X12493872Y-12106484D02*
X12493872Y-11906484D01*
X12493872Y-11906484D02*
X12474825Y-11935055D01*
X12474825Y-11935055D02*
X12455777Y-11954103D01*
X12455777Y-11954103D02*
X12436729Y-11963627D01*
X12617682Y-11906484D02*
X12741491Y-11906484D01*
X12741491Y-11906484D02*
X12674825Y-11982674D01*
X12674825Y-11982674D02*
X12703396Y-11982674D01*
X12703396Y-11982674D02*
X12722444Y-11992198D01*
X12722444Y-11992198D02*
X12731967Y-12001722D01*
X12731967Y-12001722D02*
X12741491Y-12020769D01*
X12741491Y-12020769D02*
X12741491Y-12068388D01*
X12741491Y-12068388D02*
X12731967Y-12087436D01*
X12731967Y-12087436D02*
X12722444Y-12096960D01*
X12722444Y-12096960D02*
X12703396Y-12106484D01*
X12703396Y-12106484D02*
X12646253Y-12106484D01*
X12646253Y-12106484D02*
X12627206Y-12096960D01*
X12627206Y-12096960D02*
X12617682Y-12087436D01*
X12808158Y-11906484D02*
X12941491Y-11906484D01*
X12941491Y-11906484D02*
X12855777Y-12106484D01*
X13046253Y-11992198D02*
X13027206Y-11982674D01*
X13027206Y-11982674D02*
X13017682Y-11973150D01*
X13017682Y-11973150D02*
X13008158Y-11954103D01*
X13008158Y-11954103D02*
X13008158Y-11944579D01*
X13008158Y-11944579D02*
X13017682Y-11925531D01*
X13017682Y-11925531D02*
X13027206Y-11916008D01*
X13027206Y-11916008D02*
X13046253Y-11906484D01*
X13046253Y-11906484D02*
X13084348Y-11906484D01*
X13084348Y-11906484D02*
X13103396Y-11916008D01*
X13103396Y-11916008D02*
X13112920Y-11925531D01*
X13112920Y-11925531D02*
X13122444Y-11944579D01*
X13122444Y-11944579D02*
X13122444Y-11954103D01*
X13122444Y-11954103D02*
X13112920Y-11973150D01*
X13112920Y-11973150D02*
X13103396Y-11982674D01*
X13103396Y-11982674D02*
X13084348Y-11992198D01*
X13084348Y-11992198D02*
X13046253Y-11992198D01*
X13046253Y-11992198D02*
X13027206Y-12001722D01*
X13027206Y-12001722D02*
X13017682Y-12011246D01*
X13017682Y-12011246D02*
X13008158Y-12030293D01*
X13008158Y-12030293D02*
X13008158Y-12068388D01*
X13008158Y-12068388D02*
X13017682Y-12087436D01*
X13017682Y-12087436D02*
X13027206Y-12096960D01*
X13027206Y-12096960D02*
X13046253Y-12106484D01*
X13046253Y-12106484D02*
X13084348Y-12106484D01*
X13084348Y-12106484D02*
X13103396Y-12096960D01*
X13103396Y-12096960D02*
X13112920Y-12087436D01*
X13112920Y-12087436D02*
X13122444Y-12068388D01*
X13122444Y-12068388D02*
X13122444Y-12030293D01*
X13122444Y-12030293D02*
X13112920Y-12011246D01*
X13112920Y-12011246D02*
X13103396Y-12001722D01*
X13103396Y-12001722D02*
X13084348Y-11992198D01*
X13198634Y-11906484D02*
X13198634Y-11944579D01*
X13274825Y-11906484D02*
X13274825Y-11944579D01*
X13570063Y-12182674D02*
X13560539Y-12173150D01*
X13560539Y-12173150D02*
X13541491Y-12144579D01*
X13541491Y-12144579D02*
X13531968Y-12125531D01*
X13531968Y-12125531D02*
X13522444Y-12096960D01*
X13522444Y-12096960D02*
X13512920Y-12049341D01*
X13512920Y-12049341D02*
X13512920Y-12011246D01*
X13512920Y-12011246D02*
X13522444Y-11963627D01*
X13522444Y-11963627D02*
X13531968Y-11935055D01*
X13531968Y-11935055D02*
X13541491Y-11916008D01*
X13541491Y-11916008D02*
X13560539Y-11887436D01*
X13560539Y-11887436D02*
X13570063Y-11877912D01*
X13731968Y-11973150D02*
X13731968Y-12106484D01*
X13684348Y-11896960D02*
X13636729Y-12039817D01*
X13636729Y-12039817D02*
X13760539Y-12039817D01*
X13989110Y-12106484D02*
X13989110Y-11906484D01*
X14074825Y-12106484D02*
X14074825Y-12001722D01*
X14074825Y-12001722D02*
X14065301Y-11982674D01*
X14065301Y-11982674D02*
X14046253Y-11973150D01*
X14046253Y-11973150D02*
X14017682Y-11973150D01*
X14017682Y-11973150D02*
X13998634Y-11982674D01*
X13998634Y-11982674D02*
X13989110Y-11992198D01*
X14198634Y-12106484D02*
X14179587Y-12096960D01*
X14179587Y-12096960D02*
X14170063Y-12087436D01*
X14170063Y-12087436D02*
X14160539Y-12068388D01*
X14160539Y-12068388D02*
X14160539Y-12011246D01*
X14160539Y-12011246D02*
X14170063Y-11992198D01*
X14170063Y-11992198D02*
X14179587Y-11982674D01*
X14179587Y-11982674D02*
X14198634Y-11973150D01*
X14198634Y-11973150D02*
X14227206Y-11973150D01*
X14227206Y-11973150D02*
X14246253Y-11982674D01*
X14246253Y-11982674D02*
X14255777Y-11992198D01*
X14255777Y-11992198D02*
X14265301Y-12011246D01*
X14265301Y-12011246D02*
X14265301Y-12068388D01*
X14265301Y-12068388D02*
X14255777Y-12087436D01*
X14255777Y-12087436D02*
X14246253Y-12096960D01*
X14246253Y-12096960D02*
X14227206Y-12106484D01*
X14227206Y-12106484D02*
X14198634Y-12106484D01*
X14379587Y-12106484D02*
X14360539Y-12096960D01*
X14360539Y-12096960D02*
X14351015Y-12077912D01*
X14351015Y-12077912D02*
X14351015Y-11906484D01*
X14531968Y-12096960D02*
X14512920Y-12106484D01*
X14512920Y-12106484D02*
X14474825Y-12106484D01*
X14474825Y-12106484D02*
X14455777Y-12096960D01*
X14455777Y-12096960D02*
X14446253Y-12077912D01*
X14446253Y-12077912D02*
X14446253Y-12001722D01*
X14446253Y-12001722D02*
X14455777Y-11982674D01*
X14455777Y-11982674D02*
X14474825Y-11973150D01*
X14474825Y-11973150D02*
X14512920Y-11973150D01*
X14512920Y-11973150D02*
X14531968Y-11982674D01*
X14531968Y-11982674D02*
X14541491Y-12001722D01*
X14541491Y-12001722D02*
X14541491Y-12020769D01*
X14541491Y-12020769D02*
X14446253Y-12039817D01*
X14617682Y-12096960D02*
X14636730Y-12106484D01*
X14636730Y-12106484D02*
X14674825Y-12106484D01*
X14674825Y-12106484D02*
X14693872Y-12096960D01*
X14693872Y-12096960D02*
X14703396Y-12077912D01*
X14703396Y-12077912D02*
X14703396Y-12068388D01*
X14703396Y-12068388D02*
X14693872Y-12049341D01*
X14693872Y-12049341D02*
X14674825Y-12039817D01*
X14674825Y-12039817D02*
X14646253Y-12039817D01*
X14646253Y-12039817D02*
X14627206Y-12030293D01*
X14627206Y-12030293D02*
X14617682Y-12011246D01*
X14617682Y-12011246D02*
X14617682Y-12001722D01*
X14617682Y-12001722D02*
X14627206Y-11982674D01*
X14627206Y-11982674D02*
X14646253Y-11973150D01*
X14646253Y-11973150D02*
X14674825Y-11973150D01*
X14674825Y-11973150D02*
X14693872Y-11982674D01*
X14770063Y-12182674D02*
X14779587Y-12173150D01*
X14779587Y-12173150D02*
X14798634Y-12144579D01*
X14798634Y-12144579D02*
X14808158Y-12125531D01*
X14808158Y-12125531D02*
X14817682Y-12096960D01*
X14817682Y-12096960D02*
X14827206Y-12049341D01*
X14827206Y-12049341D02*
X14827206Y-12011246D01*
X14827206Y-12011246D02*
X14817682Y-11963627D01*
X14817682Y-11963627D02*
X14808158Y-11935055D01*
X14808158Y-11935055D02*
X14798634Y-11916008D01*
X14798634Y-11916008D02*
X14779587Y-11887436D01*
X14779587Y-11887436D02*
X14770063Y-11877912D01*
X15131968Y-12182674D02*
X15122444Y-12173150D01*
X15122444Y-12173150D02*
X15103396Y-12144579D01*
X15103396Y-12144579D02*
X15093872Y-12125531D01*
X15093872Y-12125531D02*
X15084349Y-12096960D01*
X15084349Y-12096960D02*
X15074825Y-12049341D01*
X15074825Y-12049341D02*
X15074825Y-12011246D01*
X15074825Y-12011246D02*
X15084349Y-11963627D01*
X15084349Y-11963627D02*
X15093872Y-11935055D01*
X15093872Y-11935055D02*
X15103396Y-11916008D01*
X15103396Y-11916008D02*
X15122444Y-11887436D01*
X15122444Y-11887436D02*
X15131968Y-11877912D01*
X15208158Y-11973150D02*
X15208158Y-12106484D01*
X15208158Y-11992198D02*
X15217682Y-11982674D01*
X15217682Y-11982674D02*
X15236730Y-11973150D01*
X15236730Y-11973150D02*
X15265301Y-11973150D01*
X15265301Y-11973150D02*
X15284349Y-11982674D01*
X15284349Y-11982674D02*
X15293872Y-12001722D01*
X15293872Y-12001722D02*
X15293872Y-12106484D01*
X15417682Y-12106484D02*
X15398634Y-12096960D01*
X15398634Y-12096960D02*
X15389111Y-12087436D01*
X15389111Y-12087436D02*
X15379587Y-12068388D01*
X15379587Y-12068388D02*
X15379587Y-12011246D01*
X15379587Y-12011246D02*
X15389111Y-11992198D01*
X15389111Y-11992198D02*
X15398634Y-11982674D01*
X15398634Y-11982674D02*
X15417682Y-11973150D01*
X15417682Y-11973150D02*
X15446253Y-11973150D01*
X15446253Y-11973150D02*
X15465301Y-11982674D01*
X15465301Y-11982674D02*
X15474825Y-11992198D01*
X15474825Y-11992198D02*
X15484349Y-12011246D01*
X15484349Y-12011246D02*
X15484349Y-12068388D01*
X15484349Y-12068388D02*
X15474825Y-12087436D01*
X15474825Y-12087436D02*
X15465301Y-12096960D01*
X15465301Y-12096960D02*
X15446253Y-12106484D01*
X15446253Y-12106484D02*
X15417682Y-12106484D01*
X15541492Y-11973150D02*
X15617682Y-11973150D01*
X15570063Y-11906484D02*
X15570063Y-12077912D01*
X15570063Y-12077912D02*
X15579587Y-12096960D01*
X15579587Y-12096960D02*
X15598634Y-12106484D01*
X15598634Y-12106484D02*
X15617682Y-12106484D01*
X15836730Y-11973150D02*
X15836730Y-12173150D01*
X15836730Y-11982674D02*
X15855777Y-11973150D01*
X15855777Y-11973150D02*
X15893873Y-11973150D01*
X15893873Y-11973150D02*
X15912920Y-11982674D01*
X15912920Y-11982674D02*
X15922444Y-11992198D01*
X15922444Y-11992198D02*
X15931968Y-12011246D01*
X15931968Y-12011246D02*
X15931968Y-12068388D01*
X15931968Y-12068388D02*
X15922444Y-12087436D01*
X15922444Y-12087436D02*
X15912920Y-12096960D01*
X15912920Y-12096960D02*
X15893873Y-12106484D01*
X15893873Y-12106484D02*
X15855777Y-12106484D01*
X15855777Y-12106484D02*
X15836730Y-12096960D01*
X16046253Y-12106484D02*
X16027206Y-12096960D01*
X16027206Y-12096960D02*
X16017682Y-12077912D01*
X16017682Y-12077912D02*
X16017682Y-11906484D01*
X16208158Y-12106484D02*
X16208158Y-12001722D01*
X16208158Y-12001722D02*
X16198634Y-11982674D01*
X16198634Y-11982674D02*
X16179587Y-11973150D01*
X16179587Y-11973150D02*
X16141492Y-11973150D01*
X16141492Y-11973150D02*
X16122444Y-11982674D01*
X16208158Y-12096960D02*
X16189111Y-12106484D01*
X16189111Y-12106484D02*
X16141492Y-12106484D01*
X16141492Y-12106484D02*
X16122444Y-12096960D01*
X16122444Y-12096960D02*
X16112920Y-12077912D01*
X16112920Y-12077912D02*
X16112920Y-12058865D01*
X16112920Y-12058865D02*
X16122444Y-12039817D01*
X16122444Y-12039817D02*
X16141492Y-12030293D01*
X16141492Y-12030293D02*
X16189111Y-12030293D01*
X16189111Y-12030293D02*
X16208158Y-12020769D01*
X16274825Y-11973150D02*
X16351015Y-11973150D01*
X16303396Y-11906484D02*
X16303396Y-12077912D01*
X16303396Y-12077912D02*
X16312920Y-12096960D01*
X16312920Y-12096960D02*
X16331968Y-12106484D01*
X16331968Y-12106484D02*
X16351015Y-12106484D01*
X16493873Y-12096960D02*
X16474825Y-12106484D01*
X16474825Y-12106484D02*
X16436730Y-12106484D01*
X16436730Y-12106484D02*
X16417682Y-12096960D01*
X16417682Y-12096960D02*
X16408158Y-12077912D01*
X16408158Y-12077912D02*
X16408158Y-12001722D01*
X16408158Y-12001722D02*
X16417682Y-11982674D01*
X16417682Y-11982674D02*
X16436730Y-11973150D01*
X16436730Y-11973150D02*
X16474825Y-11973150D01*
X16474825Y-11973150D02*
X16493873Y-11982674D01*
X16493873Y-11982674D02*
X16503396Y-12001722D01*
X16503396Y-12001722D02*
X16503396Y-12020769D01*
X16503396Y-12020769D02*
X16408158Y-12039817D01*
X16674825Y-12106484D02*
X16674825Y-11906484D01*
X16674825Y-12096960D02*
X16655777Y-12106484D01*
X16655777Y-12106484D02*
X16617682Y-12106484D01*
X16617682Y-12106484D02*
X16598634Y-12096960D01*
X16598634Y-12096960D02*
X16589111Y-12087436D01*
X16589111Y-12087436D02*
X16579587Y-12068388D01*
X16579587Y-12068388D02*
X16579587Y-12011246D01*
X16579587Y-12011246D02*
X16589111Y-11992198D01*
X16589111Y-11992198D02*
X16598634Y-11982674D01*
X16598634Y-11982674D02*
X16617682Y-11973150D01*
X16617682Y-11973150D02*
X16655777Y-11973150D01*
X16655777Y-11973150D02*
X16674825Y-11982674D01*
X16751015Y-12182674D02*
X16760539Y-12173150D01*
X16760539Y-12173150D02*
X16779587Y-12144579D01*
X16779587Y-12144579D02*
X16789111Y-12125531D01*
X16789111Y-12125531D02*
X16798635Y-12096960D01*
X16798635Y-12096960D02*
X16808158Y-12049341D01*
X16808158Y-12049341D02*
X16808158Y-12011246D01*
X16808158Y-12011246D02*
X16798635Y-11963627D01*
X16798635Y-11963627D02*
X16789111Y-11935055D01*
X16789111Y-11935055D02*
X16779587Y-11916008D01*
X16779587Y-11916008D02*
X16760539Y-11887436D01*
X16760539Y-11887436D02*
X16751015Y-11877912D01*
M02*
