G04 #@! TF.GenerationSoftware,KiCad,Pcbnew,7.0.8-7.0.8~ubuntu22.04.1*
G04 #@! TF.CreationDate,2023-12-12T02:33:25+01:00*
G04 #@! TF.ProjectId,kicad,6b696361-642e-46b6-9963-61645f706362,rev?*
G04 #@! TF.SameCoordinates,Original*
G04 #@! TF.FileFunction,Soldermask,Bot*
G04 #@! TF.FilePolarity,Negative*
%FSLAX46Y46*%
G04 Gerber Fmt 4.6, Leading zero omitted, Abs format (unit mm)*
G04 Created by KiCad (PCBNEW 7.0.8-7.0.8~ubuntu22.04.1) date 2023-12-12 02:33:25*
%MOMM*%
%LPD*%
G01*
G04 APERTURE LIST*
G04 Aperture macros list*
%AMRoundRect*
0 Rectangle with rounded corners*
0 $1 Rounding radius*
0 $2 $3 $4 $5 $6 $7 $8 $9 X,Y pos of 4 corners*
0 Add a 4 corners polygon primitive as box body*
4,1,4,$2,$3,$4,$5,$6,$7,$8,$9,$2,$3,0*
0 Add four circle primitives for the rounded corners*
1,1,$1+$1,$2,$3*
1,1,$1+$1,$4,$5*
1,1,$1+$1,$6,$7*
1,1,$1+$1,$8,$9*
0 Add four rect primitives between the rounded corners*
20,1,$1+$1,$2,$3,$4,$5,0*
20,1,$1+$1,$4,$5,$6,$7,0*
20,1,$1+$1,$6,$7,$8,$9,0*
20,1,$1+$1,$8,$9,$2,$3,0*%
G04 Aperture macros list end*
%ADD10R,1.800000X1.800000*%
%ADD11C,1.800000*%
%ADD12O,1.800000X1.800000*%
%ADD13O,1.500000X1.500000*%
%ADD14O,1.700000X1.700000*%
%ADD15R,1.700000X1.700000*%
%ADD16R,1.050000X1.500000*%
%ADD17O,1.050000X1.500000*%
%ADD18R,2.200000X2.200000*%
%ADD19O,2.200000X2.200000*%
%ADD20C,3.500000*%
%ADD21C,1.473200*%
%ADD22RoundRect,0.102000X-0.749000X-0.749000X0.749000X-0.749000X0.749000X0.749000X-0.749000X0.749000X0*%
%ADD23C,1.702000*%
%ADD24C,1.600000*%
%ADD25O,1.600000X1.600000*%
G04 APERTURE END LIST*
D10*
X137160000Y-45720000D03*
D11*
X139700000Y-45720000D03*
D12*
X118275000Y-45000000D03*
D13*
X118575000Y-48030000D03*
X123425000Y-48030000D03*
D12*
X123725000Y-45000000D03*
D14*
X112110000Y-44870000D03*
X112110000Y-47410000D03*
D15*
X112110000Y-49950000D03*
D14*
X112110000Y-52490000D03*
X112110000Y-55030000D03*
X112110000Y-57570000D03*
X112110000Y-60110000D03*
D15*
X112110000Y-62650000D03*
D14*
X112110000Y-65190000D03*
X112110000Y-67730000D03*
X112110000Y-70270000D03*
X112110000Y-72810000D03*
D15*
X112110000Y-75350000D03*
D14*
X112110000Y-77890000D03*
X112110000Y-80430000D03*
X112110000Y-82970000D03*
X112110000Y-85510000D03*
D15*
X112110000Y-88050000D03*
D14*
X112110000Y-90590000D03*
X112110000Y-93130000D03*
X129890000Y-93130000D03*
X129890000Y-90590000D03*
D15*
X129890000Y-88050000D03*
D14*
X129890000Y-85510000D03*
X129890000Y-82970000D03*
X129890000Y-80430000D03*
X129890000Y-77890000D03*
D15*
X129890000Y-75350000D03*
D14*
X129890000Y-72810000D03*
X129890000Y-70270000D03*
X129890000Y-67730000D03*
X129890000Y-65190000D03*
D15*
X129890000Y-62650000D03*
D14*
X129890000Y-60110000D03*
X129890000Y-57570000D03*
X129890000Y-55030000D03*
X129890000Y-52490000D03*
D15*
X129890000Y-49950000D03*
D14*
X129890000Y-47410000D03*
X129890000Y-44870000D03*
X118460000Y-92900000D03*
D15*
X121000000Y-92900000D03*
D14*
X123540000Y-92900000D03*
D16*
X160020000Y-60960000D03*
D17*
X161290000Y-60960000D03*
X162560000Y-60960000D03*
D10*
X142240000Y-45720000D03*
D11*
X144780000Y-45720000D03*
D18*
X139700000Y-71120000D03*
D19*
X149860000Y-71120000D03*
D20*
X170000000Y-48000000D03*
D21*
X160020000Y-47540000D03*
X157480000Y-45000000D03*
X157480000Y-50080000D03*
X162560000Y-50080000D03*
X162560000Y-45000000D03*
D10*
X147320000Y-45720000D03*
D11*
X149860000Y-45720000D03*
D22*
X138750000Y-92750000D03*
D23*
X138750000Y-97250000D03*
X145250000Y-92750000D03*
X145250000Y-97250000D03*
D16*
X146000000Y-58000000D03*
D17*
X147270000Y-58000000D03*
X148540000Y-58000000D03*
D20*
X170000000Y-103000000D03*
D24*
X154000000Y-54000000D03*
D25*
X166700000Y-54000000D03*
D20*
X105000000Y-48000000D03*
X105000000Y-103000000D03*
M02*
