G04 #@! TF.GenerationSoftware,KiCad,Pcbnew,7.0.8-7.0.8~ubuntu22.04.1*
G04 #@! TF.CreationDate,2023-12-12T02:33:24+01:00*
G04 #@! TF.ProjectId,kicad,6b696361-642e-46b6-9963-61645f706362,rev?*
G04 #@! TF.SameCoordinates,Original*
G04 #@! TF.FileFunction,Copper,L2,Bot*
G04 #@! TF.FilePolarity,Positive*
%FSLAX46Y46*%
G04 Gerber Fmt 4.6, Leading zero omitted, Abs format (unit mm)*
G04 Created by KiCad (PCBNEW 7.0.8-7.0.8~ubuntu22.04.1) date 2023-12-12 02:33:24*
%MOMM*%
%LPD*%
G01*
G04 APERTURE LIST*
G04 #@! TA.AperFunction,ComponentPad*
%ADD10R,1.800000X1.800000*%
G04 #@! TD*
G04 #@! TA.AperFunction,ComponentPad*
%ADD11C,1.800000*%
G04 #@! TD*
G04 #@! TA.AperFunction,ComponentPad*
%ADD12O,1.700000X1.700000*%
G04 #@! TD*
G04 #@! TA.AperFunction,ComponentPad*
%ADD13R,1.700000X1.700000*%
G04 #@! TD*
G04 #@! TA.AperFunction,ComponentPad*
%ADD14R,1.050000X1.500000*%
G04 #@! TD*
G04 #@! TA.AperFunction,ComponentPad*
%ADD15O,1.050000X1.500000*%
G04 #@! TD*
G04 #@! TA.AperFunction,ComponentPad*
%ADD16R,2.200000X2.200000*%
G04 #@! TD*
G04 #@! TA.AperFunction,ComponentPad*
%ADD17O,2.200000X2.200000*%
G04 #@! TD*
G04 #@! TA.AperFunction,ComponentPad*
%ADD18C,1.473200*%
G04 #@! TD*
G04 #@! TA.AperFunction,ComponentPad*
%ADD19R,1.498000X1.498000*%
G04 #@! TD*
G04 #@! TA.AperFunction,ComponentPad*
%ADD20C,1.498000*%
G04 #@! TD*
G04 #@! TA.AperFunction,ComponentPad*
%ADD21C,1.600000*%
G04 #@! TD*
G04 #@! TA.AperFunction,ComponentPad*
%ADD22O,1.600000X1.600000*%
G04 #@! TD*
G04 #@! TA.AperFunction,ViaPad*
%ADD23C,0.800000*%
G04 #@! TD*
G04 #@! TA.AperFunction,Conductor*
%ADD24C,0.400000*%
G04 #@! TD*
G04 APERTURE END LIST*
D10*
X137160000Y-45720000D03*
D11*
X139700000Y-45720000D03*
D12*
X112110000Y-44870000D03*
X112110000Y-47410000D03*
D13*
X112110000Y-49950000D03*
D12*
X112110000Y-52490000D03*
X112110000Y-55030000D03*
X112110000Y-57570000D03*
X112110000Y-60110000D03*
D13*
X112110000Y-62650000D03*
D12*
X112110000Y-65190000D03*
X112110000Y-67730000D03*
X112110000Y-70270000D03*
X112110000Y-72810000D03*
D13*
X112110000Y-75350000D03*
D12*
X112110000Y-77890000D03*
X112110000Y-80430000D03*
X112110000Y-82970000D03*
X112110000Y-85510000D03*
D13*
X112110000Y-88050000D03*
D12*
X112110000Y-90590000D03*
X112110000Y-93130000D03*
X129890000Y-93130000D03*
X129890000Y-90590000D03*
D13*
X129890000Y-88050000D03*
D12*
X129890000Y-85510000D03*
X129890000Y-82970000D03*
X129890000Y-80430000D03*
X129890000Y-77890000D03*
D13*
X129890000Y-75350000D03*
D12*
X129890000Y-72810000D03*
X129890000Y-70270000D03*
X129890000Y-67730000D03*
X129890000Y-65190000D03*
D13*
X129890000Y-62650000D03*
D12*
X129890000Y-60110000D03*
X129890000Y-57570000D03*
X129890000Y-55030000D03*
X129890000Y-52490000D03*
D13*
X129890000Y-49950000D03*
D12*
X129890000Y-47410000D03*
X129890000Y-44870000D03*
X118460000Y-92900000D03*
D13*
X121000000Y-92900000D03*
D12*
X123540000Y-92900000D03*
D14*
X160020000Y-60960000D03*
D15*
X161290000Y-60960000D03*
X162560000Y-60960000D03*
D10*
X142240000Y-45720000D03*
D11*
X144780000Y-45720000D03*
D16*
X139700000Y-71120000D03*
D17*
X149860000Y-71120000D03*
D18*
X160020000Y-47540000D03*
X157480000Y-45000000D03*
X157480000Y-50080000D03*
X162560000Y-50080000D03*
X162560000Y-45000000D03*
D10*
X147320000Y-45720000D03*
D11*
X149860000Y-45720000D03*
D19*
X138750000Y-92750000D03*
D20*
X138750000Y-97250000D03*
X145250000Y-92750000D03*
X145250000Y-97250000D03*
D14*
X146000000Y-58000000D03*
D15*
X147270000Y-58000000D03*
X148540000Y-58000000D03*
D21*
X154000000Y-54000000D03*
D22*
X166700000Y-54000000D03*
D23*
X160020000Y-73660000D03*
X170180000Y-78740000D03*
X160020000Y-66040000D03*
X147320000Y-76200000D03*
X160020000Y-86360000D03*
X152400000Y-86360000D03*
X170180000Y-73660000D03*
X165100000Y-81280000D03*
X160020000Y-78740000D03*
X154940000Y-68580000D03*
X170180000Y-68580000D03*
X167640000Y-60960000D03*
X151000000Y-61000000D03*
D24*
X165100000Y-78740000D02*
X170180000Y-78740000D01*
X160020000Y-73660000D02*
X165100000Y-78740000D01*
X160020000Y-53340000D02*
X160020000Y-47540000D01*
X147320000Y-63500000D02*
X144780000Y-63500000D01*
X142240000Y-66040000D02*
X142240000Y-68580000D01*
X142240000Y-68580000D02*
X139700000Y-71120000D01*
X160020000Y-66040000D02*
X157480000Y-63500000D01*
X156000000Y-62020000D02*
X156000000Y-57360000D01*
X144780000Y-63500000D02*
X142240000Y-66040000D01*
X157480000Y-63500000D02*
X147320000Y-63500000D01*
X157480000Y-63500000D02*
X156000000Y-62020000D01*
X156000000Y-57360000D02*
X160020000Y-53340000D01*
X152400000Y-86360000D02*
X152400000Y-78740000D01*
X152400000Y-78740000D02*
X149860000Y-78740000D01*
X149860000Y-78740000D02*
X147320000Y-76200000D01*
X160020000Y-86360000D02*
X152400000Y-86360000D01*
X172720000Y-76200000D02*
X170180000Y-73660000D01*
X170180000Y-81280000D02*
X170980000Y-80480000D01*
X170980000Y-80480000D02*
X172720000Y-78740000D01*
X172720000Y-78740000D02*
X172720000Y-76200000D01*
X165100000Y-81280000D02*
X170180000Y-81280000D01*
X139700000Y-45720000D02*
X139000000Y-46420000D01*
X134000000Y-56000000D02*
X134000000Y-79000000D01*
X134000000Y-79000000D02*
X132570000Y-80430000D01*
X139000000Y-51000000D02*
X134000000Y-56000000D01*
X132570000Y-80430000D02*
X129890000Y-80430000D01*
X139000000Y-46420000D02*
X139000000Y-51000000D01*
X154940000Y-73660000D02*
X154940000Y-68580000D01*
X170180000Y-68580000D02*
X154940000Y-68580000D01*
X160020000Y-78740000D02*
X154940000Y-73660000D01*
X136000000Y-60000000D02*
X136000000Y-81000000D01*
X133970000Y-82970000D02*
X129890000Y-82970000D01*
X144780000Y-45720000D02*
X144000000Y-46500000D01*
X144000000Y-46500000D02*
X144000000Y-52000000D01*
X134000000Y-83000000D02*
X133970000Y-82970000D01*
X136000000Y-81000000D02*
X134000000Y-83000000D01*
X144000000Y-52000000D02*
X136000000Y-60000000D01*
X133490000Y-85510000D02*
X137000000Y-82000000D01*
X149000000Y-46580000D02*
X149860000Y-45720000D01*
X149000000Y-49000000D02*
X149000000Y-46580000D01*
X129890000Y-85510000D02*
X133490000Y-85510000D01*
X137000000Y-61000000D02*
X149000000Y-49000000D01*
X137000000Y-82000000D02*
X137000000Y-61000000D01*
X165100000Y-66040000D02*
X162560000Y-66040000D01*
X151000000Y-61000000D02*
X148250000Y-61000000D01*
X167640000Y-63500000D02*
X167640000Y-60960000D01*
X162560000Y-66040000D02*
X160020000Y-63500000D01*
X165100000Y-66040000D02*
X167640000Y-63500000D01*
X160020000Y-63500000D02*
X160020000Y-60960000D01*
X146000000Y-58750000D02*
X146000000Y-58000000D01*
X148250000Y-61000000D02*
X146000000Y-58750000D01*
G04 #@! TA.AperFunction,Conductor*
G36*
X174942539Y-43020185D02*
G01*
X174988294Y-43072989D01*
X174999500Y-43124500D01*
X174999500Y-107875500D01*
X174979815Y-107942539D01*
X174927011Y-107988294D01*
X174875500Y-107999500D01*
X100124500Y-107999500D01*
X100057461Y-107979815D01*
X100011706Y-107927011D01*
X100000500Y-107875500D01*
X100000500Y-103000001D01*
X102994390Y-103000001D01*
X103014804Y-103285433D01*
X103075628Y-103565037D01*
X103175635Y-103833166D01*
X103312770Y-104084309D01*
X103312775Y-104084317D01*
X103484254Y-104313387D01*
X103484270Y-104313405D01*
X103686594Y-104515729D01*
X103686612Y-104515745D01*
X103915682Y-104687224D01*
X103915690Y-104687229D01*
X104166833Y-104824364D01*
X104166832Y-104824364D01*
X104166836Y-104824365D01*
X104166839Y-104824367D01*
X104434954Y-104924369D01*
X104434960Y-104924370D01*
X104434962Y-104924371D01*
X104714566Y-104985195D01*
X104714568Y-104985195D01*
X104714572Y-104985196D01*
X104928552Y-105000500D01*
X105071448Y-105000500D01*
X105285428Y-104985196D01*
X105565046Y-104924369D01*
X105833161Y-104824367D01*
X106084315Y-104687226D01*
X106313395Y-104515739D01*
X106515739Y-104313395D01*
X106687226Y-104084315D01*
X106824367Y-103833161D01*
X106924369Y-103565046D01*
X106985196Y-103285428D01*
X107005610Y-103000001D01*
X167994390Y-103000001D01*
X168014804Y-103285433D01*
X168075628Y-103565037D01*
X168175635Y-103833166D01*
X168312770Y-104084309D01*
X168312775Y-104084317D01*
X168484254Y-104313387D01*
X168484270Y-104313405D01*
X168686594Y-104515729D01*
X168686612Y-104515745D01*
X168915682Y-104687224D01*
X168915690Y-104687229D01*
X169166833Y-104824364D01*
X169166832Y-104824364D01*
X169166836Y-104824365D01*
X169166839Y-104824367D01*
X169434954Y-104924369D01*
X169434960Y-104924370D01*
X169434962Y-104924371D01*
X169714566Y-104985195D01*
X169714568Y-104985195D01*
X169714572Y-104985196D01*
X169928552Y-105000500D01*
X170071448Y-105000500D01*
X170285428Y-104985196D01*
X170565046Y-104924369D01*
X170833161Y-104824367D01*
X171084315Y-104687226D01*
X171313395Y-104515739D01*
X171515739Y-104313395D01*
X171687226Y-104084315D01*
X171824367Y-103833161D01*
X171924369Y-103565046D01*
X171985196Y-103285428D01*
X172005610Y-103000000D01*
X171985196Y-102714572D01*
X171924369Y-102434954D01*
X171824367Y-102166839D01*
X171687226Y-101915685D01*
X171687224Y-101915682D01*
X171515745Y-101686612D01*
X171515729Y-101686594D01*
X171313405Y-101484270D01*
X171313387Y-101484254D01*
X171084317Y-101312775D01*
X171084309Y-101312770D01*
X170833166Y-101175635D01*
X170833167Y-101175635D01*
X170725915Y-101135632D01*
X170565046Y-101075631D01*
X170565043Y-101075630D01*
X170565037Y-101075628D01*
X170285433Y-101014804D01*
X170071448Y-100999500D01*
X169928552Y-100999500D01*
X169714566Y-101014804D01*
X169434962Y-101075628D01*
X169166833Y-101175635D01*
X168915690Y-101312770D01*
X168915682Y-101312775D01*
X168686612Y-101484254D01*
X168686594Y-101484270D01*
X168484270Y-101686594D01*
X168484254Y-101686612D01*
X168312775Y-101915682D01*
X168312770Y-101915690D01*
X168175635Y-102166833D01*
X168075628Y-102434962D01*
X168014804Y-102714566D01*
X167994390Y-102999998D01*
X167994390Y-103000001D01*
X107005610Y-103000001D01*
X107005610Y-103000000D01*
X106985196Y-102714572D01*
X106924369Y-102434954D01*
X106824367Y-102166839D01*
X106687226Y-101915685D01*
X106687224Y-101915682D01*
X106515745Y-101686612D01*
X106515729Y-101686594D01*
X106313405Y-101484270D01*
X106313387Y-101484254D01*
X106084317Y-101312775D01*
X106084309Y-101312770D01*
X105833166Y-101175635D01*
X105833167Y-101175635D01*
X105725915Y-101135632D01*
X105565046Y-101075631D01*
X105565043Y-101075630D01*
X105565037Y-101075628D01*
X105285433Y-101014804D01*
X105071448Y-100999500D01*
X104928552Y-100999500D01*
X104714566Y-101014804D01*
X104434962Y-101075628D01*
X104166833Y-101175635D01*
X103915690Y-101312770D01*
X103915682Y-101312775D01*
X103686612Y-101484254D01*
X103686594Y-101484270D01*
X103484270Y-101686594D01*
X103484254Y-101686612D01*
X103312775Y-101915682D01*
X103312770Y-101915690D01*
X103175635Y-102166833D01*
X103075628Y-102434962D01*
X103014804Y-102714566D01*
X102994390Y-102999998D01*
X102994390Y-103000001D01*
X100000500Y-103000001D01*
X100000500Y-97250000D01*
X137496229Y-97250000D01*
X137515276Y-97467710D01*
X137515278Y-97467720D01*
X137571838Y-97678807D01*
X137571843Y-97678821D01*
X137664199Y-97876880D01*
X137664202Y-97876886D01*
X137707592Y-97938853D01*
X137707593Y-97938854D01*
X138270951Y-97375495D01*
X138295102Y-97457745D01*
X138372057Y-97577489D01*
X138479631Y-97670702D01*
X138609108Y-97729833D01*
X138621882Y-97731669D01*
X138061144Y-98292406D01*
X138123120Y-98335801D01*
X138321178Y-98428156D01*
X138321192Y-98428161D01*
X138532279Y-98484721D01*
X138532289Y-98484723D01*
X138749999Y-98503771D01*
X138750001Y-98503771D01*
X138967710Y-98484723D01*
X138967720Y-98484721D01*
X139178807Y-98428161D01*
X139178821Y-98428156D01*
X139376882Y-98335799D01*
X139376884Y-98335798D01*
X139438854Y-98292406D01*
X138878117Y-97731669D01*
X138890892Y-97729833D01*
X139020369Y-97670702D01*
X139127943Y-97577489D01*
X139204898Y-97457745D01*
X139229048Y-97375496D01*
X139792406Y-97938854D01*
X139835798Y-97876884D01*
X139835799Y-97876882D01*
X139928156Y-97678821D01*
X139928161Y-97678807D01*
X139984721Y-97467720D01*
X139984723Y-97467710D01*
X140003771Y-97250001D01*
X143995727Y-97250001D01*
X144014781Y-97467796D01*
X144014783Y-97467807D01*
X144071366Y-97678979D01*
X144071368Y-97678983D01*
X144071369Y-97678987D01*
X144163648Y-97876880D01*
X144163768Y-97877137D01*
X144163770Y-97877141D01*
X144289167Y-98056226D01*
X144289172Y-98056232D01*
X144443767Y-98210827D01*
X144443773Y-98210832D01*
X144622858Y-98336229D01*
X144622860Y-98336230D01*
X144622863Y-98336232D01*
X144821013Y-98428631D01*
X145032198Y-98485218D01*
X145187770Y-98498828D01*
X145249998Y-98504273D01*
X145250000Y-98504273D01*
X145250002Y-98504273D01*
X145304450Y-98499509D01*
X145467802Y-98485218D01*
X145678987Y-98428631D01*
X145877137Y-98336232D01*
X146056231Y-98210829D01*
X146210829Y-98056231D01*
X146336232Y-97877137D01*
X146428631Y-97678987D01*
X146485218Y-97467802D01*
X146504273Y-97250000D01*
X146485218Y-97032198D01*
X146428631Y-96821013D01*
X146336352Y-96623121D01*
X146336233Y-96622866D01*
X146210830Y-96443770D01*
X146210826Y-96443766D01*
X146056231Y-96289171D01*
X146056227Y-96289168D01*
X146056226Y-96289167D01*
X145877141Y-96163770D01*
X145877137Y-96163768D01*
X145877133Y-96163766D01*
X145678987Y-96071369D01*
X145678983Y-96071368D01*
X145678979Y-96071366D01*
X145467807Y-96014783D01*
X145467803Y-96014782D01*
X145467802Y-96014782D01*
X145467801Y-96014781D01*
X145467796Y-96014781D01*
X145250002Y-95995727D01*
X145249998Y-95995727D01*
X145032203Y-96014781D01*
X145032192Y-96014783D01*
X144821020Y-96071366D01*
X144821011Y-96071370D01*
X144622866Y-96163766D01*
X144443766Y-96289172D01*
X144289172Y-96443766D01*
X144163766Y-96622866D01*
X144071370Y-96821011D01*
X144071366Y-96821020D01*
X144014783Y-97032192D01*
X144014781Y-97032203D01*
X143995727Y-97249998D01*
X143995727Y-97250001D01*
X140003771Y-97250001D01*
X140003771Y-97250000D01*
X140003771Y-97249999D01*
X139984723Y-97032289D01*
X139984721Y-97032279D01*
X139928161Y-96821192D01*
X139928156Y-96821178D01*
X139835799Y-96623118D01*
X139835793Y-96623108D01*
X139792406Y-96561145D01*
X139229048Y-97124503D01*
X139204898Y-97042255D01*
X139127943Y-96922511D01*
X139020369Y-96829298D01*
X138890892Y-96770167D01*
X138878117Y-96768330D01*
X139438854Y-96207593D01*
X139438853Y-96207592D01*
X139376886Y-96164202D01*
X139376880Y-96164199D01*
X139178821Y-96071843D01*
X139178807Y-96071838D01*
X138967720Y-96015278D01*
X138967710Y-96015276D01*
X138750001Y-95996229D01*
X138749999Y-95996229D01*
X138532289Y-96015276D01*
X138532279Y-96015278D01*
X138321192Y-96071838D01*
X138321178Y-96071843D01*
X138123121Y-96164198D01*
X138061145Y-96207593D01*
X138621883Y-96768330D01*
X138609108Y-96770167D01*
X138479631Y-96829298D01*
X138372057Y-96922511D01*
X138295102Y-97042255D01*
X138270951Y-97124503D01*
X137707593Y-96561145D01*
X137664198Y-96623121D01*
X137571843Y-96821178D01*
X137571838Y-96821192D01*
X137515278Y-97032279D01*
X137515276Y-97032289D01*
X137496229Y-97249999D01*
X137496229Y-97250000D01*
X100000500Y-97250000D01*
X100000500Y-93130000D01*
X110754341Y-93130000D01*
X110774936Y-93365403D01*
X110774938Y-93365413D01*
X110836094Y-93593655D01*
X110836096Y-93593659D01*
X110836097Y-93593663D01*
X110931322Y-93797873D01*
X110935965Y-93807830D01*
X110935967Y-93807834D01*
X111020549Y-93928629D01*
X111071505Y-94001401D01*
X111238599Y-94168495D01*
X111274733Y-94193796D01*
X111432165Y-94304032D01*
X111432167Y-94304033D01*
X111432170Y-94304035D01*
X111646337Y-94403903D01*
X111874592Y-94465063D01*
X112062918Y-94481539D01*
X112109999Y-94485659D01*
X112110000Y-94485659D01*
X112110001Y-94485659D01*
X112149234Y-94482226D01*
X112345408Y-94465063D01*
X112573663Y-94403903D01*
X112787830Y-94304035D01*
X112981401Y-94168495D01*
X113148495Y-94001401D01*
X113284035Y-93807830D01*
X113383903Y-93593663D01*
X113445063Y-93365408D01*
X113465659Y-93130000D01*
X113445536Y-92900000D01*
X117104341Y-92900000D01*
X117124936Y-93135403D01*
X117124938Y-93135413D01*
X117186094Y-93363655D01*
X117186096Y-93363659D01*
X117186097Y-93363663D01*
X117271531Y-93546876D01*
X117285965Y-93577830D01*
X117285967Y-93577834D01*
X117379092Y-93710829D01*
X117421505Y-93771401D01*
X117588599Y-93938495D01*
X117666570Y-93993091D01*
X117782165Y-94074032D01*
X117782167Y-94074033D01*
X117782170Y-94074035D01*
X117996337Y-94173903D01*
X118224592Y-94235063D01*
X118401034Y-94250500D01*
X118459999Y-94255659D01*
X118460000Y-94255659D01*
X118460001Y-94255659D01*
X118518966Y-94250500D01*
X118695408Y-94235063D01*
X118923663Y-94173903D01*
X119137830Y-94074035D01*
X119331401Y-93938495D01*
X119453329Y-93816566D01*
X119514648Y-93783084D01*
X119584340Y-93788068D01*
X119640274Y-93829939D01*
X119657189Y-93860917D01*
X119706202Y-93992328D01*
X119706206Y-93992335D01*
X119792452Y-94107544D01*
X119792455Y-94107547D01*
X119907664Y-94193793D01*
X119907671Y-94193797D01*
X120042517Y-94244091D01*
X120042516Y-94244091D01*
X120049444Y-94244835D01*
X120102127Y-94250500D01*
X121897872Y-94250499D01*
X121957483Y-94244091D01*
X122092331Y-94193796D01*
X122207546Y-94107546D01*
X122293796Y-93992331D01*
X122342810Y-93860916D01*
X122384681Y-93804984D01*
X122450145Y-93780566D01*
X122518418Y-93795417D01*
X122546673Y-93816569D01*
X122668599Y-93938495D01*
X122746570Y-93993091D01*
X122862165Y-94074032D01*
X122862167Y-94074033D01*
X122862170Y-94074035D01*
X123076337Y-94173903D01*
X123304592Y-94235063D01*
X123481034Y-94250500D01*
X123539999Y-94255659D01*
X123540000Y-94255659D01*
X123540001Y-94255659D01*
X123598966Y-94250500D01*
X123775408Y-94235063D01*
X124003663Y-94173903D01*
X124217830Y-94074035D01*
X124411401Y-93938495D01*
X124578495Y-93771401D01*
X124714035Y-93577830D01*
X124813903Y-93363663D01*
X124875063Y-93135408D01*
X124875536Y-93130000D01*
X128534341Y-93130000D01*
X128554936Y-93365403D01*
X128554938Y-93365413D01*
X128616094Y-93593655D01*
X128616096Y-93593659D01*
X128616097Y-93593663D01*
X128711322Y-93797873D01*
X128715965Y-93807830D01*
X128715967Y-93807834D01*
X128800549Y-93928629D01*
X128851505Y-94001401D01*
X129018599Y-94168495D01*
X129054733Y-94193796D01*
X129212165Y-94304032D01*
X129212167Y-94304033D01*
X129212170Y-94304035D01*
X129426337Y-94403903D01*
X129654592Y-94465063D01*
X129842918Y-94481539D01*
X129889999Y-94485659D01*
X129890000Y-94485659D01*
X129890001Y-94485659D01*
X129929234Y-94482226D01*
X130125408Y-94465063D01*
X130353663Y-94403903D01*
X130567830Y-94304035D01*
X130761401Y-94168495D01*
X130928495Y-94001401D01*
X131064035Y-93807830D01*
X131163903Y-93593663D01*
X131176441Y-93546870D01*
X137500500Y-93546870D01*
X137500501Y-93546876D01*
X137506908Y-93606483D01*
X137557202Y-93741328D01*
X137557206Y-93741335D01*
X137643452Y-93856544D01*
X137643455Y-93856547D01*
X137758664Y-93942793D01*
X137758671Y-93942797D01*
X137893517Y-93993091D01*
X137893516Y-93993091D01*
X137900444Y-93993835D01*
X137953127Y-93999500D01*
X139546872Y-93999499D01*
X139606483Y-93993091D01*
X139741331Y-93942796D01*
X139856546Y-93856546D01*
X139942796Y-93741331D01*
X139993091Y-93606483D01*
X139999500Y-93546873D01*
X139999500Y-92750001D01*
X143995727Y-92750001D01*
X144014781Y-92967796D01*
X144014783Y-92967807D01*
X144071366Y-93178979D01*
X144071368Y-93178983D01*
X144071369Y-93178987D01*
X144157481Y-93363655D01*
X144163768Y-93377137D01*
X144163770Y-93377141D01*
X144289167Y-93556226D01*
X144289172Y-93556232D01*
X144443767Y-93710827D01*
X144443773Y-93710832D01*
X144622858Y-93836229D01*
X144622860Y-93836230D01*
X144622863Y-93836232D01*
X144821013Y-93928631D01*
X145032198Y-93985218D01*
X145187770Y-93998828D01*
X145249998Y-94004273D01*
X145250000Y-94004273D01*
X145250002Y-94004273D01*
X145304579Y-93999498D01*
X145467802Y-93985218D01*
X145678987Y-93928631D01*
X145877137Y-93836232D01*
X146056231Y-93710829D01*
X146210829Y-93556231D01*
X146336232Y-93377137D01*
X146428631Y-93178987D01*
X146485218Y-92967802D01*
X146504273Y-92750000D01*
X146485218Y-92532198D01*
X146428631Y-92321013D01*
X146336232Y-92122864D01*
X146251692Y-92002128D01*
X146210830Y-91943770D01*
X146149560Y-91882500D01*
X146056231Y-91789171D01*
X146056227Y-91789168D01*
X146056226Y-91789167D01*
X145877141Y-91663770D01*
X145877137Y-91663768D01*
X145877133Y-91663766D01*
X145678987Y-91571369D01*
X145678983Y-91571368D01*
X145678979Y-91571366D01*
X145467807Y-91514783D01*
X145467803Y-91514782D01*
X145467802Y-91514782D01*
X145467801Y-91514781D01*
X145467796Y-91514781D01*
X145250002Y-91495727D01*
X145249998Y-91495727D01*
X145032203Y-91514781D01*
X145032192Y-91514783D01*
X144821020Y-91571366D01*
X144821011Y-91571370D01*
X144622866Y-91663766D01*
X144443766Y-91789172D01*
X144289172Y-91943766D01*
X144163766Y-92122866D01*
X144071370Y-92321011D01*
X144071366Y-92321020D01*
X144014783Y-92532192D01*
X144014781Y-92532203D01*
X143995727Y-92749998D01*
X143995727Y-92750001D01*
X139999500Y-92750001D01*
X139999499Y-91953128D01*
X139993091Y-91893517D01*
X139981151Y-91861505D01*
X139942797Y-91758671D01*
X139942793Y-91758664D01*
X139856547Y-91643455D01*
X139856544Y-91643452D01*
X139741335Y-91557206D01*
X139741328Y-91557202D01*
X139606482Y-91506908D01*
X139606483Y-91506908D01*
X139546883Y-91500501D01*
X139546881Y-91500500D01*
X139546873Y-91500500D01*
X139546864Y-91500500D01*
X137953129Y-91500500D01*
X137953123Y-91500501D01*
X137893516Y-91506908D01*
X137758671Y-91557202D01*
X137758664Y-91557206D01*
X137643455Y-91643452D01*
X137643452Y-91643455D01*
X137557206Y-91758664D01*
X137557202Y-91758671D01*
X137506908Y-91893517D01*
X137501506Y-91943766D01*
X137500501Y-91953123D01*
X137500500Y-91953135D01*
X137500500Y-93546870D01*
X131176441Y-93546870D01*
X131225063Y-93365408D01*
X131245659Y-93130000D01*
X131225063Y-92894592D01*
X131163903Y-92666337D01*
X131064035Y-92452171D01*
X130972203Y-92321020D01*
X130928494Y-92258597D01*
X130761402Y-92091506D01*
X130761396Y-92091501D01*
X130575842Y-91961575D01*
X130532217Y-91906998D01*
X130525023Y-91837500D01*
X130556546Y-91775145D01*
X130575842Y-91758425D01*
X130622197Y-91725967D01*
X130761401Y-91628495D01*
X130928495Y-91461401D01*
X131064035Y-91267830D01*
X131163903Y-91053663D01*
X131225063Y-90825408D01*
X131245659Y-90590000D01*
X131225063Y-90354592D01*
X131163903Y-90126337D01*
X131064035Y-89912171D01*
X130928495Y-89718599D01*
X130806179Y-89596283D01*
X130772696Y-89534963D01*
X130777680Y-89465271D01*
X130819551Y-89409337D01*
X130850529Y-89392422D01*
X130982086Y-89343354D01*
X130982093Y-89343350D01*
X131097187Y-89257190D01*
X131097190Y-89257187D01*
X131183350Y-89142093D01*
X131183354Y-89142086D01*
X131233596Y-89007379D01*
X131233598Y-89007372D01*
X131239999Y-88947844D01*
X131240000Y-88947827D01*
X131240000Y-88300000D01*
X130335572Y-88300000D01*
X130358682Y-88264040D01*
X130400000Y-88123327D01*
X130400000Y-87976673D01*
X130358682Y-87835960D01*
X130335572Y-87800000D01*
X131240000Y-87800000D01*
X131240000Y-87152172D01*
X131239999Y-87152155D01*
X131233598Y-87092627D01*
X131233596Y-87092620D01*
X131183354Y-86957913D01*
X131183350Y-86957906D01*
X131097190Y-86842812D01*
X131097187Y-86842809D01*
X130982093Y-86756649D01*
X130982088Y-86756646D01*
X130850528Y-86707577D01*
X130794595Y-86665705D01*
X130770178Y-86600241D01*
X130785030Y-86531968D01*
X130806175Y-86503720D01*
X130928495Y-86381401D01*
X131011136Y-86263376D01*
X131065713Y-86219752D01*
X131112711Y-86210500D01*
X133466952Y-86210500D01*
X133470697Y-86210613D01*
X133478042Y-86211057D01*
X133532606Y-86214358D01*
X133570314Y-86207447D01*
X133593621Y-86203177D01*
X133597325Y-86202613D01*
X133615170Y-86200446D01*
X133658872Y-86195140D01*
X133668335Y-86191550D01*
X133689961Y-86185522D01*
X133690893Y-86185351D01*
X133699932Y-86183695D01*
X133756512Y-86158229D01*
X133759942Y-86156809D01*
X133817930Y-86134818D01*
X133826266Y-86129062D01*
X133845821Y-86118034D01*
X133855057Y-86113878D01*
X133903896Y-86075613D01*
X133906876Y-86073421D01*
X133957929Y-86038183D01*
X133999065Y-85991748D01*
X134001599Y-85989056D01*
X137479048Y-82511606D01*
X137481740Y-82509072D01*
X137528183Y-82467929D01*
X137563427Y-82416867D01*
X137565634Y-82413869D01*
X137603878Y-82365056D01*
X137608037Y-82355813D01*
X137619061Y-82336268D01*
X137624818Y-82327930D01*
X137646810Y-82269939D01*
X137648232Y-82266503D01*
X137673695Y-82209931D01*
X137675522Y-82199959D01*
X137681546Y-82178347D01*
X137685140Y-82168872D01*
X137692613Y-82107324D01*
X137693177Y-82103619D01*
X137696535Y-82085289D01*
X137704358Y-82042606D01*
X137700613Y-81980696D01*
X137700500Y-81976951D01*
X137700500Y-76200000D01*
X146414540Y-76200000D01*
X146434326Y-76388256D01*
X146434327Y-76388259D01*
X146492818Y-76568277D01*
X146492821Y-76568284D01*
X146587467Y-76732216D01*
X146694876Y-76851505D01*
X146714129Y-76872888D01*
X146867265Y-76984148D01*
X146867270Y-76984151D01*
X147040191Y-77061142D01*
X147040193Y-77061142D01*
X147040197Y-77061144D01*
X147195130Y-77094075D01*
X147256607Y-77127266D01*
X147257026Y-77127683D01*
X149348399Y-79219056D01*
X149350935Y-79221750D01*
X149392071Y-79268183D01*
X149423431Y-79289829D01*
X149443110Y-79303413D01*
X149446127Y-79305633D01*
X149494938Y-79343874D01*
X149494940Y-79343875D01*
X149494943Y-79343877D01*
X149504174Y-79348031D01*
X149523727Y-79359059D01*
X149532070Y-79364818D01*
X149590044Y-79386804D01*
X149590057Y-79386809D01*
X149593508Y-79388238D01*
X149623093Y-79401553D01*
X149650063Y-79413692D01*
X149650064Y-79413692D01*
X149650068Y-79413694D01*
X149660030Y-79415519D01*
X149681651Y-79421546D01*
X149691125Y-79425139D01*
X149691128Y-79425140D01*
X149707871Y-79427173D01*
X149752689Y-79432615D01*
X149756386Y-79433177D01*
X149817394Y-79444357D01*
X149817395Y-79444356D01*
X149817396Y-79444357D01*
X149879292Y-79440613D01*
X149883036Y-79440500D01*
X151575500Y-79440500D01*
X151642539Y-79460185D01*
X151688294Y-79512989D01*
X151699500Y-79564500D01*
X151699500Y-85744608D01*
X151679815Y-85811647D01*
X151667656Y-85827574D01*
X151667468Y-85827782D01*
X151667464Y-85827787D01*
X151572821Y-85991715D01*
X151572818Y-85991722D01*
X151530274Y-86122660D01*
X151514326Y-86171744D01*
X151494540Y-86360000D01*
X151514326Y-86548256D01*
X151514327Y-86548259D01*
X151572818Y-86728277D01*
X151572821Y-86728284D01*
X151667467Y-86892216D01*
X151726615Y-86957906D01*
X151794129Y-87032888D01*
X151947265Y-87144148D01*
X151947270Y-87144151D01*
X152120192Y-87221142D01*
X152120197Y-87221144D01*
X152305354Y-87260500D01*
X152305355Y-87260500D01*
X152494644Y-87260500D01*
X152494646Y-87260500D01*
X152679803Y-87221144D01*
X152852730Y-87144151D01*
X152923657Y-87092620D01*
X152935271Y-87084182D01*
X153001077Y-87060702D01*
X153008156Y-87060500D01*
X159411844Y-87060500D01*
X159478883Y-87080185D01*
X159484729Y-87084182D01*
X159567265Y-87144148D01*
X159567270Y-87144151D01*
X159740192Y-87221142D01*
X159740197Y-87221144D01*
X159925354Y-87260500D01*
X159925355Y-87260500D01*
X160114644Y-87260500D01*
X160114646Y-87260500D01*
X160299803Y-87221144D01*
X160472730Y-87144151D01*
X160625871Y-87032888D01*
X160752533Y-86892216D01*
X160847179Y-86728284D01*
X160905674Y-86548256D01*
X160925460Y-86360000D01*
X160905674Y-86171744D01*
X160847179Y-85991716D01*
X160752533Y-85827784D01*
X160625871Y-85687112D01*
X160625870Y-85687111D01*
X160472734Y-85575851D01*
X160472729Y-85575848D01*
X160299807Y-85498857D01*
X160299802Y-85498855D01*
X160154001Y-85467865D01*
X160114646Y-85459500D01*
X159925354Y-85459500D01*
X159892897Y-85466398D01*
X159740197Y-85498855D01*
X159740192Y-85498857D01*
X159567270Y-85575848D01*
X159567265Y-85575851D01*
X159484729Y-85635818D01*
X159418923Y-85659298D01*
X159411844Y-85659500D01*
X153224500Y-85659500D01*
X153157461Y-85639815D01*
X153111706Y-85587011D01*
X153100500Y-85535500D01*
X153100500Y-78654943D01*
X153091183Y-78617147D01*
X153089832Y-78609773D01*
X153085140Y-78571130D01*
X153085140Y-78571128D01*
X153071329Y-78534712D01*
X153069110Y-78527590D01*
X153059790Y-78489775D01*
X153041687Y-78455283D01*
X153038627Y-78448484D01*
X153024818Y-78412070D01*
X153002694Y-78380018D01*
X152998823Y-78373614D01*
X152980736Y-78339151D01*
X152980732Y-78339145D01*
X152966150Y-78322685D01*
X152954916Y-78310005D01*
X152950299Y-78304111D01*
X152928185Y-78272073D01*
X152928183Y-78272071D01*
X152899037Y-78246250D01*
X152893743Y-78240955D01*
X152867933Y-78211821D01*
X152867930Y-78211819D01*
X152867929Y-78211817D01*
X152862088Y-78207785D01*
X152835882Y-78189695D01*
X152829986Y-78185075D01*
X152800851Y-78159265D01*
X152800848Y-78159263D01*
X152766387Y-78141177D01*
X152759974Y-78137300D01*
X152727933Y-78115183D01*
X152727931Y-78115182D01*
X152691524Y-78101374D01*
X152684693Y-78098299D01*
X152650226Y-78080210D01*
X152650221Y-78080209D01*
X152648601Y-78079809D01*
X152612424Y-78070892D01*
X152605276Y-78068665D01*
X152568876Y-78054861D01*
X152568869Y-78054859D01*
X152530223Y-78050166D01*
X152522855Y-78048816D01*
X152485058Y-78039500D01*
X152485056Y-78039500D01*
X152442372Y-78039500D01*
X150201519Y-78039500D01*
X150134480Y-78019815D01*
X150113838Y-78003181D01*
X148246503Y-76135846D01*
X148213018Y-76074523D01*
X148210865Y-76061143D01*
X148205674Y-76011744D01*
X148147179Y-75831716D01*
X148052533Y-75667784D01*
X147925871Y-75527112D01*
X147925870Y-75527111D01*
X147772734Y-75415851D01*
X147772729Y-75415848D01*
X147599807Y-75338857D01*
X147599802Y-75338855D01*
X147454001Y-75307865D01*
X147414646Y-75299500D01*
X147225354Y-75299500D01*
X147192897Y-75306398D01*
X147040197Y-75338855D01*
X147040192Y-75338857D01*
X146867270Y-75415848D01*
X146867265Y-75415851D01*
X146714129Y-75527111D01*
X146587466Y-75667785D01*
X146492821Y-75831715D01*
X146492818Y-75831722D01*
X146434327Y-76011740D01*
X146434326Y-76011744D01*
X146414540Y-76200000D01*
X137700500Y-76200000D01*
X137700500Y-72267870D01*
X138099500Y-72267870D01*
X138099501Y-72267876D01*
X138105908Y-72327483D01*
X138156202Y-72462328D01*
X138156206Y-72462335D01*
X138242452Y-72577544D01*
X138242455Y-72577547D01*
X138357664Y-72663793D01*
X138357671Y-72663797D01*
X138492517Y-72714091D01*
X138492516Y-72714091D01*
X138499444Y-72714835D01*
X138552127Y-72720500D01*
X140847872Y-72720499D01*
X140907483Y-72714091D01*
X141042331Y-72663796D01*
X141157546Y-72577546D01*
X141243796Y-72462331D01*
X141294091Y-72327483D01*
X141300500Y-72267873D01*
X141300499Y-71120000D01*
X148254551Y-71120000D01*
X148274317Y-71371151D01*
X148333126Y-71616110D01*
X148429533Y-71848859D01*
X148561160Y-72063653D01*
X148561161Y-72063656D01*
X148561164Y-72063659D01*
X148724776Y-72255224D01*
X148831456Y-72346337D01*
X148916343Y-72418838D01*
X148916346Y-72418839D01*
X149131140Y-72550466D01*
X149363889Y-72646873D01*
X149608852Y-72705683D01*
X149860000Y-72725449D01*
X150111148Y-72705683D01*
X150356111Y-72646873D01*
X150588859Y-72550466D01*
X150803659Y-72418836D01*
X150995224Y-72255224D01*
X151158836Y-72063659D01*
X151290466Y-71848859D01*
X151386873Y-71616111D01*
X151445683Y-71371148D01*
X151465449Y-71120000D01*
X151445683Y-70868852D01*
X151386873Y-70623889D01*
X151290466Y-70391141D01*
X151290466Y-70391140D01*
X151158839Y-70176346D01*
X151158838Y-70176343D01*
X151037774Y-70034596D01*
X150995224Y-69984776D01*
X150868571Y-69876604D01*
X150803656Y-69821161D01*
X150803653Y-69821160D01*
X150588859Y-69689533D01*
X150356110Y-69593126D01*
X150111151Y-69534317D01*
X149860000Y-69514551D01*
X149608848Y-69534317D01*
X149363889Y-69593126D01*
X149131140Y-69689533D01*
X148916346Y-69821160D01*
X148916343Y-69821161D01*
X148724776Y-69984776D01*
X148561161Y-70176343D01*
X148561160Y-70176346D01*
X148429533Y-70391140D01*
X148333126Y-70623889D01*
X148274317Y-70868848D01*
X148254551Y-71120000D01*
X141300499Y-71120000D01*
X141300499Y-70561517D01*
X141320184Y-70494479D01*
X141336813Y-70473842D01*
X142719056Y-69091599D01*
X142721748Y-69089065D01*
X142768183Y-69047929D01*
X142803427Y-68996866D01*
X142805617Y-68993890D01*
X142843877Y-68945057D01*
X142848029Y-68935828D01*
X142859062Y-68916268D01*
X142859837Y-68915145D01*
X142864818Y-68907930D01*
X142886812Y-68849933D01*
X142888231Y-68846505D01*
X142913694Y-68789932D01*
X142915520Y-68779965D01*
X142921548Y-68758340D01*
X142925140Y-68748872D01*
X142932615Y-68687309D01*
X142933179Y-68683605D01*
X142937456Y-68660258D01*
X142944357Y-68622606D01*
X142943074Y-68601402D01*
X142941780Y-68580000D01*
X154034540Y-68580000D01*
X154054326Y-68768256D01*
X154054327Y-68768259D01*
X154112818Y-68948277D01*
X154112821Y-68948284D01*
X154207466Y-69112215D01*
X154207648Y-69112417D01*
X154207716Y-69112559D01*
X154211285Y-69117471D01*
X154210386Y-69118123D01*
X154237879Y-69175408D01*
X154239500Y-69195391D01*
X154239500Y-73636951D01*
X154239387Y-73640696D01*
X154235642Y-73702603D01*
X154235642Y-73702605D01*
X154246821Y-73763612D01*
X154247384Y-73767313D01*
X154254859Y-73828870D01*
X154254860Y-73828874D01*
X154258451Y-73838343D01*
X154264474Y-73859946D01*
X154266304Y-73869930D01*
X154291759Y-73926490D01*
X154293189Y-73929941D01*
X154315182Y-73987930D01*
X154315183Y-73987931D01*
X154320936Y-73996266D01*
X154331961Y-74015813D01*
X154336120Y-74025055D01*
X154336124Y-74025060D01*
X154338650Y-74028284D01*
X154360522Y-74056202D01*
X154374371Y-74073878D01*
X154376591Y-74076896D01*
X154411812Y-74127924D01*
X154411816Y-74127928D01*
X154411817Y-74127929D01*
X154458250Y-74169064D01*
X154460941Y-74171598D01*
X156846887Y-76557544D01*
X159093495Y-78804152D01*
X159126980Y-78865475D01*
X159129134Y-78878869D01*
X159134325Y-78928249D01*
X159134327Y-78928260D01*
X159192818Y-79108277D01*
X159192821Y-79108284D01*
X159287467Y-79272216D01*
X159394872Y-79391501D01*
X159414129Y-79412888D01*
X159567265Y-79524148D01*
X159567270Y-79524151D01*
X159740192Y-79601142D01*
X159740197Y-79601144D01*
X159925354Y-79640500D01*
X159925355Y-79640500D01*
X160114644Y-79640500D01*
X160114646Y-79640500D01*
X160299803Y-79601144D01*
X160472730Y-79524151D01*
X160625871Y-79412888D01*
X160752533Y-79272216D01*
X160847179Y-79108284D01*
X160905674Y-78928256D01*
X160925460Y-78740000D01*
X160905674Y-78551744D01*
X160847179Y-78371716D01*
X160752533Y-78207784D01*
X160625871Y-78067112D01*
X160609008Y-78054860D01*
X160472734Y-77955851D01*
X160472729Y-77955848D01*
X160299807Y-77878857D01*
X160299802Y-77878855D01*
X160163490Y-77849882D01*
X160144872Y-77845924D01*
X160083391Y-77812733D01*
X160082973Y-77812316D01*
X155930657Y-73660000D01*
X159114540Y-73660000D01*
X159134326Y-73848256D01*
X159134327Y-73848259D01*
X159192818Y-74028277D01*
X159192821Y-74028284D01*
X159287467Y-74192216D01*
X159414129Y-74332888D01*
X159567265Y-74444148D01*
X159567270Y-74444151D01*
X159740191Y-74521142D01*
X159740193Y-74521142D01*
X159740197Y-74521144D01*
X159895130Y-74554075D01*
X159956607Y-74587266D01*
X159957026Y-74587683D01*
X164588399Y-79219056D01*
X164590935Y-79221750D01*
X164632071Y-79268183D01*
X164637911Y-79272214D01*
X164683106Y-79303410D01*
X164686122Y-79305630D01*
X164712490Y-79326287D01*
X164734943Y-79343878D01*
X164741845Y-79346984D01*
X164744182Y-79348036D01*
X164763733Y-79359063D01*
X164772070Y-79364818D01*
X164830065Y-79386812D01*
X164833474Y-79388223D01*
X164880787Y-79409517D01*
X164890064Y-79413693D01*
X164890065Y-79413693D01*
X164890069Y-79413695D01*
X164899068Y-79415344D01*
X164900034Y-79415521D01*
X164921656Y-79421548D01*
X164924777Y-79422731D01*
X164931128Y-79425140D01*
X164976251Y-79430618D01*
X164992674Y-79432613D01*
X164996371Y-79433175D01*
X165057394Y-79444358D01*
X165112752Y-79441009D01*
X165119303Y-79440613D01*
X165123048Y-79440500D01*
X169571844Y-79440500D01*
X169638883Y-79460185D01*
X169644729Y-79464182D01*
X169727265Y-79524148D01*
X169727270Y-79524151D01*
X169900192Y-79601142D01*
X169900197Y-79601144D01*
X170085354Y-79640500D01*
X170085355Y-79640500D01*
X170274644Y-79640500D01*
X170274646Y-79640500D01*
X170459803Y-79601144D01*
X170632730Y-79524151D01*
X170785871Y-79412888D01*
X170912533Y-79272216D01*
X171007179Y-79108284D01*
X171065674Y-78928256D01*
X171085460Y-78740000D01*
X171065674Y-78551744D01*
X171007179Y-78371716D01*
X170912533Y-78207784D01*
X170785871Y-78067112D01*
X170769008Y-78054860D01*
X170632734Y-77955851D01*
X170632729Y-77955848D01*
X170459807Y-77878857D01*
X170459802Y-77878855D01*
X170314001Y-77847865D01*
X170274646Y-77839500D01*
X170085354Y-77839500D01*
X170052897Y-77846398D01*
X169900197Y-77878855D01*
X169900192Y-77878857D01*
X169727270Y-77955848D01*
X169727265Y-77955851D01*
X169644729Y-78015818D01*
X169578923Y-78039298D01*
X169571844Y-78039500D01*
X165441519Y-78039500D01*
X165374480Y-78019815D01*
X165353838Y-78003181D01*
X160946503Y-73595846D01*
X160913018Y-73534523D01*
X160910865Y-73521143D01*
X160905674Y-73471744D01*
X160847179Y-73291716D01*
X160752533Y-73127784D01*
X160625871Y-72987112D01*
X160625870Y-72987111D01*
X160472734Y-72875851D01*
X160472729Y-72875848D01*
X160299807Y-72798857D01*
X160299802Y-72798855D01*
X160154001Y-72767865D01*
X160114646Y-72759500D01*
X159925354Y-72759500D01*
X159892897Y-72766398D01*
X159740197Y-72798855D01*
X159740192Y-72798857D01*
X159567270Y-72875848D01*
X159567265Y-72875851D01*
X159414129Y-72987111D01*
X159287466Y-73127785D01*
X159192821Y-73291715D01*
X159192818Y-73291722D01*
X159134327Y-73471740D01*
X159134326Y-73471744D01*
X159114540Y-73660000D01*
X155930657Y-73660000D01*
X155676819Y-73406162D01*
X155643334Y-73344839D01*
X155640500Y-73318481D01*
X155640500Y-69404500D01*
X155660185Y-69337461D01*
X155712989Y-69291706D01*
X155764500Y-69280500D01*
X169571844Y-69280500D01*
X169638883Y-69300185D01*
X169644729Y-69304182D01*
X169727265Y-69364148D01*
X169727270Y-69364151D01*
X169900192Y-69441142D01*
X169900197Y-69441144D01*
X170085354Y-69480500D01*
X170085355Y-69480500D01*
X170274644Y-69480500D01*
X170274646Y-69480500D01*
X170459803Y-69441144D01*
X170632730Y-69364151D01*
X170785871Y-69252888D01*
X170912533Y-69112216D01*
X171007179Y-68948284D01*
X171065674Y-68768256D01*
X171085460Y-68580000D01*
X171065674Y-68391744D01*
X171007179Y-68211716D01*
X170912533Y-68047784D01*
X170785871Y-67907112D01*
X170785870Y-67907111D01*
X170632734Y-67795851D01*
X170632729Y-67795848D01*
X170459807Y-67718857D01*
X170459802Y-67718855D01*
X170314001Y-67687865D01*
X170274646Y-67679500D01*
X170085354Y-67679500D01*
X170052897Y-67686398D01*
X169900197Y-67718855D01*
X169900192Y-67718857D01*
X169727270Y-67795848D01*
X169727265Y-67795851D01*
X169644729Y-67855818D01*
X169578923Y-67879298D01*
X169571844Y-67879500D01*
X155548156Y-67879500D01*
X155481117Y-67859815D01*
X155475271Y-67855818D01*
X155392734Y-67795851D01*
X155392729Y-67795848D01*
X155219807Y-67718857D01*
X155219802Y-67718855D01*
X155074001Y-67687865D01*
X155034646Y-67679500D01*
X154845354Y-67679500D01*
X154812897Y-67686398D01*
X154660197Y-67718855D01*
X154660192Y-67718857D01*
X154487270Y-67795848D01*
X154487265Y-67795851D01*
X154334129Y-67907111D01*
X154207466Y-68047785D01*
X154112821Y-68211715D01*
X154112818Y-68211722D01*
X154082342Y-68305519D01*
X154054326Y-68391744D01*
X154034540Y-68580000D01*
X142941780Y-68580000D01*
X142940613Y-68560707D01*
X142940500Y-68556963D01*
X142940500Y-66381519D01*
X142960185Y-66314480D01*
X142976819Y-66293838D01*
X145033838Y-64236819D01*
X145095161Y-64203334D01*
X145121519Y-64200500D01*
X147277628Y-64200500D01*
X157138481Y-64200500D01*
X157205520Y-64220185D01*
X157226162Y-64236819D01*
X159093495Y-66104152D01*
X159126980Y-66165475D01*
X159129134Y-66178869D01*
X159134325Y-66228249D01*
X159134327Y-66228260D01*
X159192818Y-66408277D01*
X159192821Y-66408284D01*
X159287467Y-66572216D01*
X159394872Y-66691501D01*
X159414129Y-66712888D01*
X159567265Y-66824148D01*
X159567270Y-66824151D01*
X159740192Y-66901142D01*
X159740197Y-66901144D01*
X159925354Y-66940500D01*
X159925355Y-66940500D01*
X160114644Y-66940500D01*
X160114646Y-66940500D01*
X160299803Y-66901144D01*
X160472730Y-66824151D01*
X160625871Y-66712888D01*
X160752533Y-66572216D01*
X160847179Y-66408284D01*
X160905674Y-66228256D01*
X160925460Y-66040000D01*
X160905674Y-65851744D01*
X160847179Y-65671716D01*
X160834704Y-65650109D01*
X160818232Y-65582211D01*
X160841085Y-65516184D01*
X160896006Y-65472993D01*
X160965559Y-65466352D01*
X161027662Y-65498368D01*
X161029773Y-65500430D01*
X162048399Y-66519056D01*
X162050935Y-66521750D01*
X162092071Y-66568183D01*
X162123431Y-66589829D01*
X162143110Y-66603413D01*
X162146127Y-66605633D01*
X162194938Y-66643874D01*
X162194943Y-66643877D01*
X162204174Y-66648031D01*
X162223727Y-66659059D01*
X162232070Y-66664818D01*
X162290044Y-66686804D01*
X162290057Y-66686809D01*
X162293508Y-66688238D01*
X162323093Y-66701553D01*
X162350063Y-66713692D01*
X162350064Y-66713692D01*
X162350068Y-66713694D01*
X162360030Y-66715519D01*
X162381651Y-66721546D01*
X162381667Y-66721552D01*
X162391128Y-66725140D01*
X162407871Y-66727173D01*
X162452689Y-66732615D01*
X162456386Y-66733177D01*
X162517394Y-66744357D01*
X162517395Y-66744356D01*
X162517396Y-66744357D01*
X162579292Y-66740613D01*
X162583036Y-66740500D01*
X165076952Y-66740500D01*
X165080697Y-66740613D01*
X165088042Y-66741057D01*
X165142606Y-66744358D01*
X165180314Y-66737447D01*
X165203621Y-66733177D01*
X165207325Y-66732613D01*
X165225170Y-66730446D01*
X165268872Y-66725140D01*
X165278335Y-66721550D01*
X165299961Y-66715522D01*
X165300893Y-66715351D01*
X165309932Y-66713695D01*
X165366512Y-66688229D01*
X165369942Y-66686809D01*
X165427930Y-66664818D01*
X165436266Y-66659062D01*
X165455821Y-66648034D01*
X165465057Y-66643878D01*
X165513896Y-66605613D01*
X165516876Y-66603421D01*
X165567929Y-66568183D01*
X165609065Y-66521748D01*
X165611599Y-66519056D01*
X168119056Y-64011599D01*
X168121748Y-64009065D01*
X168168183Y-63967929D01*
X168168187Y-63967924D01*
X168184840Y-63943796D01*
X168203427Y-63916866D01*
X168205617Y-63913890D01*
X168243877Y-63865057D01*
X168248029Y-63855828D01*
X168259062Y-63836268D01*
X168259419Y-63835750D01*
X168264818Y-63827930D01*
X168286812Y-63769933D01*
X168288238Y-63766490D01*
X168313694Y-63709932D01*
X168315520Y-63699965D01*
X168321548Y-63678340D01*
X168325140Y-63668872D01*
X168332594Y-63607482D01*
X168332615Y-63607309D01*
X168333179Y-63603605D01*
X168344357Y-63542605D01*
X168344357Y-63542603D01*
X168340613Y-63480707D01*
X168340500Y-63476963D01*
X168340500Y-61575391D01*
X168360185Y-61508352D01*
X168372352Y-61492417D01*
X168372533Y-61492216D01*
X168467179Y-61328284D01*
X168525674Y-61148256D01*
X168545460Y-60960000D01*
X168525674Y-60771744D01*
X168467179Y-60591716D01*
X168372533Y-60427784D01*
X168245871Y-60287112D01*
X168235828Y-60279815D01*
X168092734Y-60175851D01*
X168092729Y-60175848D01*
X167919807Y-60098857D01*
X167919802Y-60098855D01*
X167774001Y-60067865D01*
X167734646Y-60059500D01*
X167545354Y-60059500D01*
X167512897Y-60066398D01*
X167360197Y-60098855D01*
X167360192Y-60098857D01*
X167187270Y-60175848D01*
X167187265Y-60175851D01*
X167034129Y-60287111D01*
X166907466Y-60427785D01*
X166812821Y-60591715D01*
X166812818Y-60591722D01*
X166754327Y-60771740D01*
X166754326Y-60771744D01*
X166734540Y-60960000D01*
X166754326Y-61148256D01*
X166754327Y-61148259D01*
X166812818Y-61328277D01*
X166812821Y-61328284D01*
X166907466Y-61492215D01*
X166907648Y-61492417D01*
X166907716Y-61492559D01*
X166911285Y-61497471D01*
X166910386Y-61498123D01*
X166937879Y-61555408D01*
X166939500Y-61575391D01*
X166939500Y-63158481D01*
X166919815Y-63225520D01*
X166903181Y-63246162D01*
X164846162Y-65303181D01*
X164784839Y-65336666D01*
X164758481Y-65339500D01*
X162901519Y-65339500D01*
X162834480Y-65319815D01*
X162813838Y-65303181D01*
X160756819Y-63246162D01*
X160723334Y-63184839D01*
X160720500Y-63158481D01*
X160720500Y-62263861D01*
X160740185Y-62196822D01*
X160780406Y-62159372D01*
X160780218Y-62159121D01*
X160782563Y-62157364D01*
X160785072Y-62155029D01*
X160787327Y-62153797D01*
X160787331Y-62153796D01*
X160787333Y-62153794D01*
X160795115Y-62149545D01*
X160796249Y-62151622D01*
X160849715Y-62131671D01*
X160894576Y-62136694D01*
X160895656Y-62137021D01*
X160895659Y-62137023D01*
X161088967Y-62195662D01*
X161290000Y-62215462D01*
X161491033Y-62195662D01*
X161684341Y-62137023D01*
X161862494Y-62041798D01*
X161862498Y-62041794D01*
X161866546Y-62039631D01*
X161934949Y-62025389D01*
X161983454Y-62039631D01*
X161987502Y-62041794D01*
X161987506Y-62041798D01*
X162165659Y-62137023D01*
X162358967Y-62195662D01*
X162560000Y-62215462D01*
X162761033Y-62195662D01*
X162954341Y-62137023D01*
X163132494Y-62041798D01*
X163288647Y-61913647D01*
X163416798Y-61757494D01*
X163512023Y-61579341D01*
X163570662Y-61386033D01*
X163585500Y-61235380D01*
X163585500Y-60684620D01*
X163570662Y-60533967D01*
X163512023Y-60340659D01*
X163512021Y-60340656D01*
X163512021Y-60340654D01*
X163416801Y-60162511D01*
X163416799Y-60162509D01*
X163416798Y-60162506D01*
X163373707Y-60109999D01*
X163288647Y-60006352D01*
X163132495Y-59878203D01*
X163132488Y-59878198D01*
X162954345Y-59782978D01*
X162761031Y-59724337D01*
X162560000Y-59704538D01*
X162358968Y-59724337D01*
X162165654Y-59782978D01*
X161983453Y-59880367D01*
X161915050Y-59894609D01*
X161866547Y-59880367D01*
X161684345Y-59782978D01*
X161491031Y-59724337D01*
X161290000Y-59704538D01*
X161088968Y-59724337D01*
X160950959Y-59766202D01*
X160895659Y-59782977D01*
X160895658Y-59782977D01*
X160894575Y-59783306D01*
X160824708Y-59783929D01*
X160795618Y-59769529D01*
X160795114Y-59770454D01*
X160787328Y-59766202D01*
X160652482Y-59715908D01*
X160652483Y-59715908D01*
X160592883Y-59709501D01*
X160592881Y-59709500D01*
X160592873Y-59709500D01*
X160592864Y-59709500D01*
X159447129Y-59709500D01*
X159447123Y-59709501D01*
X159387516Y-59715908D01*
X159252671Y-59766202D01*
X159252664Y-59766206D01*
X159137455Y-59852452D01*
X159137452Y-59852455D01*
X159051206Y-59967664D01*
X159051202Y-59967671D01*
X159000908Y-60102517D01*
X158994501Y-60162116D01*
X158994500Y-60162135D01*
X158994500Y-61757870D01*
X158994501Y-61757876D01*
X159000908Y-61817483D01*
X159051202Y-61952328D01*
X159051206Y-61952335D01*
X159137452Y-62067544D01*
X159137455Y-62067547D01*
X159252663Y-62153792D01*
X159252665Y-62153793D01*
X159252669Y-62153796D01*
X159252673Y-62153797D01*
X159254924Y-62155027D01*
X159256746Y-62156849D01*
X159259769Y-62159112D01*
X159259443Y-62159546D01*
X159304331Y-62204431D01*
X159319500Y-62263861D01*
X159319500Y-63476951D01*
X159319387Y-63480696D01*
X159319387Y-63480707D01*
X159315642Y-63542606D01*
X159316607Y-63547870D01*
X159326821Y-63603612D01*
X159327384Y-63607313D01*
X159334859Y-63668870D01*
X159334860Y-63668874D01*
X159338451Y-63678343D01*
X159344474Y-63699946D01*
X159346304Y-63709930D01*
X159371759Y-63766490D01*
X159373189Y-63769941D01*
X159395182Y-63827930D01*
X159399826Y-63834657D01*
X159400936Y-63836266D01*
X159411961Y-63855813D01*
X159416120Y-63865055D01*
X159416124Y-63865060D01*
X159454371Y-63913878D01*
X159456591Y-63916896D01*
X159491812Y-63967924D01*
X159491816Y-63967928D01*
X159491817Y-63967929D01*
X159538250Y-64009064D01*
X159540941Y-64011598D01*
X160255678Y-64726335D01*
X160562871Y-65033528D01*
X160596356Y-65094851D01*
X160591372Y-65164543D01*
X160549500Y-65220476D01*
X160484036Y-65244893D01*
X160424754Y-65234488D01*
X160299807Y-65178857D01*
X160299802Y-65178855D01*
X160163490Y-65149882D01*
X160144872Y-65145924D01*
X160083391Y-65112733D01*
X160082973Y-65112316D01*
X159070802Y-64100145D01*
X157991598Y-63020941D01*
X157989064Y-63018250D01*
X157958000Y-62983185D01*
X157947932Y-62971820D01*
X157947930Y-62971819D01*
X157947929Y-62971817D01*
X157939584Y-62966056D01*
X157922349Y-62951692D01*
X156736819Y-61766162D01*
X156703334Y-61704839D01*
X156700500Y-61678481D01*
X156700500Y-57701517D01*
X156720185Y-57634478D01*
X156736814Y-57613841D01*
X160350653Y-54000001D01*
X165394532Y-54000001D01*
X165414364Y-54226686D01*
X165414366Y-54226697D01*
X165473258Y-54446488D01*
X165473261Y-54446497D01*
X165569431Y-54652732D01*
X165569432Y-54652734D01*
X165699954Y-54839141D01*
X165860858Y-55000045D01*
X165860861Y-55000047D01*
X166047266Y-55130568D01*
X166253504Y-55226739D01*
X166473308Y-55285635D01*
X166635230Y-55299801D01*
X166699998Y-55305468D01*
X166700000Y-55305468D01*
X166700002Y-55305468D01*
X166756673Y-55300509D01*
X166926692Y-55285635D01*
X167146496Y-55226739D01*
X167352734Y-55130568D01*
X167539139Y-55000047D01*
X167700047Y-54839139D01*
X167830568Y-54652734D01*
X167926739Y-54446496D01*
X167985635Y-54226692D01*
X168005468Y-54000000D01*
X168004724Y-53991501D01*
X167993357Y-53861575D01*
X167985635Y-53773308D01*
X167926739Y-53553504D01*
X167830568Y-53347266D01*
X167700047Y-53160861D01*
X167700045Y-53160858D01*
X167539141Y-52999954D01*
X167352734Y-52869432D01*
X167352732Y-52869431D01*
X167146497Y-52773261D01*
X167146488Y-52773258D01*
X166926697Y-52714366D01*
X166926693Y-52714365D01*
X166926692Y-52714365D01*
X166926691Y-52714364D01*
X166926686Y-52714364D01*
X166700002Y-52694532D01*
X166699998Y-52694532D01*
X166473313Y-52714364D01*
X166473302Y-52714366D01*
X166253511Y-52773258D01*
X166253502Y-52773261D01*
X166047267Y-52869431D01*
X166047265Y-52869432D01*
X165860858Y-52999954D01*
X165699954Y-53160858D01*
X165569432Y-53347265D01*
X165569431Y-53347267D01*
X165473261Y-53553502D01*
X165473258Y-53553511D01*
X165414366Y-53773302D01*
X165414364Y-53773313D01*
X165394532Y-53999998D01*
X165394532Y-54000001D01*
X160350653Y-54000001D01*
X160499048Y-53851606D01*
X160501740Y-53849072D01*
X160548183Y-53807929D01*
X160583427Y-53756867D01*
X160585634Y-53753869D01*
X160623878Y-53705056D01*
X160628037Y-53695813D01*
X160639061Y-53676268D01*
X160644818Y-53667930D01*
X160666810Y-53609939D01*
X160668232Y-53606503D01*
X160693695Y-53549931D01*
X160695522Y-53539959D01*
X160701546Y-53518347D01*
X160705140Y-53508872D01*
X160712613Y-53447324D01*
X160713177Y-53443619D01*
X160716535Y-53425289D01*
X160724358Y-53382606D01*
X160720613Y-53320696D01*
X160720500Y-53316951D01*
X160720500Y-50080000D01*
X161318676Y-50080000D01*
X161337534Y-50295549D01*
X161337536Y-50295559D01*
X161393534Y-50504550D01*
X161393538Y-50504559D01*
X161484981Y-50700661D01*
X161526496Y-50759950D01*
X162090941Y-50195505D01*
X162116497Y-50282541D01*
X162191524Y-50399286D01*
X162296404Y-50490164D01*
X162422638Y-50547813D01*
X162442835Y-50550717D01*
X161880048Y-51113502D01*
X161939340Y-51155019D01*
X162135440Y-51246461D01*
X162135449Y-51246465D01*
X162344440Y-51302463D01*
X162344450Y-51302465D01*
X162559999Y-51321324D01*
X162560001Y-51321324D01*
X162775549Y-51302465D01*
X162775559Y-51302463D01*
X162984550Y-51246465D01*
X162984559Y-51246461D01*
X163180663Y-51155017D01*
X163239950Y-51113502D01*
X162677164Y-50550716D01*
X162697362Y-50547813D01*
X162823596Y-50490164D01*
X162928476Y-50399286D01*
X163003503Y-50282541D01*
X163029058Y-50195505D01*
X163593502Y-50759949D01*
X163635017Y-50700663D01*
X163726461Y-50504559D01*
X163726465Y-50504550D01*
X163782463Y-50295559D01*
X163782465Y-50295549D01*
X163801324Y-50080000D01*
X163801324Y-50079999D01*
X163782465Y-49864450D01*
X163782463Y-49864440D01*
X163726465Y-49655449D01*
X163726461Y-49655440D01*
X163635019Y-49459340D01*
X163593502Y-49400048D01*
X163029058Y-49964493D01*
X163003503Y-49877459D01*
X162928476Y-49760714D01*
X162823596Y-49669836D01*
X162697362Y-49612187D01*
X162677164Y-49609283D01*
X163239950Y-49046496D01*
X163180661Y-49004981D01*
X162984559Y-48913538D01*
X162984550Y-48913534D01*
X162775559Y-48857536D01*
X162775549Y-48857534D01*
X162560001Y-48838676D01*
X162559999Y-48838676D01*
X162344450Y-48857534D01*
X162344440Y-48857536D01*
X162135449Y-48913534D01*
X162135440Y-48913538D01*
X161939339Y-49004981D01*
X161939337Y-49004982D01*
X161880049Y-49046496D01*
X161880048Y-49046496D01*
X162442835Y-49609282D01*
X162422638Y-49612187D01*
X162296404Y-49669836D01*
X162191524Y-49760714D01*
X162116497Y-49877459D01*
X162090941Y-49964493D01*
X161526496Y-49400048D01*
X161526496Y-49400049D01*
X161484982Y-49459337D01*
X161484981Y-49459339D01*
X161393538Y-49655440D01*
X161393534Y-49655449D01*
X161337536Y-49864440D01*
X161337534Y-49864450D01*
X161318676Y-50079999D01*
X161318676Y-50080000D01*
X160720500Y-50080000D01*
X160720500Y-48624275D01*
X160740185Y-48557236D01*
X160773376Y-48522700D01*
X160818230Y-48491294D01*
X160971294Y-48338230D01*
X161095453Y-48160913D01*
X161170488Y-48000001D01*
X167994390Y-48000001D01*
X168014804Y-48285433D01*
X168075628Y-48565037D01*
X168075630Y-48565043D01*
X168075631Y-48565046D01*
X168175591Y-48833049D01*
X168175635Y-48833166D01*
X168312770Y-49084309D01*
X168312775Y-49084317D01*
X168484254Y-49313387D01*
X168484270Y-49313405D01*
X168686594Y-49515729D01*
X168686612Y-49515745D01*
X168915682Y-49687224D01*
X168915690Y-49687229D01*
X169166833Y-49824364D01*
X169166832Y-49824364D01*
X169166836Y-49824365D01*
X169166839Y-49824367D01*
X169434954Y-49924369D01*
X169434960Y-49924370D01*
X169434962Y-49924371D01*
X169714566Y-49985195D01*
X169714568Y-49985195D01*
X169714572Y-49985196D01*
X169928552Y-50000500D01*
X170071448Y-50000500D01*
X170285428Y-49985196D01*
X170565046Y-49924369D01*
X170833161Y-49824367D01*
X171084315Y-49687226D01*
X171313395Y-49515739D01*
X171515739Y-49313395D01*
X171687226Y-49084315D01*
X171824367Y-48833161D01*
X171924369Y-48565046D01*
X171959549Y-48403325D01*
X171985195Y-48285433D01*
X171985195Y-48285432D01*
X171985196Y-48285428D01*
X172003564Y-48028595D01*
X172005610Y-48000001D01*
X172005610Y-47999998D01*
X171994140Y-47839625D01*
X171985196Y-47714572D01*
X171976865Y-47676276D01*
X171924371Y-47434962D01*
X171924370Y-47434960D01*
X171924369Y-47434954D01*
X171824367Y-47166839D01*
X171802645Y-47127059D01*
X171687229Y-46915690D01*
X171687224Y-46915682D01*
X171515745Y-46686612D01*
X171515729Y-46686594D01*
X171313405Y-46484270D01*
X171313387Y-46484254D01*
X171084317Y-46312775D01*
X171084309Y-46312770D01*
X170833166Y-46175635D01*
X170833167Y-46175635D01*
X170613166Y-46093579D01*
X170565046Y-46075631D01*
X170565043Y-46075630D01*
X170565037Y-46075628D01*
X170285433Y-46014804D01*
X170071448Y-45999500D01*
X169928552Y-45999500D01*
X169714566Y-46014804D01*
X169434962Y-46075628D01*
X169166833Y-46175635D01*
X168915690Y-46312770D01*
X168915682Y-46312775D01*
X168686612Y-46484254D01*
X168686594Y-46484270D01*
X168484270Y-46686594D01*
X168484254Y-46686612D01*
X168312775Y-46915682D01*
X168312770Y-46915690D01*
X168175635Y-47166833D01*
X168075628Y-47434962D01*
X168014804Y-47714566D01*
X167994390Y-47999998D01*
X167994390Y-48000001D01*
X161170488Y-48000001D01*
X161186935Y-47964730D01*
X161242960Y-47755641D01*
X161261826Y-47540000D01*
X161261523Y-47536541D01*
X161252643Y-47435035D01*
X161242960Y-47324359D01*
X161188487Y-47121061D01*
X161186937Y-47115277D01*
X161186936Y-47115276D01*
X161186935Y-47115270D01*
X161095453Y-46919087D01*
X160971294Y-46741770D01*
X160818230Y-46588706D01*
X160640913Y-46464547D01*
X160640912Y-46464546D01*
X160640910Y-46464545D01*
X160503562Y-46400499D01*
X160444730Y-46373065D01*
X160444726Y-46373064D01*
X160444722Y-46373062D01*
X160235646Y-46317041D01*
X160235642Y-46317040D01*
X160235641Y-46317040D01*
X160235640Y-46317039D01*
X160235635Y-46317039D01*
X160020002Y-46298174D01*
X160019998Y-46298174D01*
X159804364Y-46317039D01*
X159804353Y-46317041D01*
X159595277Y-46373062D01*
X159595268Y-46373066D01*
X159399089Y-46464545D01*
X159302305Y-46532314D01*
X159221770Y-46588706D01*
X159221768Y-46588707D01*
X159221765Y-46588710D01*
X159068710Y-46741765D01*
X159068707Y-46741768D01*
X159068706Y-46741770D01*
X159031727Y-46794581D01*
X158944545Y-46919089D01*
X158853066Y-47115268D01*
X158853062Y-47115277D01*
X158797041Y-47324353D01*
X158797039Y-47324364D01*
X158778174Y-47539998D01*
X158778174Y-47540001D01*
X158797039Y-47755635D01*
X158797041Y-47755646D01*
X158853062Y-47964722D01*
X158853064Y-47964726D01*
X158853065Y-47964730D01*
X158893979Y-48052470D01*
X158944545Y-48160910D01*
X158944546Y-48160912D01*
X158944547Y-48160913D01*
X159068706Y-48338230D01*
X159221770Y-48491294D01*
X159266623Y-48522700D01*
X159310248Y-48577276D01*
X159319500Y-48624275D01*
X159319500Y-52998480D01*
X159299815Y-53065519D01*
X159283181Y-53086161D01*
X155520966Y-56848375D01*
X155518240Y-56850942D01*
X155471818Y-56892068D01*
X155436586Y-56943109D01*
X155434368Y-56946124D01*
X155396124Y-56994939D01*
X155396119Y-56994948D01*
X155391960Y-57004188D01*
X155380942Y-57023723D01*
X155375187Y-57032061D01*
X155375183Y-57032067D01*
X155375182Y-57032070D01*
X155375180Y-57032074D01*
X155375179Y-57032077D01*
X155353189Y-57090055D01*
X155351757Y-57093513D01*
X155326305Y-57150068D01*
X155324477Y-57160042D01*
X155318453Y-57181653D01*
X155314860Y-57191127D01*
X155314859Y-57191128D01*
X155307384Y-57252685D01*
X155306821Y-57256386D01*
X155295642Y-57317390D01*
X155295642Y-57317395D01*
X155299387Y-57379302D01*
X155299500Y-57383047D01*
X155299500Y-61996951D01*
X155299387Y-62000696D01*
X155296901Y-62041801D01*
X155295642Y-62062606D01*
X155304368Y-62110228D01*
X155306821Y-62123612D01*
X155307384Y-62127313D01*
X155314859Y-62188870D01*
X155314860Y-62188874D01*
X155318451Y-62198343D01*
X155324474Y-62219946D01*
X155326304Y-62229930D01*
X155351759Y-62286490D01*
X155353189Y-62289941D01*
X155375182Y-62347930D01*
X155375183Y-62347931D01*
X155380936Y-62356266D01*
X155391961Y-62375813D01*
X155396120Y-62385055D01*
X155396124Y-62385060D01*
X155434371Y-62433878D01*
X155436591Y-62436896D01*
X155471812Y-62487924D01*
X155471816Y-62487928D01*
X155471817Y-62487929D01*
X155518250Y-62529064D01*
X155520941Y-62531598D01*
X155577162Y-62587819D01*
X155610647Y-62649142D01*
X155605663Y-62718834D01*
X155563791Y-62774767D01*
X155498327Y-62799184D01*
X155489481Y-62799500D01*
X144803036Y-62799500D01*
X144799292Y-62799387D01*
X144737397Y-62795643D01*
X144737390Y-62795643D01*
X144676402Y-62806819D01*
X144672701Y-62807382D01*
X144611125Y-62814860D01*
X144601642Y-62818456D01*
X144580038Y-62824478D01*
X144578535Y-62824754D01*
X144570065Y-62826306D01*
X144570063Y-62826307D01*
X144513527Y-62851752D01*
X144510069Y-62853184D01*
X144452069Y-62875182D01*
X144443724Y-62880942D01*
X144424183Y-62891964D01*
X144414944Y-62896122D01*
X144414939Y-62896125D01*
X144366121Y-62934370D01*
X144363106Y-62936589D01*
X144312072Y-62971816D01*
X144312065Y-62971822D01*
X144270942Y-63018240D01*
X144268375Y-63020966D01*
X141760966Y-65528375D01*
X141758240Y-65530942D01*
X141711818Y-65572068D01*
X141676586Y-65623109D01*
X141674368Y-65626124D01*
X141636124Y-65674939D01*
X141636119Y-65674948D01*
X141631960Y-65684188D01*
X141620942Y-65703723D01*
X141615187Y-65712061D01*
X141615183Y-65712067D01*
X141615182Y-65712070D01*
X141615180Y-65712074D01*
X141615179Y-65712077D01*
X141593189Y-65770055D01*
X141591757Y-65773513D01*
X141566305Y-65830068D01*
X141564477Y-65840042D01*
X141558453Y-65861653D01*
X141554860Y-65871127D01*
X141554859Y-65871128D01*
X141547384Y-65932685D01*
X141546821Y-65936386D01*
X141535642Y-65997390D01*
X141535642Y-65997395D01*
X141539387Y-66059302D01*
X141539500Y-66063047D01*
X141539500Y-68238480D01*
X141519815Y-68305519D01*
X141503181Y-68326161D01*
X140346161Y-69483181D01*
X140284838Y-69516666D01*
X140258480Y-69519500D01*
X138552129Y-69519500D01*
X138552123Y-69519501D01*
X138492516Y-69525908D01*
X138357671Y-69576202D01*
X138357664Y-69576206D01*
X138242455Y-69662452D01*
X138242452Y-69662455D01*
X138156206Y-69777664D01*
X138156202Y-69777671D01*
X138105908Y-69912517D01*
X138099501Y-69972116D01*
X138099500Y-69972135D01*
X138099500Y-72267870D01*
X137700500Y-72267870D01*
X137700500Y-61341518D01*
X137720185Y-61274479D01*
X137736814Y-61253842D01*
X140192786Y-58797870D01*
X144974500Y-58797870D01*
X144974501Y-58797876D01*
X144980908Y-58857483D01*
X145031202Y-58992328D01*
X145031206Y-58992335D01*
X145117452Y-59107544D01*
X145117455Y-59107547D01*
X145232664Y-59193793D01*
X145232671Y-59193797D01*
X145367516Y-59244091D01*
X145393419Y-59246875D01*
X145427127Y-59250500D01*
X145458478Y-59250499D01*
X145525516Y-59270182D01*
X145546161Y-59286818D01*
X147738392Y-61479048D01*
X147740928Y-61481742D01*
X147782071Y-61528183D01*
X147824782Y-61557664D01*
X147833115Y-61563416D01*
X147836120Y-61565626D01*
X147884944Y-61603878D01*
X147884946Y-61603879D01*
X147884949Y-61603881D01*
X147894177Y-61608034D01*
X147913731Y-61619062D01*
X147922066Y-61624816D01*
X147922068Y-61624816D01*
X147922070Y-61624818D01*
X147980079Y-61646817D01*
X147983476Y-61648224D01*
X148030770Y-61669509D01*
X148040064Y-61673693D01*
X148040065Y-61673693D01*
X148040069Y-61673695D01*
X148050034Y-61675521D01*
X148071656Y-61681548D01*
X148074777Y-61682731D01*
X148081128Y-61685140D01*
X148126251Y-61690618D01*
X148142674Y-61692613D01*
X148146371Y-61693175D01*
X148207394Y-61704358D01*
X148262752Y-61701009D01*
X148269303Y-61700613D01*
X148273048Y-61700500D01*
X150391844Y-61700500D01*
X150458883Y-61720185D01*
X150464729Y-61724182D01*
X150547265Y-61784148D01*
X150547270Y-61784151D01*
X150720192Y-61861142D01*
X150720197Y-61861144D01*
X150905354Y-61900500D01*
X150905355Y-61900500D01*
X151094644Y-61900500D01*
X151094646Y-61900500D01*
X151279803Y-61861144D01*
X151452730Y-61784151D01*
X151605871Y-61672888D01*
X151732533Y-61532216D01*
X151827179Y-61368284D01*
X151885674Y-61188256D01*
X151905460Y-61000000D01*
X151885674Y-60811744D01*
X151827179Y-60631716D01*
X151732533Y-60467784D01*
X151605871Y-60327112D01*
X151580726Y-60308843D01*
X151452734Y-60215851D01*
X151452729Y-60215848D01*
X151279807Y-60138857D01*
X151279802Y-60138855D01*
X151134001Y-60107865D01*
X151094646Y-60099500D01*
X150905354Y-60099500D01*
X150872897Y-60106398D01*
X150720197Y-60138855D01*
X150720192Y-60138857D01*
X150547270Y-60215848D01*
X150547265Y-60215851D01*
X150464729Y-60275818D01*
X150398923Y-60299298D01*
X150391844Y-60299500D01*
X148591518Y-60299500D01*
X148524479Y-60279815D01*
X148503837Y-60263181D01*
X147621149Y-59380492D01*
X147587664Y-59319169D01*
X147592648Y-59249477D01*
X147634520Y-59193544D01*
X147661388Y-59178246D01*
X147664337Y-59177024D01*
X147664341Y-59177023D01*
X147842494Y-59081798D01*
X147842497Y-59081794D01*
X147846546Y-59079631D01*
X147914949Y-59065389D01*
X147963454Y-59079631D01*
X147967502Y-59081794D01*
X147967506Y-59081798D01*
X148145659Y-59177023D01*
X148338967Y-59235662D01*
X148540000Y-59255462D01*
X148741033Y-59235662D01*
X148934341Y-59177023D01*
X149112494Y-59081798D01*
X149268647Y-58953647D01*
X149396798Y-58797494D01*
X149492023Y-58619341D01*
X149550662Y-58426033D01*
X149565500Y-58275380D01*
X149565500Y-57724620D01*
X149550662Y-57573967D01*
X149492023Y-57380659D01*
X149492021Y-57380656D01*
X149492021Y-57380654D01*
X149396801Y-57202511D01*
X149396799Y-57202509D01*
X149396798Y-57202506D01*
X149353763Y-57150068D01*
X149268647Y-57046352D01*
X149112495Y-56918203D01*
X149112488Y-56918198D01*
X148934345Y-56822978D01*
X148741031Y-56764337D01*
X148540000Y-56744538D01*
X148338968Y-56764337D01*
X148145654Y-56822978D01*
X147963453Y-56920367D01*
X147895050Y-56934609D01*
X147846547Y-56920367D01*
X147664345Y-56822978D01*
X147471031Y-56764337D01*
X147270000Y-56744538D01*
X147068968Y-56764337D01*
X146930959Y-56806202D01*
X146875659Y-56822977D01*
X146875658Y-56822977D01*
X146874575Y-56823306D01*
X146804708Y-56823929D01*
X146775618Y-56809529D01*
X146775114Y-56810454D01*
X146767328Y-56806202D01*
X146632482Y-56755908D01*
X146632483Y-56755908D01*
X146572883Y-56749501D01*
X146572881Y-56749500D01*
X146572873Y-56749500D01*
X146572864Y-56749500D01*
X145427129Y-56749500D01*
X145427123Y-56749501D01*
X145367516Y-56755908D01*
X145232671Y-56806202D01*
X145232664Y-56806206D01*
X145117455Y-56892452D01*
X145117452Y-56892455D01*
X145031206Y-57007664D01*
X145031202Y-57007671D01*
X144980908Y-57142517D01*
X144974501Y-57202116D01*
X144974500Y-57202135D01*
X144974500Y-58797870D01*
X140192786Y-58797870D01*
X144990654Y-54000001D01*
X152694532Y-54000001D01*
X152714364Y-54226686D01*
X152714366Y-54226697D01*
X152773258Y-54446488D01*
X152773261Y-54446497D01*
X152869431Y-54652732D01*
X152869432Y-54652734D01*
X152999954Y-54839141D01*
X153160858Y-55000045D01*
X153160861Y-55000047D01*
X153347266Y-55130568D01*
X153553504Y-55226739D01*
X153773308Y-55285635D01*
X153935230Y-55299801D01*
X153999998Y-55305468D01*
X154000000Y-55305468D01*
X154000002Y-55305468D01*
X154056673Y-55300509D01*
X154226692Y-55285635D01*
X154446496Y-55226739D01*
X154652734Y-55130568D01*
X154839139Y-55000047D01*
X155000047Y-54839139D01*
X155130568Y-54652734D01*
X155226739Y-54446496D01*
X155285635Y-54226692D01*
X155305468Y-54000000D01*
X155304724Y-53991501D01*
X155293357Y-53861575D01*
X155285635Y-53773308D01*
X155226739Y-53553504D01*
X155130568Y-53347266D01*
X155000047Y-53160861D01*
X155000045Y-53160858D01*
X154839141Y-52999954D01*
X154652734Y-52869432D01*
X154652732Y-52869431D01*
X154446497Y-52773261D01*
X154446488Y-52773258D01*
X154226697Y-52714366D01*
X154226693Y-52714365D01*
X154226692Y-52714365D01*
X154226691Y-52714364D01*
X154226686Y-52714364D01*
X154000002Y-52694532D01*
X153999998Y-52694532D01*
X153773313Y-52714364D01*
X153773302Y-52714366D01*
X153553511Y-52773258D01*
X153553502Y-52773261D01*
X153347267Y-52869431D01*
X153347265Y-52869432D01*
X153160858Y-52999954D01*
X152999954Y-53160858D01*
X152869432Y-53347265D01*
X152869431Y-53347267D01*
X152773261Y-53553502D01*
X152773258Y-53553511D01*
X152714366Y-53773302D01*
X152714364Y-53773313D01*
X152694532Y-53999998D01*
X152694532Y-54000001D01*
X144990654Y-54000001D01*
X148910655Y-50080000D01*
X156238676Y-50080000D01*
X156257534Y-50295549D01*
X156257536Y-50295559D01*
X156313534Y-50504550D01*
X156313538Y-50504559D01*
X156404981Y-50700661D01*
X156446496Y-50759950D01*
X157010941Y-50195505D01*
X157036497Y-50282541D01*
X157111524Y-50399286D01*
X157216404Y-50490164D01*
X157342638Y-50547813D01*
X157362835Y-50550717D01*
X156800048Y-51113502D01*
X156859340Y-51155019D01*
X157055440Y-51246461D01*
X157055449Y-51246465D01*
X157264440Y-51302463D01*
X157264450Y-51302465D01*
X157479999Y-51321324D01*
X157480001Y-51321324D01*
X157695549Y-51302465D01*
X157695559Y-51302463D01*
X157904550Y-51246465D01*
X157904559Y-51246461D01*
X158100663Y-51155017D01*
X158159950Y-51113502D01*
X157597164Y-50550716D01*
X157617362Y-50547813D01*
X157743596Y-50490164D01*
X157848476Y-50399286D01*
X157923503Y-50282541D01*
X157949058Y-50195505D01*
X158513502Y-50759949D01*
X158555017Y-50700663D01*
X158646461Y-50504559D01*
X158646465Y-50504550D01*
X158702463Y-50295559D01*
X158702465Y-50295549D01*
X158721324Y-50080000D01*
X158721324Y-50079999D01*
X158702465Y-49864450D01*
X158702463Y-49864440D01*
X158646465Y-49655449D01*
X158646461Y-49655440D01*
X158555019Y-49459340D01*
X158513502Y-49400048D01*
X157949058Y-49964493D01*
X157923503Y-49877459D01*
X157848476Y-49760714D01*
X157743596Y-49669836D01*
X157617362Y-49612187D01*
X157597164Y-49609283D01*
X158159950Y-49046496D01*
X158100661Y-49004981D01*
X157904559Y-48913538D01*
X157904550Y-48913534D01*
X157695559Y-48857536D01*
X157695549Y-48857534D01*
X157480001Y-48838676D01*
X157479999Y-48838676D01*
X157264450Y-48857534D01*
X157264440Y-48857536D01*
X157055449Y-48913534D01*
X157055440Y-48913538D01*
X156859339Y-49004981D01*
X156859337Y-49004982D01*
X156800049Y-49046496D01*
X156800048Y-49046496D01*
X157362835Y-49609282D01*
X157342638Y-49612187D01*
X157216404Y-49669836D01*
X157111524Y-49760714D01*
X157036497Y-49877459D01*
X157010941Y-49964493D01*
X156446496Y-49400048D01*
X156446496Y-49400049D01*
X156404982Y-49459337D01*
X156404981Y-49459339D01*
X156313538Y-49655440D01*
X156313534Y-49655449D01*
X156257536Y-49864440D01*
X156257534Y-49864450D01*
X156238676Y-50079999D01*
X156238676Y-50080000D01*
X148910655Y-50080000D01*
X149479056Y-49511599D01*
X149481748Y-49509065D01*
X149528183Y-49467929D01*
X149563417Y-49416883D01*
X149565620Y-49413887D01*
X149603878Y-49365056D01*
X149608037Y-49355813D01*
X149619061Y-49336268D01*
X149624818Y-49327930D01*
X149646810Y-49269939D01*
X149648232Y-49266503D01*
X149673695Y-49209931D01*
X149675522Y-49199959D01*
X149681546Y-49178347D01*
X149685140Y-49168872D01*
X149691425Y-49117104D01*
X149692613Y-49107324D01*
X149693177Y-49103619D01*
X149697664Y-49079131D01*
X149704358Y-49042606D01*
X149700613Y-48980696D01*
X149700500Y-48976951D01*
X149700500Y-47244500D01*
X149720185Y-47177461D01*
X149772989Y-47131706D01*
X149824500Y-47120500D01*
X149976048Y-47120500D01*
X149976049Y-47120500D01*
X150204981Y-47082298D01*
X150424503Y-47006936D01*
X150628626Y-46896470D01*
X150811784Y-46753913D01*
X150968979Y-46583153D01*
X151095924Y-46388849D01*
X151189157Y-46176300D01*
X151246134Y-45951305D01*
X151249681Y-45908498D01*
X151265300Y-45720006D01*
X151265300Y-45719993D01*
X151246135Y-45488702D01*
X151246133Y-45488691D01*
X151189157Y-45263699D01*
X151095924Y-45051151D01*
X151062506Y-45000000D01*
X156238676Y-45000000D01*
X156257534Y-45215549D01*
X156257536Y-45215559D01*
X156313534Y-45424550D01*
X156313538Y-45424559D01*
X156404981Y-45620661D01*
X156446496Y-45679950D01*
X157010941Y-45115505D01*
X157036497Y-45202541D01*
X157111524Y-45319286D01*
X157216404Y-45410164D01*
X157342638Y-45467813D01*
X157362835Y-45470717D01*
X156800048Y-46033502D01*
X156859340Y-46075019D01*
X157055440Y-46166461D01*
X157055449Y-46166465D01*
X157264440Y-46222463D01*
X157264450Y-46222465D01*
X157479999Y-46241324D01*
X157480001Y-46241324D01*
X157695549Y-46222465D01*
X157695559Y-46222463D01*
X157904550Y-46166465D01*
X157904559Y-46166461D01*
X158100663Y-46075017D01*
X158159949Y-46033502D01*
X157597164Y-45470716D01*
X157617362Y-45467813D01*
X157743596Y-45410164D01*
X157848476Y-45319286D01*
X157923503Y-45202541D01*
X157949058Y-45115505D01*
X158513502Y-45679949D01*
X158555017Y-45620663D01*
X158646461Y-45424559D01*
X158646465Y-45424550D01*
X158702463Y-45215559D01*
X158702465Y-45215549D01*
X158721324Y-45000000D01*
X161318676Y-45000000D01*
X161337534Y-45215549D01*
X161337536Y-45215559D01*
X161393534Y-45424550D01*
X161393538Y-45424559D01*
X161484981Y-45620661D01*
X161526496Y-45679950D01*
X162090941Y-45115505D01*
X162116497Y-45202541D01*
X162191524Y-45319286D01*
X162296404Y-45410164D01*
X162422638Y-45467813D01*
X162442835Y-45470717D01*
X161880048Y-46033502D01*
X161939340Y-46075019D01*
X162135440Y-46166461D01*
X162135449Y-46166465D01*
X162344440Y-46222463D01*
X162344450Y-46222465D01*
X162559999Y-46241324D01*
X162560001Y-46241324D01*
X162775549Y-46222465D01*
X162775559Y-46222463D01*
X162984550Y-46166465D01*
X162984559Y-46166461D01*
X163180663Y-46075017D01*
X163239949Y-46033502D01*
X162677164Y-45470716D01*
X162697362Y-45467813D01*
X162823596Y-45410164D01*
X162928476Y-45319286D01*
X163003503Y-45202541D01*
X163029058Y-45115505D01*
X163593502Y-45679949D01*
X163635017Y-45620663D01*
X163726461Y-45424559D01*
X163726465Y-45424550D01*
X163782463Y-45215559D01*
X163782465Y-45215549D01*
X163801324Y-45000000D01*
X163801324Y-44999999D01*
X163782465Y-44784450D01*
X163782463Y-44784440D01*
X163726465Y-44575449D01*
X163726461Y-44575440D01*
X163635019Y-44379340D01*
X163593502Y-44320048D01*
X163029058Y-44884493D01*
X163003503Y-44797459D01*
X162928476Y-44680714D01*
X162823596Y-44589836D01*
X162697362Y-44532187D01*
X162677164Y-44529283D01*
X163239950Y-43966496D01*
X163180661Y-43924981D01*
X162984559Y-43833538D01*
X162984550Y-43833534D01*
X162775559Y-43777536D01*
X162775549Y-43777534D01*
X162560001Y-43758676D01*
X162559999Y-43758676D01*
X162344450Y-43777534D01*
X162344440Y-43777536D01*
X162135449Y-43833534D01*
X162135440Y-43833538D01*
X161939339Y-43924981D01*
X161939337Y-43924982D01*
X161880049Y-43966496D01*
X161880048Y-43966496D01*
X162442835Y-44529282D01*
X162422638Y-44532187D01*
X162296404Y-44589836D01*
X162191524Y-44680714D01*
X162116497Y-44797459D01*
X162090941Y-44884493D01*
X161526496Y-44320048D01*
X161526496Y-44320049D01*
X161484982Y-44379337D01*
X161484981Y-44379339D01*
X161393538Y-44575440D01*
X161393534Y-44575449D01*
X161337536Y-44784440D01*
X161337534Y-44784450D01*
X161318676Y-44999999D01*
X161318676Y-45000000D01*
X158721324Y-45000000D01*
X158721324Y-44999999D01*
X158702465Y-44784450D01*
X158702463Y-44784440D01*
X158646465Y-44575449D01*
X158646461Y-44575440D01*
X158555019Y-44379340D01*
X158513502Y-44320048D01*
X157949058Y-44884493D01*
X157923503Y-44797459D01*
X157848476Y-44680714D01*
X157743596Y-44589836D01*
X157617362Y-44532187D01*
X157597164Y-44529283D01*
X158159950Y-43966496D01*
X158100661Y-43924981D01*
X157904559Y-43833538D01*
X157904550Y-43833534D01*
X157695559Y-43777536D01*
X157695549Y-43777534D01*
X157480001Y-43758676D01*
X157479999Y-43758676D01*
X157264450Y-43777534D01*
X157264440Y-43777536D01*
X157055449Y-43833534D01*
X157055440Y-43833538D01*
X156859339Y-43924981D01*
X156859337Y-43924982D01*
X156800049Y-43966496D01*
X156800048Y-43966496D01*
X157362835Y-44529282D01*
X157342638Y-44532187D01*
X157216404Y-44589836D01*
X157111524Y-44680714D01*
X157036497Y-44797459D01*
X157010941Y-44884493D01*
X156446496Y-44320048D01*
X156446496Y-44320049D01*
X156404982Y-44379337D01*
X156404981Y-44379339D01*
X156313538Y-44575440D01*
X156313534Y-44575449D01*
X156257536Y-44784440D01*
X156257534Y-44784450D01*
X156238676Y-44999999D01*
X156238676Y-45000000D01*
X151062506Y-45000000D01*
X150968983Y-44856852D01*
X150968980Y-44856849D01*
X150968979Y-44856847D01*
X150811784Y-44686087D01*
X150811779Y-44686083D01*
X150811777Y-44686081D01*
X150628634Y-44543535D01*
X150628628Y-44543531D01*
X150424504Y-44433064D01*
X150424495Y-44433061D01*
X150204984Y-44357702D01*
X150014450Y-44325908D01*
X149976049Y-44319500D01*
X149743951Y-44319500D01*
X149705550Y-44325908D01*
X149515015Y-44357702D01*
X149295504Y-44433061D01*
X149295495Y-44433064D01*
X149091371Y-44543531D01*
X149091365Y-44543535D01*
X148908222Y-44686081D01*
X148908218Y-44686085D01*
X148908216Y-44686086D01*
X148908216Y-44686087D01*
X148899870Y-44695154D01*
X148899866Y-44695158D01*
X148839979Y-44731148D01*
X148770141Y-44729047D01*
X148712525Y-44689522D01*
X148692455Y-44654507D01*
X148663797Y-44577671D01*
X148663793Y-44577664D01*
X148577547Y-44462455D01*
X148577544Y-44462452D01*
X148462335Y-44376206D01*
X148462328Y-44376202D01*
X148327482Y-44325908D01*
X148327483Y-44325908D01*
X148267883Y-44319501D01*
X148267881Y-44319500D01*
X148267873Y-44319500D01*
X148267864Y-44319500D01*
X146372129Y-44319500D01*
X146372123Y-44319501D01*
X146312516Y-44325908D01*
X146177671Y-44376202D01*
X146177664Y-44376206D01*
X146062455Y-44462452D01*
X146062452Y-44462455D01*
X145976206Y-44577664D01*
X145976203Y-44577670D01*
X145947544Y-44654508D01*
X145905672Y-44710441D01*
X145840208Y-44734858D01*
X145771935Y-44720006D01*
X145740135Y-44695158D01*
X145731784Y-44686087D01*
X145731778Y-44686082D01*
X145731777Y-44686081D01*
X145548634Y-44543535D01*
X145548628Y-44543531D01*
X145344504Y-44433064D01*
X145344495Y-44433061D01*
X145124984Y-44357702D01*
X144934450Y-44325908D01*
X144896049Y-44319500D01*
X144663951Y-44319500D01*
X144625550Y-44325908D01*
X144435015Y-44357702D01*
X144215504Y-44433061D01*
X144215495Y-44433064D01*
X144011371Y-44543531D01*
X144011365Y-44543535D01*
X143828222Y-44686081D01*
X143828218Y-44686085D01*
X143828216Y-44686086D01*
X143828216Y-44686087D01*
X143819870Y-44695154D01*
X143819866Y-44695158D01*
X143759979Y-44731148D01*
X143690141Y-44729047D01*
X143632525Y-44689522D01*
X143612455Y-44654507D01*
X143583797Y-44577671D01*
X143583793Y-44577664D01*
X143497547Y-44462455D01*
X143497544Y-44462452D01*
X143382335Y-44376206D01*
X143382328Y-44376202D01*
X143247482Y-44325908D01*
X143247483Y-44325908D01*
X143187883Y-44319501D01*
X143187881Y-44319500D01*
X143187873Y-44319500D01*
X143187864Y-44319500D01*
X141292129Y-44319500D01*
X141292123Y-44319501D01*
X141232516Y-44325908D01*
X141097671Y-44376202D01*
X141097664Y-44376206D01*
X140982455Y-44462452D01*
X140982452Y-44462455D01*
X140896206Y-44577664D01*
X140896203Y-44577670D01*
X140867544Y-44654508D01*
X140825672Y-44710441D01*
X140760208Y-44734858D01*
X140691935Y-44720006D01*
X140660135Y-44695158D01*
X140651784Y-44686087D01*
X140651778Y-44686082D01*
X140651777Y-44686081D01*
X140468634Y-44543535D01*
X140468628Y-44543531D01*
X140264504Y-44433064D01*
X140264495Y-44433061D01*
X140044984Y-44357702D01*
X139854450Y-44325908D01*
X139816049Y-44319500D01*
X139583951Y-44319500D01*
X139545550Y-44325908D01*
X139355015Y-44357702D01*
X139135504Y-44433061D01*
X139135495Y-44433064D01*
X138931371Y-44543531D01*
X138931365Y-44543535D01*
X138748222Y-44686081D01*
X138748218Y-44686085D01*
X138748216Y-44686086D01*
X138748216Y-44686087D01*
X138739870Y-44695154D01*
X138739866Y-44695158D01*
X138679979Y-44731148D01*
X138610141Y-44729047D01*
X138552525Y-44689522D01*
X138532455Y-44654507D01*
X138503797Y-44577671D01*
X138503793Y-44577664D01*
X138417547Y-44462455D01*
X138417544Y-44462452D01*
X138302335Y-44376206D01*
X138302328Y-44376202D01*
X138167482Y-44325908D01*
X138167483Y-44325908D01*
X138107883Y-44319501D01*
X138107881Y-44319500D01*
X138107873Y-44319500D01*
X138107864Y-44319500D01*
X136212129Y-44319500D01*
X136212123Y-44319501D01*
X136152516Y-44325908D01*
X136017671Y-44376202D01*
X136017664Y-44376206D01*
X135902455Y-44462452D01*
X135902452Y-44462455D01*
X135816206Y-44577664D01*
X135816202Y-44577671D01*
X135765908Y-44712517D01*
X135759501Y-44772116D01*
X135759500Y-44772135D01*
X135759500Y-46667870D01*
X135759501Y-46667876D01*
X135765908Y-46727483D01*
X135816202Y-46862328D01*
X135816206Y-46862335D01*
X135902452Y-46977544D01*
X135902455Y-46977547D01*
X136017664Y-47063793D01*
X136017671Y-47063797D01*
X136152517Y-47114091D01*
X136152516Y-47114091D01*
X136157753Y-47114654D01*
X136212127Y-47120500D01*
X138107872Y-47120499D01*
X138162245Y-47114654D01*
X138231004Y-47127059D01*
X138282142Y-47174669D01*
X138299500Y-47237943D01*
X138299500Y-50658480D01*
X138279815Y-50725519D01*
X138263181Y-50746161D01*
X133520966Y-55488375D01*
X133518240Y-55490942D01*
X133471818Y-55532068D01*
X133436586Y-55583109D01*
X133434368Y-55586124D01*
X133396124Y-55634939D01*
X133396119Y-55634948D01*
X133391960Y-55644188D01*
X133380942Y-55663723D01*
X133375187Y-55672061D01*
X133375183Y-55672067D01*
X133375182Y-55672070D01*
X133375180Y-55672074D01*
X133375179Y-55672077D01*
X133353189Y-55730055D01*
X133351757Y-55733513D01*
X133326305Y-55790068D01*
X133324477Y-55800042D01*
X133318453Y-55821653D01*
X133314860Y-55831127D01*
X133314859Y-55831128D01*
X133307384Y-55892685D01*
X133306821Y-55896386D01*
X133295642Y-55957390D01*
X133295642Y-55957395D01*
X133299387Y-56019302D01*
X133299500Y-56023047D01*
X133299500Y-78658481D01*
X133279815Y-78725520D01*
X133263181Y-78746162D01*
X132316162Y-79693181D01*
X132254839Y-79726666D01*
X132228481Y-79729500D01*
X131112711Y-79729500D01*
X131045672Y-79709815D01*
X131011136Y-79676623D01*
X130928494Y-79558597D01*
X130761402Y-79391506D01*
X130761396Y-79391501D01*
X130575842Y-79261575D01*
X130532217Y-79206998D01*
X130525023Y-79137500D01*
X130556546Y-79075145D01*
X130575842Y-79058425D01*
X130598438Y-79042603D01*
X130761401Y-78928495D01*
X130928495Y-78761401D01*
X131064035Y-78567830D01*
X131163903Y-78353663D01*
X131225063Y-78125408D01*
X131245659Y-77890000D01*
X131225063Y-77654592D01*
X131163903Y-77426337D01*
X131064035Y-77212171D01*
X130985842Y-77100500D01*
X130928496Y-77018600D01*
X130894044Y-76984148D01*
X130806567Y-76896671D01*
X130773084Y-76835351D01*
X130778068Y-76765659D01*
X130819939Y-76709725D01*
X130850915Y-76692810D01*
X130982331Y-76643796D01*
X131097546Y-76557546D01*
X131183796Y-76442331D01*
X131234091Y-76307483D01*
X131240500Y-76247873D01*
X131240499Y-74452128D01*
X131234091Y-74392517D01*
X131183796Y-74257669D01*
X131183795Y-74257668D01*
X131183793Y-74257664D01*
X131097547Y-74142455D01*
X131097544Y-74142452D01*
X130982335Y-74056206D01*
X130982328Y-74056202D01*
X130850917Y-74007189D01*
X130794983Y-73965318D01*
X130770566Y-73899853D01*
X130785418Y-73831580D01*
X130806563Y-73803332D01*
X130928495Y-73681401D01*
X131064035Y-73487830D01*
X131163903Y-73273663D01*
X131225063Y-73045408D01*
X131245659Y-72810000D01*
X131225063Y-72574592D01*
X131163903Y-72346337D01*
X131064035Y-72132171D01*
X131016061Y-72063656D01*
X130928494Y-71938597D01*
X130761402Y-71771506D01*
X130761396Y-71771501D01*
X130575842Y-71641575D01*
X130532217Y-71586998D01*
X130525023Y-71517500D01*
X130556546Y-71455145D01*
X130575842Y-71438425D01*
X130671923Y-71371148D01*
X130761401Y-71308495D01*
X130928495Y-71141401D01*
X131064035Y-70947830D01*
X131163903Y-70733663D01*
X131225063Y-70505408D01*
X131245659Y-70270000D01*
X131225063Y-70034592D01*
X131163903Y-69806337D01*
X131064035Y-69592171D01*
X131052857Y-69576206D01*
X130928494Y-69398597D01*
X130761402Y-69231506D01*
X130761396Y-69231501D01*
X130575842Y-69101575D01*
X130532217Y-69046998D01*
X130525023Y-68977500D01*
X130556546Y-68915145D01*
X130575842Y-68898425D01*
X130645087Y-68849939D01*
X130761401Y-68768495D01*
X130928495Y-68601401D01*
X131064035Y-68407830D01*
X131163903Y-68193663D01*
X131225063Y-67965408D01*
X131245659Y-67730000D01*
X131225063Y-67494592D01*
X131163903Y-67266337D01*
X131064035Y-67052171D01*
X130985843Y-66940500D01*
X130928494Y-66858597D01*
X130761402Y-66691506D01*
X130761396Y-66691501D01*
X130575842Y-66561575D01*
X130532217Y-66506998D01*
X130525023Y-66437500D01*
X130556546Y-66375145D01*
X130575842Y-66358425D01*
X130638602Y-66314480D01*
X130761401Y-66228495D01*
X130928495Y-66061401D01*
X131064035Y-65867830D01*
X131163903Y-65653663D01*
X131225063Y-65425408D01*
X131245659Y-65190000D01*
X131225063Y-64954592D01*
X131163903Y-64726337D01*
X131064035Y-64512171D01*
X130928495Y-64318599D01*
X130806567Y-64196671D01*
X130773084Y-64135351D01*
X130778068Y-64065659D01*
X130819939Y-64009725D01*
X130850915Y-63992810D01*
X130982331Y-63943796D01*
X131097546Y-63857546D01*
X131183796Y-63742331D01*
X131234091Y-63607483D01*
X131240500Y-63547873D01*
X131240499Y-61752128D01*
X131234091Y-61692517D01*
X131231339Y-61685139D01*
X131183797Y-61557671D01*
X131183793Y-61557664D01*
X131097547Y-61442455D01*
X131097544Y-61442452D01*
X130982335Y-61356206D01*
X130982328Y-61356202D01*
X130850917Y-61307189D01*
X130794983Y-61265318D01*
X130770566Y-61199853D01*
X130785418Y-61131580D01*
X130806563Y-61103332D01*
X130928495Y-60981401D01*
X131064035Y-60787830D01*
X131163903Y-60573663D01*
X131225063Y-60345408D01*
X131245659Y-60110000D01*
X131225063Y-59874592D01*
X131163903Y-59646337D01*
X131064035Y-59432171D01*
X131027850Y-59380492D01*
X130928494Y-59238597D01*
X130761402Y-59071506D01*
X130761396Y-59071501D01*
X130575842Y-58941575D01*
X130532217Y-58886998D01*
X130525023Y-58817500D01*
X130556546Y-58755145D01*
X130575842Y-58738425D01*
X130598026Y-58722891D01*
X130761401Y-58608495D01*
X130928495Y-58441401D01*
X131064035Y-58247830D01*
X131163903Y-58033663D01*
X131225063Y-57805408D01*
X131245659Y-57570000D01*
X131225063Y-57334592D01*
X131163903Y-57106337D01*
X131064035Y-56892171D01*
X131035167Y-56850942D01*
X130928494Y-56698597D01*
X130761402Y-56531506D01*
X130761396Y-56531501D01*
X130575842Y-56401575D01*
X130532217Y-56346998D01*
X130525023Y-56277500D01*
X130556546Y-56215145D01*
X130575842Y-56198425D01*
X130598026Y-56182891D01*
X130761401Y-56068495D01*
X130928495Y-55901401D01*
X131064035Y-55707830D01*
X131163903Y-55493663D01*
X131225063Y-55265408D01*
X131245659Y-55030000D01*
X131225063Y-54794592D01*
X131163903Y-54566337D01*
X131064035Y-54352171D01*
X130928495Y-54158599D01*
X130928494Y-54158597D01*
X130761402Y-53991506D01*
X130761396Y-53991501D01*
X130575842Y-53861575D01*
X130532217Y-53806998D01*
X130525023Y-53737500D01*
X130556546Y-53675145D01*
X130575842Y-53658425D01*
X130725687Y-53553502D01*
X130761401Y-53528495D01*
X130928495Y-53361401D01*
X131064035Y-53167830D01*
X131163903Y-52953663D01*
X131225063Y-52725408D01*
X131245659Y-52490000D01*
X131225063Y-52254592D01*
X131163903Y-52026337D01*
X131064035Y-51812171D01*
X131017814Y-51746161D01*
X130928496Y-51618600D01*
X130928495Y-51618599D01*
X130806567Y-51496671D01*
X130773084Y-51435351D01*
X130778068Y-51365659D01*
X130819939Y-51309725D01*
X130850915Y-51292810D01*
X130982331Y-51243796D01*
X131097546Y-51157546D01*
X131183796Y-51042331D01*
X131234091Y-50907483D01*
X131240500Y-50847873D01*
X131240499Y-49052128D01*
X131234091Y-48992517D01*
X131233748Y-48991598D01*
X131183797Y-48857671D01*
X131183793Y-48857664D01*
X131097547Y-48742455D01*
X131097544Y-48742452D01*
X130982335Y-48656206D01*
X130982328Y-48656202D01*
X130850917Y-48607189D01*
X130794983Y-48565318D01*
X130770566Y-48499853D01*
X130785418Y-48431580D01*
X130806563Y-48403332D01*
X130928495Y-48281401D01*
X131064035Y-48087830D01*
X131163903Y-47873663D01*
X131225063Y-47645408D01*
X131245659Y-47410000D01*
X131225063Y-47174592D01*
X131173155Y-46980868D01*
X131163905Y-46946344D01*
X131163904Y-46946343D01*
X131163903Y-46946337D01*
X131064035Y-46732171D01*
X131060753Y-46727483D01*
X130928494Y-46538597D01*
X130761402Y-46371506D01*
X130761396Y-46371501D01*
X130575842Y-46241575D01*
X130532217Y-46186998D01*
X130525023Y-46117500D01*
X130556546Y-46055145D01*
X130575842Y-46038425D01*
X130609650Y-46014752D01*
X130761401Y-45908495D01*
X130928495Y-45741401D01*
X131064035Y-45547830D01*
X131163903Y-45333663D01*
X131225063Y-45105408D01*
X131245659Y-44870000D01*
X131225063Y-44634592D01*
X131163903Y-44406337D01*
X131064035Y-44192171D01*
X131044456Y-44164208D01*
X130928494Y-43998597D01*
X130761402Y-43831506D01*
X130761395Y-43831501D01*
X130758297Y-43829332D01*
X130720040Y-43802544D01*
X130567834Y-43695967D01*
X130567830Y-43695965D01*
X130566908Y-43695535D01*
X130353663Y-43596097D01*
X130353659Y-43596096D01*
X130353655Y-43596094D01*
X130125413Y-43534938D01*
X130125403Y-43534936D01*
X129890001Y-43514341D01*
X129889999Y-43514341D01*
X129654596Y-43534936D01*
X129654586Y-43534938D01*
X129426344Y-43596094D01*
X129426335Y-43596098D01*
X129212171Y-43695964D01*
X129212169Y-43695965D01*
X129018597Y-43831505D01*
X128851505Y-43998597D01*
X128715965Y-44192169D01*
X128715964Y-44192171D01*
X128616098Y-44406335D01*
X128616094Y-44406344D01*
X128554938Y-44634586D01*
X128554936Y-44634596D01*
X128534341Y-44869999D01*
X128534341Y-44870000D01*
X128554936Y-45105403D01*
X128554938Y-45105413D01*
X128616094Y-45333655D01*
X128616096Y-45333659D01*
X128616097Y-45333663D01*
X128685548Y-45482600D01*
X128715965Y-45547830D01*
X128715967Y-45547834D01*
X128851501Y-45741395D01*
X128851506Y-45741402D01*
X129018597Y-45908493D01*
X129018603Y-45908498D01*
X129204158Y-46038425D01*
X129247783Y-46093002D01*
X129254977Y-46162500D01*
X129223454Y-46224855D01*
X129204158Y-46241575D01*
X129018597Y-46371505D01*
X128851505Y-46538597D01*
X128715965Y-46732169D01*
X128715964Y-46732171D01*
X128616098Y-46946335D01*
X128616094Y-46946344D01*
X128554938Y-47174586D01*
X128554936Y-47174596D01*
X128534341Y-47409999D01*
X128534341Y-47410000D01*
X128554936Y-47645403D01*
X128554938Y-47645413D01*
X128616094Y-47873655D01*
X128616096Y-47873659D01*
X128616097Y-47873663D01*
X128703295Y-48060660D01*
X128715965Y-48087830D01*
X128715967Y-48087834D01*
X128767136Y-48160910D01*
X128851501Y-48281396D01*
X128851506Y-48281402D01*
X128973430Y-48403326D01*
X129006915Y-48464649D01*
X129001931Y-48534341D01*
X128960059Y-48590274D01*
X128929083Y-48607189D01*
X128797669Y-48656203D01*
X128797664Y-48656206D01*
X128682455Y-48742452D01*
X128682452Y-48742455D01*
X128596206Y-48857664D01*
X128596202Y-48857671D01*
X128545908Y-48992517D01*
X128540184Y-49045765D01*
X128539501Y-49052123D01*
X128539500Y-49052135D01*
X128539500Y-50847870D01*
X128539501Y-50847876D01*
X128545908Y-50907483D01*
X128596202Y-51042328D01*
X128596206Y-51042335D01*
X128682452Y-51157544D01*
X128682455Y-51157547D01*
X128797664Y-51243793D01*
X128797671Y-51243797D01*
X128929081Y-51292810D01*
X128985015Y-51334681D01*
X129009432Y-51400145D01*
X128994580Y-51468418D01*
X128973430Y-51496673D01*
X128851503Y-51618600D01*
X128715965Y-51812169D01*
X128715964Y-51812171D01*
X128616098Y-52026335D01*
X128616094Y-52026344D01*
X128554938Y-52254586D01*
X128554936Y-52254596D01*
X128534341Y-52489999D01*
X128534341Y-52490000D01*
X128554936Y-52725403D01*
X128554938Y-52725413D01*
X128616094Y-52953655D01*
X128616096Y-52953659D01*
X128616097Y-52953663D01*
X128677882Y-53086161D01*
X128715965Y-53167830D01*
X128715967Y-53167834D01*
X128851501Y-53361395D01*
X128851506Y-53361402D01*
X129018597Y-53528493D01*
X129018603Y-53528498D01*
X129204158Y-53658425D01*
X129247783Y-53713002D01*
X129254977Y-53782500D01*
X129223454Y-53844855D01*
X129204158Y-53861575D01*
X129018597Y-53991505D01*
X128851505Y-54158597D01*
X128715965Y-54352169D01*
X128715964Y-54352171D01*
X128616098Y-54566335D01*
X128616094Y-54566344D01*
X128554938Y-54794586D01*
X128554936Y-54794596D01*
X128534341Y-55029999D01*
X128534341Y-55030000D01*
X128554936Y-55265403D01*
X128554938Y-55265413D01*
X128616094Y-55493655D01*
X128616096Y-55493659D01*
X128616097Y-55493663D01*
X128686288Y-55644188D01*
X128715965Y-55707830D01*
X128715967Y-55707834D01*
X128802299Y-55831128D01*
X128847993Y-55896386D01*
X128851501Y-55901395D01*
X128851506Y-55901402D01*
X129018597Y-56068493D01*
X129018603Y-56068498D01*
X129204158Y-56198425D01*
X129247783Y-56253002D01*
X129254977Y-56322500D01*
X129223454Y-56384855D01*
X129204158Y-56401575D01*
X129018597Y-56531505D01*
X128851505Y-56698597D01*
X128715965Y-56892169D01*
X128715964Y-56892171D01*
X128616098Y-57106335D01*
X128616094Y-57106344D01*
X128554938Y-57334586D01*
X128554936Y-57334596D01*
X128534341Y-57569999D01*
X128534341Y-57570000D01*
X128554936Y-57805403D01*
X128554938Y-57805413D01*
X128616094Y-58033655D01*
X128616096Y-58033659D01*
X128616097Y-58033663D01*
X128715965Y-58247830D01*
X128715967Y-58247834D01*
X128851501Y-58441395D01*
X128851506Y-58441402D01*
X129018597Y-58608493D01*
X129018603Y-58608498D01*
X129204158Y-58738425D01*
X129247783Y-58793002D01*
X129254977Y-58862500D01*
X129223454Y-58924855D01*
X129204158Y-58941575D01*
X129018597Y-59071505D01*
X128851505Y-59238597D01*
X128715965Y-59432169D01*
X128715964Y-59432171D01*
X128616098Y-59646335D01*
X128616094Y-59646344D01*
X128554938Y-59874586D01*
X128554936Y-59874596D01*
X128534341Y-60109999D01*
X128534341Y-60110000D01*
X128554936Y-60345403D01*
X128554938Y-60345413D01*
X128616094Y-60573655D01*
X128616096Y-60573659D01*
X128616097Y-60573663D01*
X128667839Y-60684623D01*
X128715965Y-60787830D01*
X128715967Y-60787834D01*
X128824281Y-60942521D01*
X128851501Y-60981396D01*
X128851506Y-60981402D01*
X128973430Y-61103326D01*
X129006915Y-61164649D01*
X129001931Y-61234341D01*
X128960059Y-61290274D01*
X128929083Y-61307189D01*
X128797669Y-61356203D01*
X128797664Y-61356206D01*
X128682455Y-61442452D01*
X128682452Y-61442455D01*
X128596206Y-61557664D01*
X128596202Y-61557671D01*
X128545908Y-61692517D01*
X128539501Y-61752116D01*
X128539501Y-61752123D01*
X128539500Y-61752135D01*
X128539500Y-63547870D01*
X128539501Y-63547876D01*
X128545908Y-63607483D01*
X128596202Y-63742328D01*
X128596206Y-63742335D01*
X128682452Y-63857544D01*
X128682455Y-63857547D01*
X128797664Y-63943793D01*
X128797671Y-63943797D01*
X128929081Y-63992810D01*
X128985015Y-64034681D01*
X129009432Y-64100145D01*
X128994580Y-64168418D01*
X128973430Y-64196673D01*
X128851503Y-64318600D01*
X128715965Y-64512169D01*
X128715964Y-64512171D01*
X128616098Y-64726335D01*
X128616094Y-64726344D01*
X128554938Y-64954586D01*
X128554936Y-64954596D01*
X128534341Y-65189999D01*
X128534341Y-65190000D01*
X128554936Y-65425403D01*
X128554938Y-65425413D01*
X128616094Y-65653655D01*
X128616096Y-65653659D01*
X128616097Y-65653663D01*
X128643329Y-65712061D01*
X128715965Y-65867830D01*
X128715967Y-65867834D01*
X128851501Y-66061395D01*
X128851506Y-66061402D01*
X129018597Y-66228493D01*
X129018603Y-66228498D01*
X129204158Y-66358425D01*
X129247783Y-66413002D01*
X129254977Y-66482500D01*
X129223454Y-66544855D01*
X129204158Y-66561575D01*
X129018597Y-66691505D01*
X128851505Y-66858597D01*
X128715965Y-67052169D01*
X128715964Y-67052171D01*
X128616098Y-67266335D01*
X128616094Y-67266344D01*
X128554938Y-67494586D01*
X128554936Y-67494596D01*
X128534341Y-67729999D01*
X128534341Y-67730000D01*
X128554936Y-67965403D01*
X128554938Y-67965413D01*
X128616094Y-68193655D01*
X128616096Y-68193659D01*
X128616097Y-68193663D01*
X128677882Y-68326161D01*
X128715965Y-68407830D01*
X128715967Y-68407834D01*
X128851501Y-68601395D01*
X128851506Y-68601402D01*
X129018597Y-68768493D01*
X129018603Y-68768498D01*
X129204158Y-68898425D01*
X129247783Y-68953002D01*
X129254977Y-69022500D01*
X129223454Y-69084855D01*
X129204158Y-69101575D01*
X129018597Y-69231505D01*
X128851505Y-69398597D01*
X128715965Y-69592169D01*
X128715964Y-69592171D01*
X128616098Y-69806335D01*
X128616094Y-69806344D01*
X128554938Y-70034586D01*
X128554936Y-70034596D01*
X128534341Y-70269999D01*
X128534341Y-70270000D01*
X128554936Y-70505403D01*
X128554938Y-70505413D01*
X128616094Y-70733655D01*
X128616096Y-70733659D01*
X128616097Y-70733663D01*
X128679135Y-70868848D01*
X128715965Y-70947830D01*
X128715967Y-70947834D01*
X128851501Y-71141395D01*
X128851506Y-71141402D01*
X129018597Y-71308493D01*
X129018603Y-71308498D01*
X129204158Y-71438425D01*
X129247783Y-71493002D01*
X129254977Y-71562500D01*
X129223454Y-71624855D01*
X129204158Y-71641575D01*
X129018597Y-71771505D01*
X128851505Y-71938597D01*
X128715965Y-72132169D01*
X128715964Y-72132171D01*
X128616098Y-72346335D01*
X128616094Y-72346344D01*
X128554938Y-72574586D01*
X128554936Y-72574596D01*
X128534341Y-72809999D01*
X128534341Y-72810000D01*
X128554936Y-73045403D01*
X128554938Y-73045413D01*
X128616094Y-73273655D01*
X128616096Y-73273659D01*
X128616097Y-73273663D01*
X128708462Y-73471740D01*
X128715965Y-73487830D01*
X128715967Y-73487834D01*
X128820381Y-73636951D01*
X128851501Y-73681396D01*
X128851506Y-73681402D01*
X128973430Y-73803326D01*
X129006915Y-73864649D01*
X129001931Y-73934341D01*
X128960059Y-73990274D01*
X128929083Y-74007189D01*
X128797669Y-74056203D01*
X128797664Y-74056206D01*
X128682455Y-74142452D01*
X128682452Y-74142455D01*
X128596206Y-74257664D01*
X128596202Y-74257671D01*
X128545908Y-74392517D01*
X128539501Y-74452116D01*
X128539501Y-74452123D01*
X128539500Y-74452135D01*
X128539500Y-76247870D01*
X128539501Y-76247876D01*
X128545908Y-76307483D01*
X128596202Y-76442328D01*
X128596206Y-76442335D01*
X128682452Y-76557544D01*
X128682455Y-76557547D01*
X128797664Y-76643793D01*
X128797671Y-76643797D01*
X128929081Y-76692810D01*
X128985015Y-76734681D01*
X129009432Y-76800145D01*
X128994580Y-76868418D01*
X128973430Y-76896673D01*
X128851503Y-77018600D01*
X128715965Y-77212169D01*
X128715964Y-77212171D01*
X128616098Y-77426335D01*
X128616094Y-77426344D01*
X128554938Y-77654586D01*
X128554936Y-77654596D01*
X128534341Y-77889999D01*
X128534341Y-77890000D01*
X128554936Y-78125403D01*
X128554938Y-78125413D01*
X128616094Y-78353655D01*
X128616096Y-78353659D01*
X128616097Y-78353663D01*
X128700530Y-78534730D01*
X128715965Y-78567830D01*
X128715967Y-78567834D01*
X128851501Y-78761395D01*
X128851506Y-78761402D01*
X129018597Y-78928493D01*
X129018603Y-78928498D01*
X129204158Y-79058425D01*
X129247783Y-79113002D01*
X129254977Y-79182500D01*
X129223454Y-79244855D01*
X129204158Y-79261575D01*
X129018597Y-79391505D01*
X128851505Y-79558597D01*
X128715965Y-79752169D01*
X128715964Y-79752171D01*
X128616098Y-79966335D01*
X128616094Y-79966344D01*
X128554938Y-80194586D01*
X128554936Y-80194596D01*
X128534341Y-80429999D01*
X128534341Y-80430000D01*
X128554936Y-80665403D01*
X128554938Y-80665413D01*
X128616094Y-80893655D01*
X128616096Y-80893659D01*
X128616097Y-80893663D01*
X128663107Y-80994476D01*
X128715965Y-81107830D01*
X128715967Y-81107834D01*
X128851501Y-81301395D01*
X128851506Y-81301402D01*
X129018597Y-81468493D01*
X129018603Y-81468498D01*
X129204158Y-81598425D01*
X129247783Y-81653002D01*
X129254977Y-81722500D01*
X129223454Y-81784855D01*
X129204158Y-81801575D01*
X129018597Y-81931505D01*
X128851505Y-82098597D01*
X128715965Y-82292169D01*
X128715964Y-82292171D01*
X128616098Y-82506335D01*
X128616094Y-82506344D01*
X128554938Y-82734586D01*
X128554936Y-82734596D01*
X128534341Y-82969999D01*
X128534341Y-82970000D01*
X128554936Y-83205403D01*
X128554938Y-83205413D01*
X128616094Y-83433655D01*
X128616096Y-83433659D01*
X128616097Y-83433663D01*
X128658825Y-83525293D01*
X128715965Y-83647830D01*
X128715967Y-83647834D01*
X128851501Y-83841395D01*
X128851506Y-83841402D01*
X129018597Y-84008493D01*
X129018603Y-84008498D01*
X129204158Y-84138425D01*
X129247783Y-84193002D01*
X129254977Y-84262500D01*
X129223454Y-84324855D01*
X129204158Y-84341575D01*
X129018597Y-84471505D01*
X128851505Y-84638597D01*
X128715965Y-84832169D01*
X128715964Y-84832171D01*
X128616098Y-85046335D01*
X128616094Y-85046344D01*
X128554938Y-85274586D01*
X128554936Y-85274596D01*
X128534341Y-85509999D01*
X128534341Y-85510000D01*
X128554936Y-85745403D01*
X128554938Y-85745413D01*
X128616094Y-85973655D01*
X128616096Y-85973659D01*
X128616097Y-85973663D01*
X128663107Y-86074476D01*
X128715965Y-86187830D01*
X128715967Y-86187834D01*
X128824281Y-86342521D01*
X128851501Y-86381396D01*
X128851506Y-86381402D01*
X128973818Y-86503714D01*
X129007303Y-86565037D01*
X129002319Y-86634729D01*
X128960447Y-86690662D01*
X128929471Y-86707577D01*
X128797912Y-86756646D01*
X128797906Y-86756649D01*
X128682812Y-86842809D01*
X128682809Y-86842812D01*
X128596649Y-86957906D01*
X128596645Y-86957913D01*
X128546403Y-87092620D01*
X128546401Y-87092627D01*
X128540000Y-87152155D01*
X128540000Y-87800000D01*
X129444428Y-87800000D01*
X129421318Y-87835960D01*
X129380000Y-87976673D01*
X129380000Y-88123327D01*
X129421318Y-88264040D01*
X129444428Y-88300000D01*
X128540000Y-88300000D01*
X128540000Y-88947844D01*
X128546401Y-89007372D01*
X128546403Y-89007379D01*
X128596645Y-89142086D01*
X128596649Y-89142093D01*
X128682809Y-89257187D01*
X128682812Y-89257190D01*
X128797906Y-89343350D01*
X128797913Y-89343354D01*
X128929470Y-89392421D01*
X128985403Y-89434292D01*
X129009821Y-89499756D01*
X128994970Y-89568029D01*
X128973819Y-89596284D01*
X128851503Y-89718600D01*
X128715965Y-89912169D01*
X128715964Y-89912171D01*
X128616098Y-90126335D01*
X128616094Y-90126344D01*
X128554938Y-90354586D01*
X128554936Y-90354596D01*
X128534341Y-90589999D01*
X128534341Y-90590000D01*
X128554936Y-90825403D01*
X128554938Y-90825413D01*
X128616094Y-91053655D01*
X128616096Y-91053659D01*
X128616097Y-91053663D01*
X128715965Y-91267830D01*
X128715967Y-91267834D01*
X128851501Y-91461395D01*
X128851506Y-91461402D01*
X129018597Y-91628493D01*
X129018603Y-91628498D01*
X129204158Y-91758425D01*
X129247783Y-91813002D01*
X129254977Y-91882500D01*
X129223454Y-91944855D01*
X129204158Y-91961575D01*
X129018597Y-92091505D01*
X128851505Y-92258597D01*
X128715965Y-92452169D01*
X128715964Y-92452171D01*
X128616098Y-92666335D01*
X128616094Y-92666344D01*
X128554938Y-92894586D01*
X128554936Y-92894596D01*
X128534341Y-93129999D01*
X128534341Y-93130000D01*
X124875536Y-93130000D01*
X124895659Y-92900000D01*
X124875063Y-92664592D01*
X124813903Y-92436337D01*
X124714035Y-92222171D01*
X124644502Y-92122866D01*
X124578494Y-92028597D01*
X124411402Y-91861506D01*
X124411395Y-91861501D01*
X124409251Y-91860000D01*
X124334518Y-91807671D01*
X124217834Y-91725967D01*
X124217830Y-91725965D01*
X124217828Y-91725964D01*
X124003663Y-91626097D01*
X124003659Y-91626096D01*
X124003655Y-91626094D01*
X123775413Y-91564938D01*
X123775403Y-91564936D01*
X123540001Y-91544341D01*
X123539999Y-91544341D01*
X123304596Y-91564936D01*
X123304586Y-91564938D01*
X123076344Y-91626094D01*
X123076335Y-91626098D01*
X122862171Y-91725964D01*
X122862169Y-91725965D01*
X122668600Y-91861503D01*
X122546673Y-91983430D01*
X122485350Y-92016914D01*
X122415658Y-92011930D01*
X122359725Y-91970058D01*
X122342810Y-91939081D01*
X122293797Y-91807671D01*
X122293793Y-91807664D01*
X122207547Y-91692455D01*
X122207544Y-91692452D01*
X122092335Y-91606206D01*
X122092328Y-91606202D01*
X121957482Y-91555908D01*
X121957483Y-91555908D01*
X121897883Y-91549501D01*
X121897881Y-91549500D01*
X121897873Y-91549500D01*
X121897864Y-91549500D01*
X120102129Y-91549500D01*
X120102123Y-91549501D01*
X120042516Y-91555908D01*
X119907671Y-91606202D01*
X119907664Y-91606206D01*
X119792455Y-91692452D01*
X119792452Y-91692455D01*
X119706206Y-91807664D01*
X119706203Y-91807669D01*
X119657189Y-91939083D01*
X119615317Y-91995016D01*
X119549853Y-92019433D01*
X119481580Y-92004581D01*
X119453326Y-91983430D01*
X119331402Y-91861506D01*
X119331395Y-91861501D01*
X119329251Y-91860000D01*
X119254518Y-91807671D01*
X119137834Y-91725967D01*
X119137830Y-91725965D01*
X119137828Y-91725964D01*
X118923663Y-91626097D01*
X118923659Y-91626096D01*
X118923655Y-91626094D01*
X118695413Y-91564938D01*
X118695403Y-91564936D01*
X118460001Y-91544341D01*
X118459999Y-91544341D01*
X118224596Y-91564936D01*
X118224586Y-91564938D01*
X117996344Y-91626094D01*
X117996335Y-91626098D01*
X117782171Y-91725964D01*
X117782169Y-91725965D01*
X117588597Y-91861505D01*
X117421505Y-92028597D01*
X117285965Y-92222169D01*
X117285964Y-92222171D01*
X117186098Y-92436335D01*
X117186094Y-92436344D01*
X117124938Y-92664586D01*
X117124936Y-92664596D01*
X117104341Y-92899999D01*
X117104341Y-92900000D01*
X113445536Y-92900000D01*
X113445063Y-92894592D01*
X113383903Y-92666337D01*
X113284035Y-92452171D01*
X113192203Y-92321020D01*
X113148494Y-92258597D01*
X112981402Y-92091506D01*
X112981396Y-92091501D01*
X112795842Y-91961575D01*
X112752217Y-91906998D01*
X112745023Y-91837500D01*
X112776546Y-91775145D01*
X112795842Y-91758425D01*
X112842197Y-91725967D01*
X112981401Y-91628495D01*
X113148495Y-91461401D01*
X113284035Y-91267830D01*
X113383903Y-91053663D01*
X113445063Y-90825408D01*
X113465659Y-90590000D01*
X113445063Y-90354592D01*
X113383903Y-90126337D01*
X113284035Y-89912171D01*
X113148495Y-89718599D01*
X113026567Y-89596671D01*
X112993084Y-89535351D01*
X112998068Y-89465659D01*
X113039939Y-89409725D01*
X113070915Y-89392810D01*
X113202331Y-89343796D01*
X113317546Y-89257546D01*
X113403796Y-89142331D01*
X113454091Y-89007483D01*
X113460500Y-88947873D01*
X113460499Y-87152128D01*
X113454091Y-87092517D01*
X113450982Y-87084182D01*
X113403797Y-86957671D01*
X113403793Y-86957664D01*
X113317547Y-86842455D01*
X113317544Y-86842452D01*
X113202335Y-86756206D01*
X113202328Y-86756202D01*
X113070917Y-86707189D01*
X113014983Y-86665318D01*
X112990566Y-86599853D01*
X113005418Y-86531580D01*
X113026563Y-86503332D01*
X113148495Y-86381401D01*
X113284035Y-86187830D01*
X113383903Y-85973663D01*
X113445063Y-85745408D01*
X113465659Y-85510000D01*
X113445063Y-85274592D01*
X113383903Y-85046337D01*
X113284035Y-84832171D01*
X113266177Y-84806666D01*
X113148494Y-84638597D01*
X112981402Y-84471506D01*
X112981396Y-84471501D01*
X112795842Y-84341575D01*
X112752217Y-84286998D01*
X112745023Y-84217500D01*
X112776546Y-84155145D01*
X112795842Y-84138425D01*
X112818026Y-84122891D01*
X112981401Y-84008495D01*
X113148495Y-83841401D01*
X113284035Y-83647830D01*
X113383903Y-83433663D01*
X113445063Y-83205408D01*
X113465659Y-82970000D01*
X113445063Y-82734592D01*
X113383903Y-82506337D01*
X113284035Y-82292171D01*
X113268471Y-82269942D01*
X113148494Y-82098597D01*
X112981402Y-81931506D01*
X112981396Y-81931501D01*
X112795842Y-81801575D01*
X112752217Y-81746998D01*
X112745023Y-81677500D01*
X112776546Y-81615145D01*
X112795842Y-81598425D01*
X112818026Y-81582891D01*
X112981401Y-81468495D01*
X113148495Y-81301401D01*
X113284035Y-81107830D01*
X113383903Y-80893663D01*
X113445063Y-80665408D01*
X113465659Y-80430000D01*
X113445063Y-80194592D01*
X113383903Y-79966337D01*
X113284035Y-79752171D01*
X113266177Y-79726666D01*
X113148494Y-79558597D01*
X112981402Y-79391506D01*
X112981396Y-79391501D01*
X112795842Y-79261575D01*
X112752217Y-79206998D01*
X112745023Y-79137500D01*
X112776546Y-79075145D01*
X112795842Y-79058425D01*
X112818438Y-79042603D01*
X112981401Y-78928495D01*
X113148495Y-78761401D01*
X113284035Y-78567830D01*
X113383903Y-78353663D01*
X113445063Y-78125408D01*
X113465659Y-77890000D01*
X113445063Y-77654592D01*
X113383903Y-77426337D01*
X113284035Y-77212171D01*
X113205842Y-77100500D01*
X113148496Y-77018600D01*
X113114044Y-76984148D01*
X113026567Y-76896671D01*
X112993084Y-76835351D01*
X112998068Y-76765659D01*
X113039939Y-76709725D01*
X113070915Y-76692810D01*
X113202331Y-76643796D01*
X113317546Y-76557546D01*
X113403796Y-76442331D01*
X113454091Y-76307483D01*
X113460500Y-76247873D01*
X113460499Y-74452128D01*
X113454091Y-74392517D01*
X113403796Y-74257669D01*
X113403795Y-74257668D01*
X113403793Y-74257664D01*
X113317547Y-74142455D01*
X113317544Y-74142452D01*
X113202335Y-74056206D01*
X113202328Y-74056202D01*
X113070917Y-74007189D01*
X113014983Y-73965318D01*
X112990566Y-73899853D01*
X113005418Y-73831580D01*
X113026563Y-73803332D01*
X113148495Y-73681401D01*
X113284035Y-73487830D01*
X113383903Y-73273663D01*
X113445063Y-73045408D01*
X113465659Y-72810000D01*
X113445063Y-72574592D01*
X113383903Y-72346337D01*
X113284035Y-72132171D01*
X113236061Y-72063656D01*
X113148494Y-71938597D01*
X112981402Y-71771506D01*
X112981396Y-71771501D01*
X112795842Y-71641575D01*
X112752217Y-71586998D01*
X112745023Y-71517500D01*
X112776546Y-71455145D01*
X112795842Y-71438425D01*
X112891923Y-71371148D01*
X112981401Y-71308495D01*
X113148495Y-71141401D01*
X113284035Y-70947830D01*
X113383903Y-70733663D01*
X113445063Y-70505408D01*
X113465659Y-70270000D01*
X113445063Y-70034592D01*
X113383903Y-69806337D01*
X113284035Y-69592171D01*
X113272857Y-69576206D01*
X113148494Y-69398597D01*
X112981402Y-69231506D01*
X112981396Y-69231501D01*
X112795842Y-69101575D01*
X112752217Y-69046998D01*
X112745023Y-68977500D01*
X112776546Y-68915145D01*
X112795842Y-68898425D01*
X112865087Y-68849939D01*
X112981401Y-68768495D01*
X113148495Y-68601401D01*
X113284035Y-68407830D01*
X113383903Y-68193663D01*
X113445063Y-67965408D01*
X113465659Y-67730000D01*
X113445063Y-67494592D01*
X113383903Y-67266337D01*
X113284035Y-67052171D01*
X113205843Y-66940500D01*
X113148494Y-66858597D01*
X112981402Y-66691506D01*
X112981396Y-66691501D01*
X112795842Y-66561575D01*
X112752217Y-66506998D01*
X112745023Y-66437500D01*
X112776546Y-66375145D01*
X112795842Y-66358425D01*
X112858602Y-66314480D01*
X112981401Y-66228495D01*
X113148495Y-66061401D01*
X113284035Y-65867830D01*
X113383903Y-65653663D01*
X113445063Y-65425408D01*
X113465659Y-65190000D01*
X113445063Y-64954592D01*
X113383903Y-64726337D01*
X113284035Y-64512171D01*
X113148495Y-64318599D01*
X113026567Y-64196671D01*
X112993084Y-64135351D01*
X112998068Y-64065659D01*
X113039939Y-64009725D01*
X113070915Y-63992810D01*
X113202331Y-63943796D01*
X113317546Y-63857546D01*
X113403796Y-63742331D01*
X113454091Y-63607483D01*
X113460500Y-63547873D01*
X113460499Y-61752128D01*
X113454091Y-61692517D01*
X113451339Y-61685139D01*
X113403797Y-61557671D01*
X113403793Y-61557664D01*
X113317547Y-61442455D01*
X113317544Y-61442452D01*
X113202335Y-61356206D01*
X113202328Y-61356202D01*
X113070917Y-61307189D01*
X113014983Y-61265318D01*
X112990566Y-61199853D01*
X113005418Y-61131580D01*
X113026563Y-61103332D01*
X113148495Y-60981401D01*
X113284035Y-60787830D01*
X113383903Y-60573663D01*
X113445063Y-60345408D01*
X113465659Y-60110000D01*
X113445063Y-59874592D01*
X113383903Y-59646337D01*
X113284035Y-59432171D01*
X113247850Y-59380492D01*
X113148494Y-59238597D01*
X112981402Y-59071506D01*
X112981396Y-59071501D01*
X112795842Y-58941575D01*
X112752217Y-58886998D01*
X112745023Y-58817500D01*
X112776546Y-58755145D01*
X112795842Y-58738425D01*
X112818026Y-58722891D01*
X112981401Y-58608495D01*
X113148495Y-58441401D01*
X113284035Y-58247830D01*
X113383903Y-58033663D01*
X113445063Y-57805408D01*
X113465659Y-57570000D01*
X113445063Y-57334592D01*
X113383903Y-57106337D01*
X113284035Y-56892171D01*
X113255167Y-56850942D01*
X113148494Y-56698597D01*
X112981402Y-56531506D01*
X112981396Y-56531501D01*
X112795842Y-56401575D01*
X112752217Y-56346998D01*
X112745023Y-56277500D01*
X112776546Y-56215145D01*
X112795842Y-56198425D01*
X112818026Y-56182891D01*
X112981401Y-56068495D01*
X113148495Y-55901401D01*
X113284035Y-55707830D01*
X113383903Y-55493663D01*
X113445063Y-55265408D01*
X113465659Y-55030000D01*
X113445063Y-54794592D01*
X113383903Y-54566337D01*
X113284035Y-54352171D01*
X113148495Y-54158599D01*
X113148494Y-54158597D01*
X112981402Y-53991506D01*
X112981396Y-53991501D01*
X112795842Y-53861575D01*
X112752217Y-53806998D01*
X112745023Y-53737500D01*
X112776546Y-53675145D01*
X112795842Y-53658425D01*
X112945687Y-53553502D01*
X112981401Y-53528495D01*
X113148495Y-53361401D01*
X113284035Y-53167830D01*
X113383903Y-52953663D01*
X113445063Y-52725408D01*
X113465659Y-52490000D01*
X113445063Y-52254592D01*
X113383903Y-52026337D01*
X113284035Y-51812171D01*
X113237814Y-51746161D01*
X113148496Y-51618600D01*
X113148495Y-51618599D01*
X113026567Y-51496671D01*
X112993084Y-51435351D01*
X112998068Y-51365659D01*
X113039939Y-51309725D01*
X113070915Y-51292810D01*
X113202331Y-51243796D01*
X113317546Y-51157546D01*
X113403796Y-51042331D01*
X113454091Y-50907483D01*
X113460500Y-50847873D01*
X113460499Y-49052128D01*
X113454091Y-48992517D01*
X113453748Y-48991598D01*
X113403797Y-48857671D01*
X113403793Y-48857664D01*
X113317547Y-48742455D01*
X113317544Y-48742452D01*
X113202335Y-48656206D01*
X113202328Y-48656202D01*
X113070917Y-48607189D01*
X113014983Y-48565318D01*
X112990566Y-48499853D01*
X113005418Y-48431580D01*
X113026563Y-48403332D01*
X113148495Y-48281401D01*
X113284035Y-48087830D01*
X113311000Y-48030003D01*
X117319723Y-48030003D01*
X117321688Y-48052470D01*
X117321862Y-48060660D01*
X117320709Y-48086324D01*
X117320710Y-48086328D01*
X117331641Y-48167031D01*
X117331966Y-48169949D01*
X117338792Y-48247972D01*
X117338795Y-48247987D01*
X117345482Y-48272941D01*
X117347034Y-48280670D01*
X117350924Y-48309381D01*
X117350926Y-48309392D01*
X117375075Y-48383713D01*
X117375997Y-48386825D01*
X117395423Y-48459324D01*
X117395427Y-48459336D01*
X117407736Y-48485732D01*
X117410512Y-48492779D01*
X117420483Y-48523464D01*
X117455970Y-48589411D01*
X117457558Y-48592576D01*
X117487898Y-48657639D01*
X117488488Y-48658481D01*
X117506490Y-48684191D01*
X117510303Y-48690378D01*
X117527146Y-48721678D01*
X117527152Y-48721687D01*
X117571792Y-48777663D01*
X117574106Y-48780758D01*
X117600510Y-48818465D01*
X117613402Y-48836877D01*
X117613405Y-48836880D01*
X117638646Y-48862121D01*
X117643283Y-48867309D01*
X117667492Y-48897666D01*
X117718959Y-48942632D01*
X117722008Y-48945483D01*
X117768116Y-48991592D01*
X117768122Y-48991597D01*
X117768123Y-48991598D01*
X117769434Y-48992516D01*
X117800055Y-49013957D01*
X117805290Y-49018057D01*
X117837004Y-49045765D01*
X117837013Y-49045771D01*
X117892849Y-49079131D01*
X117896613Y-49081568D01*
X117947359Y-49117101D01*
X117947364Y-49117104D01*
X117969917Y-49127620D01*
X117985677Y-49134969D01*
X117991271Y-49137935D01*
X118028349Y-49160088D01*
X118030236Y-49161215D01*
X118048828Y-49168192D01*
X118088083Y-49182925D01*
X118092503Y-49184782D01*
X118145670Y-49209575D01*
X118145674Y-49209577D01*
X118176069Y-49217720D01*
X118189677Y-49221366D01*
X118195413Y-49223207D01*
X118212264Y-49229531D01*
X118240976Y-49240307D01*
X118298545Y-49250754D01*
X118303511Y-49251868D01*
X118357023Y-49266207D01*
X118405689Y-49270464D01*
X118411306Y-49271218D01*
X118462453Y-49280500D01*
X118517691Y-49280500D01*
X118523092Y-49280735D01*
X118551548Y-49283225D01*
X118574998Y-49285277D01*
X118575000Y-49285277D01*
X118627992Y-49280640D01*
X118631121Y-49280500D01*
X118631155Y-49280500D01*
X118685172Y-49275638D01*
X118792977Y-49266207D01*
X118793000Y-49266200D01*
X118793475Y-49266117D01*
X118798713Y-49265419D01*
X118799188Y-49265377D01*
X118902997Y-49236726D01*
X119004330Y-49209575D01*
X119004337Y-49209571D01*
X119011254Y-49207053D01*
X119015948Y-49205554D01*
X119016170Y-49205493D01*
X119016181Y-49205487D01*
X119016183Y-49205487D01*
X119110454Y-49160088D01*
X119202639Y-49117102D01*
X119202644Y-49117097D01*
X119207327Y-49114395D01*
X119207400Y-49114522D01*
X119218164Y-49108218D01*
X119218973Y-49107829D01*
X119301156Y-49048118D01*
X119381877Y-48991598D01*
X119382747Y-48990727D01*
X119397550Y-48978084D01*
X119401078Y-48975522D01*
X119469131Y-48904343D01*
X119536598Y-48836877D01*
X119539285Y-48833039D01*
X119551239Y-48818465D01*
X119556629Y-48812828D01*
X119556628Y-48812828D01*
X119556632Y-48812825D01*
X119609164Y-48733241D01*
X119662102Y-48657639D01*
X119665543Y-48650259D01*
X119674432Y-48634364D01*
X119680635Y-48624968D01*
X119716889Y-48540146D01*
X119754575Y-48459330D01*
X119757570Y-48448148D01*
X119763325Y-48431505D01*
X119769103Y-48417988D01*
X119788936Y-48331092D01*
X119811207Y-48247977D01*
X119812887Y-48228766D01*
X119814206Y-48220377D01*
X119814445Y-48219325D01*
X119819191Y-48198537D01*
X119823050Y-48112602D01*
X119830277Y-48030003D01*
X122169723Y-48030003D01*
X122171688Y-48052470D01*
X122171862Y-48060660D01*
X122170709Y-48086324D01*
X122170710Y-48086328D01*
X122181641Y-48167031D01*
X122181966Y-48169949D01*
X122188792Y-48247972D01*
X122188795Y-48247987D01*
X122195482Y-48272941D01*
X122197034Y-48280670D01*
X122200924Y-48309381D01*
X122200926Y-48309392D01*
X122225075Y-48383713D01*
X122225997Y-48386825D01*
X122245423Y-48459324D01*
X122245427Y-48459336D01*
X122257736Y-48485732D01*
X122260512Y-48492779D01*
X122270483Y-48523464D01*
X122305970Y-48589411D01*
X122307558Y-48592576D01*
X122337898Y-48657639D01*
X122338488Y-48658481D01*
X122356490Y-48684191D01*
X122360303Y-48690378D01*
X122377146Y-48721678D01*
X122377152Y-48721687D01*
X122421792Y-48777663D01*
X122424106Y-48780758D01*
X122450510Y-48818465D01*
X122463402Y-48836877D01*
X122463405Y-48836880D01*
X122488646Y-48862121D01*
X122493283Y-48867309D01*
X122517492Y-48897666D01*
X122568959Y-48942632D01*
X122572008Y-48945483D01*
X122618116Y-48991592D01*
X122618122Y-48991597D01*
X122618123Y-48991598D01*
X122619434Y-48992516D01*
X122650055Y-49013957D01*
X122655290Y-49018057D01*
X122687004Y-49045765D01*
X122687013Y-49045771D01*
X122742849Y-49079131D01*
X122746613Y-49081568D01*
X122797359Y-49117101D01*
X122797364Y-49117104D01*
X122819917Y-49127620D01*
X122835677Y-49134969D01*
X122841271Y-49137935D01*
X122878349Y-49160088D01*
X122880236Y-49161215D01*
X122898828Y-49168192D01*
X122938083Y-49182925D01*
X122942503Y-49184782D01*
X122995670Y-49209575D01*
X122995674Y-49209577D01*
X123026069Y-49217720D01*
X123039677Y-49221366D01*
X123045413Y-49223207D01*
X123062264Y-49229531D01*
X123090976Y-49240307D01*
X123148545Y-49250754D01*
X123153511Y-49251868D01*
X123207023Y-49266207D01*
X123255689Y-49270464D01*
X123261306Y-49271218D01*
X123312453Y-49280500D01*
X123367691Y-49280500D01*
X123373092Y-49280735D01*
X123401548Y-49283225D01*
X123424998Y-49285277D01*
X123425000Y-49285277D01*
X123477992Y-49280640D01*
X123481121Y-49280500D01*
X123481155Y-49280500D01*
X123535172Y-49275638D01*
X123642977Y-49266207D01*
X123643000Y-49266200D01*
X123643475Y-49266117D01*
X123648713Y-49265419D01*
X123649188Y-49265377D01*
X123752997Y-49236726D01*
X123854330Y-49209575D01*
X123854337Y-49209571D01*
X123861254Y-49207053D01*
X123865948Y-49205554D01*
X123866170Y-49205493D01*
X123866181Y-49205487D01*
X123866183Y-49205487D01*
X123960454Y-49160088D01*
X124052639Y-49117102D01*
X124052644Y-49117097D01*
X124057327Y-49114395D01*
X124057400Y-49114522D01*
X124068164Y-49108218D01*
X124068973Y-49107829D01*
X124151156Y-49048118D01*
X124231877Y-48991598D01*
X124232747Y-48990727D01*
X124247550Y-48978084D01*
X124251078Y-48975522D01*
X124319131Y-48904343D01*
X124386598Y-48836877D01*
X124389285Y-48833039D01*
X124401239Y-48818465D01*
X124406629Y-48812828D01*
X124406628Y-48812828D01*
X124406632Y-48812825D01*
X124459164Y-48733241D01*
X124512102Y-48657639D01*
X124515543Y-48650259D01*
X124524432Y-48634364D01*
X124530635Y-48624968D01*
X124566889Y-48540146D01*
X124604575Y-48459330D01*
X124607570Y-48448148D01*
X124613325Y-48431505D01*
X124619103Y-48417988D01*
X124638936Y-48331092D01*
X124661207Y-48247977D01*
X124662887Y-48228766D01*
X124664206Y-48220377D01*
X124664445Y-48219325D01*
X124669191Y-48198537D01*
X124673050Y-48112602D01*
X124680277Y-48030000D01*
X124678310Y-48007528D01*
X124678137Y-47999334D01*
X124679290Y-47973670D01*
X124668353Y-47892939D01*
X124668034Y-47890067D01*
X124661207Y-47812023D01*
X124654515Y-47787053D01*
X124652963Y-47779322D01*
X124649076Y-47750618D01*
X124649075Y-47750616D01*
X124649075Y-47750613D01*
X124624921Y-47676276D01*
X124623998Y-47673161D01*
X124604576Y-47600673D01*
X124604574Y-47600669D01*
X124592266Y-47574274D01*
X124589488Y-47567222D01*
X124579519Y-47536541D01*
X124579517Y-47536537D01*
X124579517Y-47536536D01*
X124566988Y-47513253D01*
X124544027Y-47470583D01*
X124542432Y-47467405D01*
X124527338Y-47435036D01*
X124512102Y-47402362D01*
X124493512Y-47375813D01*
X124489698Y-47369625D01*
X124489359Y-47368995D01*
X124472852Y-47338319D01*
X124428192Y-47282318D01*
X124425896Y-47279247D01*
X124386598Y-47223123D01*
X124361353Y-47197878D01*
X124356715Y-47192689D01*
X124344351Y-47177185D01*
X124332508Y-47162334D01*
X124324866Y-47155657D01*
X124281039Y-47117366D01*
X124277990Y-47114515D01*
X124231878Y-47068402D01*
X124199940Y-47046039D01*
X124194705Y-47041939D01*
X124162996Y-47014235D01*
X124162994Y-47014233D01*
X124162992Y-47014232D01*
X124107149Y-46980868D01*
X124103386Y-46978431D01*
X124052641Y-46942899D01*
X124014333Y-46925035D01*
X124008735Y-46922067D01*
X123969769Y-46898787D01*
X123969767Y-46898786D01*
X123911928Y-46877079D01*
X123907515Y-46875226D01*
X123854330Y-46850425D01*
X123810321Y-46838632D01*
X123804581Y-46836790D01*
X123759025Y-46819692D01*
X123701456Y-46809245D01*
X123696480Y-46808128D01*
X123642977Y-46793793D01*
X123594327Y-46789536D01*
X123588659Y-46788775D01*
X123537551Y-46779500D01*
X123537547Y-46779500D01*
X123482309Y-46779500D01*
X123476907Y-46779264D01*
X123448451Y-46776774D01*
X123425002Y-46774723D01*
X123424997Y-46774723D01*
X123372050Y-46779355D01*
X123368862Y-46779499D01*
X123368851Y-46779500D01*
X123368845Y-46779500D01*
X123322671Y-46783655D01*
X123314826Y-46784361D01*
X123207020Y-46793793D01*
X123206468Y-46793891D01*
X123201275Y-46794581D01*
X123200812Y-46794622D01*
X123200809Y-46794623D01*
X123097002Y-46823273D01*
X122995659Y-46850428D01*
X122988739Y-46852946D01*
X122984050Y-46854444D01*
X122983849Y-46854499D01*
X122983832Y-46854505D01*
X122889528Y-46899919D01*
X122797358Y-46942899D01*
X122792670Y-46945606D01*
X122792598Y-46945481D01*
X122781871Y-46951764D01*
X122781030Y-46952168D01*
X122698831Y-47011889D01*
X122618123Y-47068401D01*
X122617241Y-47069284D01*
X122602461Y-47081906D01*
X122598928Y-47084472D01*
X122598916Y-47084483D01*
X122567733Y-47117099D01*
X122530868Y-47155656D01*
X122511938Y-47174586D01*
X122463403Y-47223120D01*
X122463402Y-47223121D01*
X122460711Y-47226965D01*
X122448773Y-47241521D01*
X122443368Y-47247174D01*
X122422476Y-47278822D01*
X122390828Y-47326768D01*
X122337898Y-47402362D01*
X122337891Y-47402374D01*
X122334457Y-47409738D01*
X122325572Y-47425628D01*
X122319362Y-47435035D01*
X122319362Y-47435036D01*
X122283108Y-47519859D01*
X122245425Y-47600669D01*
X122245424Y-47600671D01*
X122242425Y-47611860D01*
X122236681Y-47628475D01*
X122230899Y-47642005D01*
X122230896Y-47642016D01*
X122211063Y-47728907D01*
X122188793Y-47812022D01*
X122188793Y-47812023D01*
X122187112Y-47831226D01*
X122185793Y-47839625D01*
X122180809Y-47861459D01*
X122180809Y-47861464D01*
X122176949Y-47947397D01*
X122169723Y-48029996D01*
X122169723Y-48030003D01*
X119830277Y-48030003D01*
X119830277Y-48030000D01*
X119828310Y-48007528D01*
X119828137Y-47999334D01*
X119829290Y-47973670D01*
X119818353Y-47892939D01*
X119818034Y-47890067D01*
X119811207Y-47812023D01*
X119804515Y-47787053D01*
X119802963Y-47779322D01*
X119799076Y-47750618D01*
X119799075Y-47750616D01*
X119799075Y-47750613D01*
X119774921Y-47676276D01*
X119773998Y-47673161D01*
X119754576Y-47600673D01*
X119754574Y-47600669D01*
X119742266Y-47574274D01*
X119739488Y-47567222D01*
X119729519Y-47536541D01*
X119729517Y-47536537D01*
X119729517Y-47536536D01*
X119716988Y-47513253D01*
X119694027Y-47470583D01*
X119692432Y-47467405D01*
X119677338Y-47435036D01*
X119662102Y-47402362D01*
X119643512Y-47375813D01*
X119639698Y-47369625D01*
X119639359Y-47368995D01*
X119622852Y-47338319D01*
X119578192Y-47282318D01*
X119575896Y-47279247D01*
X119536598Y-47223123D01*
X119511353Y-47197878D01*
X119506715Y-47192689D01*
X119494351Y-47177185D01*
X119482508Y-47162334D01*
X119474866Y-47155657D01*
X119431039Y-47117366D01*
X119427990Y-47114515D01*
X119381878Y-47068402D01*
X119349940Y-47046039D01*
X119344705Y-47041939D01*
X119312996Y-47014235D01*
X119312994Y-47014233D01*
X119312992Y-47014232D01*
X119257149Y-46980868D01*
X119253386Y-46978431D01*
X119202641Y-46942899D01*
X119164333Y-46925035D01*
X119158735Y-46922067D01*
X119119769Y-46898787D01*
X119119767Y-46898786D01*
X119061928Y-46877079D01*
X119057515Y-46875226D01*
X119004330Y-46850425D01*
X118960321Y-46838632D01*
X118954581Y-46836790D01*
X118909025Y-46819692D01*
X118851456Y-46809245D01*
X118846480Y-46808128D01*
X118792977Y-46793793D01*
X118744327Y-46789536D01*
X118738659Y-46788775D01*
X118687551Y-46779500D01*
X118687547Y-46779500D01*
X118632309Y-46779500D01*
X118626907Y-46779264D01*
X118598451Y-46776774D01*
X118575002Y-46774723D01*
X118574997Y-46774723D01*
X118522050Y-46779355D01*
X118518862Y-46779499D01*
X118518851Y-46779500D01*
X118518845Y-46779500D01*
X118472671Y-46783655D01*
X118464826Y-46784361D01*
X118357020Y-46793793D01*
X118356468Y-46793891D01*
X118351275Y-46794581D01*
X118350812Y-46794622D01*
X118350809Y-46794623D01*
X118247002Y-46823273D01*
X118145659Y-46850428D01*
X118138739Y-46852946D01*
X118134050Y-46854444D01*
X118133849Y-46854499D01*
X118133832Y-46854505D01*
X118039528Y-46899919D01*
X117947358Y-46942899D01*
X117942670Y-46945606D01*
X117942598Y-46945481D01*
X117931871Y-46951764D01*
X117931030Y-46952168D01*
X117848831Y-47011889D01*
X117768123Y-47068401D01*
X117767241Y-47069284D01*
X117752461Y-47081906D01*
X117748928Y-47084472D01*
X117748916Y-47084483D01*
X117717733Y-47117099D01*
X117680868Y-47155656D01*
X117661938Y-47174586D01*
X117613403Y-47223120D01*
X117613402Y-47223121D01*
X117610711Y-47226965D01*
X117598773Y-47241521D01*
X117593368Y-47247174D01*
X117572476Y-47278822D01*
X117540828Y-47326768D01*
X117487898Y-47402362D01*
X117487891Y-47402374D01*
X117484457Y-47409738D01*
X117475572Y-47425628D01*
X117469362Y-47435035D01*
X117469362Y-47435036D01*
X117433108Y-47519859D01*
X117395425Y-47600669D01*
X117395424Y-47600671D01*
X117392425Y-47611860D01*
X117386681Y-47628475D01*
X117380899Y-47642005D01*
X117380896Y-47642016D01*
X117361063Y-47728907D01*
X117338793Y-47812022D01*
X117338793Y-47812023D01*
X117337112Y-47831226D01*
X117335793Y-47839625D01*
X117330809Y-47861459D01*
X117330809Y-47861464D01*
X117326949Y-47947397D01*
X117319723Y-48029996D01*
X117319723Y-48030003D01*
X113311000Y-48030003D01*
X113383903Y-47873663D01*
X113445063Y-47645408D01*
X113465659Y-47410000D01*
X113445063Y-47174592D01*
X113393155Y-46980868D01*
X113383905Y-46946344D01*
X113383904Y-46946343D01*
X113383903Y-46946337D01*
X113284035Y-46732171D01*
X113280753Y-46727483D01*
X113148494Y-46538597D01*
X112981402Y-46371506D01*
X112981396Y-46371501D01*
X112795842Y-46241575D01*
X112752217Y-46186998D01*
X112745023Y-46117500D01*
X112776546Y-46055145D01*
X112795842Y-46038425D01*
X112829650Y-46014752D01*
X112981401Y-45908495D01*
X113148495Y-45741401D01*
X113284035Y-45547830D01*
X113383903Y-45333663D01*
X113445063Y-45105408D01*
X113454285Y-45000000D01*
X116869700Y-45000000D01*
X116872359Y-45032097D01*
X116876955Y-45087567D01*
X116880819Y-45178523D01*
X116880820Y-45178534D01*
X116885939Y-45202284D01*
X116887120Y-45210233D01*
X116888865Y-45231301D01*
X116888865Y-45231304D01*
X116888866Y-45231305D01*
X116911205Y-45319520D01*
X116914253Y-45333663D01*
X116931046Y-45411582D01*
X116938883Y-45431084D01*
X116941458Y-45438987D01*
X116945844Y-45456303D01*
X116983655Y-45542504D01*
X117019934Y-45632787D01*
X117019935Y-45632788D01*
X117029232Y-45647888D01*
X117033218Y-45655495D01*
X117039076Y-45668850D01*
X117092275Y-45750277D01*
X117144930Y-45835794D01*
X117151543Y-45843308D01*
X117162263Y-45857402D01*
X117164738Y-45861189D01*
X117166021Y-45863153D01*
X117234027Y-45937028D01*
X117302436Y-46014755D01*
X117307564Y-46018895D01*
X117320882Y-46031377D01*
X117323216Y-46033913D01*
X117404933Y-46097515D01*
X117487920Y-46164523D01*
X117487922Y-46164524D01*
X117490678Y-46166064D01*
X117506360Y-46176460D01*
X117506367Y-46176465D01*
X117506371Y-46176467D01*
X117506374Y-46176470D01*
X117591363Y-46222463D01*
X117600162Y-46227225D01*
X117696046Y-46280790D01*
X117698849Y-46282058D01*
X117705695Y-46285097D01*
X117705794Y-46284873D01*
X117710490Y-46286932D01*
X117710497Y-46286936D01*
X117814276Y-46322563D01*
X117920829Y-46360211D01*
X117921398Y-46360308D01*
X117926129Y-46361312D01*
X117930007Y-46362294D01*
X117930019Y-46362298D01*
X118041324Y-46380871D01*
X118155791Y-46400499D01*
X118155800Y-46400500D01*
X118391044Y-46400500D01*
X118391049Y-46400500D01*
X118424073Y-46394988D01*
X118447469Y-46391085D01*
X118452407Y-46390463D01*
X118512541Y-46385346D01*
X118564615Y-46371786D01*
X118570017Y-46370634D01*
X118619981Y-46362298D01*
X118677186Y-46342658D01*
X118681663Y-46341309D01*
X118743249Y-46325275D01*
X118749249Y-46322563D01*
X118761466Y-46317040D01*
X118789297Y-46304459D01*
X118794681Y-46302322D01*
X118839503Y-46286936D01*
X118895554Y-46256601D01*
X118899527Y-46254632D01*
X118908156Y-46250730D01*
X118960486Y-46227077D01*
X118999647Y-46200608D01*
X119004820Y-46197469D01*
X119043626Y-46176470D01*
X119096532Y-46135290D01*
X119099850Y-46132881D01*
X119158003Y-46093579D01*
X119189770Y-46063131D01*
X119194548Y-46059002D01*
X119226784Y-46033913D01*
X119229109Y-46031388D01*
X119244420Y-46014755D01*
X119274389Y-45982198D01*
X119277101Y-45979432D01*
X119330118Y-45928621D01*
X119354329Y-45895883D01*
X119358540Y-45890785D01*
X119383979Y-45863153D01*
X119424206Y-45801578D01*
X119426241Y-45798652D01*
X119471879Y-45736947D01*
X119488733Y-45703517D01*
X119492170Y-45697552D01*
X119510924Y-45668849D01*
X119541805Y-45598445D01*
X119543174Y-45595538D01*
X119579207Y-45524074D01*
X119589208Y-45491413D01*
X119591701Y-45484694D01*
X119604157Y-45456300D01*
X119623827Y-45378621D01*
X119624635Y-45375732D01*
X119649016Y-45296123D01*
X119652936Y-45265508D01*
X119654330Y-45258170D01*
X119661134Y-45231305D01*
X119668132Y-45146845D01*
X119679298Y-45059654D01*
X119678126Y-45032079D01*
X119678281Y-45024355D01*
X119680300Y-45000000D01*
X122319700Y-45000000D01*
X122322359Y-45032097D01*
X122326955Y-45087567D01*
X122330819Y-45178523D01*
X122330820Y-45178534D01*
X122335939Y-45202284D01*
X122337120Y-45210233D01*
X122338865Y-45231301D01*
X122338865Y-45231304D01*
X122338866Y-45231305D01*
X122361205Y-45319520D01*
X122364253Y-45333663D01*
X122381046Y-45411582D01*
X122388883Y-45431084D01*
X122391458Y-45438987D01*
X122395844Y-45456303D01*
X122433655Y-45542504D01*
X122469934Y-45632787D01*
X122469935Y-45632788D01*
X122479232Y-45647888D01*
X122483218Y-45655495D01*
X122489076Y-45668850D01*
X122542275Y-45750277D01*
X122594930Y-45835794D01*
X122601543Y-45843308D01*
X122612263Y-45857402D01*
X122614738Y-45861189D01*
X122616021Y-45863153D01*
X122684027Y-45937028D01*
X122752436Y-46014755D01*
X122757564Y-46018895D01*
X122770882Y-46031377D01*
X122773216Y-46033913D01*
X122854933Y-46097515D01*
X122937920Y-46164523D01*
X122937922Y-46164524D01*
X122940678Y-46166064D01*
X122956360Y-46176460D01*
X122956367Y-46176465D01*
X122956371Y-46176467D01*
X122956374Y-46176470D01*
X123041363Y-46222463D01*
X123050162Y-46227225D01*
X123146046Y-46280790D01*
X123148849Y-46282058D01*
X123155695Y-46285097D01*
X123155794Y-46284873D01*
X123160490Y-46286932D01*
X123160497Y-46286936D01*
X123264276Y-46322563D01*
X123370829Y-46360211D01*
X123371398Y-46360308D01*
X123376129Y-46361312D01*
X123380007Y-46362294D01*
X123380019Y-46362298D01*
X123491324Y-46380871D01*
X123605791Y-46400499D01*
X123605800Y-46400500D01*
X123841044Y-46400500D01*
X123841049Y-46400500D01*
X123874073Y-46394988D01*
X123897469Y-46391085D01*
X123902407Y-46390463D01*
X123962541Y-46385346D01*
X124014615Y-46371786D01*
X124020017Y-46370634D01*
X124069981Y-46362298D01*
X124127186Y-46342658D01*
X124131663Y-46341309D01*
X124193249Y-46325275D01*
X124199249Y-46322563D01*
X124211466Y-46317040D01*
X124239297Y-46304459D01*
X124244681Y-46302322D01*
X124289503Y-46286936D01*
X124345554Y-46256601D01*
X124349527Y-46254632D01*
X124358156Y-46250730D01*
X124410486Y-46227077D01*
X124449647Y-46200608D01*
X124454820Y-46197469D01*
X124493626Y-46176470D01*
X124546532Y-46135290D01*
X124549850Y-46132881D01*
X124608003Y-46093579D01*
X124639770Y-46063131D01*
X124644548Y-46059002D01*
X124676784Y-46033913D01*
X124679109Y-46031388D01*
X124694420Y-46014755D01*
X124724389Y-45982198D01*
X124727101Y-45979432D01*
X124780118Y-45928621D01*
X124804329Y-45895883D01*
X124808540Y-45890785D01*
X124833979Y-45863153D01*
X124874206Y-45801578D01*
X124876241Y-45798652D01*
X124921879Y-45736947D01*
X124938733Y-45703517D01*
X124942170Y-45697552D01*
X124960924Y-45668849D01*
X124991805Y-45598445D01*
X124993174Y-45595538D01*
X125029207Y-45524074D01*
X125039208Y-45491413D01*
X125041701Y-45484694D01*
X125054157Y-45456300D01*
X125073827Y-45378621D01*
X125074635Y-45375732D01*
X125099016Y-45296123D01*
X125102936Y-45265508D01*
X125104330Y-45258170D01*
X125111134Y-45231305D01*
X125118132Y-45146845D01*
X125129298Y-45059654D01*
X125128126Y-45032079D01*
X125128281Y-45024355D01*
X125130300Y-45000000D01*
X125127962Y-44971788D01*
X125123044Y-44912432D01*
X125122667Y-44903563D01*
X125119180Y-44821468D01*
X125114059Y-44797709D01*
X125112879Y-44789762D01*
X125111417Y-44772116D01*
X125111134Y-44768695D01*
X125111133Y-44768692D01*
X125111133Y-44768688D01*
X125090214Y-44686087D01*
X125088794Y-44680479D01*
X125068954Y-44588419D01*
X125061115Y-44568912D01*
X125058541Y-44561015D01*
X125054157Y-44543700D01*
X125016344Y-44457495D01*
X124980064Y-44367210D01*
X124970768Y-44352112D01*
X124966779Y-44344500D01*
X124960924Y-44331151D01*
X124907724Y-44249721D01*
X124855071Y-44164208D01*
X124855070Y-44164207D01*
X124855069Y-44164205D01*
X124848451Y-44156686D01*
X124837727Y-44142584D01*
X124833978Y-44136845D01*
X124765972Y-44062971D01*
X124697565Y-43985246D01*
X124692439Y-43981107D01*
X124679117Y-43968621D01*
X124676785Y-43966088D01*
X124676783Y-43966086D01*
X124595066Y-43902484D01*
X124512080Y-43835477D01*
X124512073Y-43835472D01*
X124509311Y-43833929D01*
X124493643Y-43823542D01*
X124493634Y-43823535D01*
X124493628Y-43823532D01*
X124493626Y-43823530D01*
X124399837Y-43772774D01*
X124303954Y-43719210D01*
X124303953Y-43719209D01*
X124303952Y-43719209D01*
X124301381Y-43718047D01*
X124294284Y-43714898D01*
X124294188Y-43715119D01*
X124289506Y-43713065D01*
X124185723Y-43677436D01*
X124079168Y-43639788D01*
X124079160Y-43639786D01*
X124078612Y-43639692D01*
X124073889Y-43638691D01*
X124069989Y-43637703D01*
X123958675Y-43619128D01*
X123844209Y-43599500D01*
X123844200Y-43599500D01*
X123841049Y-43599500D01*
X123608951Y-43599500D01*
X123608950Y-43599500D01*
X123552533Y-43608913D01*
X123547587Y-43609535D01*
X123545099Y-43609747D01*
X123487469Y-43614652D01*
X123487461Y-43614653D01*
X123435397Y-43628208D01*
X123429981Y-43629363D01*
X123380013Y-43637703D01*
X123322840Y-43657331D01*
X123318330Y-43658690D01*
X123256749Y-43674725D01*
X123256744Y-43674727D01*
X123210711Y-43695535D01*
X123205304Y-43697680D01*
X123160503Y-43713060D01*
X123160498Y-43713063D01*
X123104448Y-43743395D01*
X123100478Y-43745363D01*
X123039514Y-43772922D01*
X123000359Y-43799385D01*
X122995149Y-43802544D01*
X122956379Y-43823526D01*
X122956367Y-43823533D01*
X122903487Y-43864692D01*
X122900124Y-43867133D01*
X122842001Y-43906417D01*
X122841994Y-43906422D01*
X122810248Y-43936847D01*
X122805430Y-43941011D01*
X122773218Y-43966085D01*
X122773209Y-43966093D01*
X122725613Y-44017795D01*
X122722900Y-44020564D01*
X122669882Y-44071378D01*
X122669880Y-44071380D01*
X122645681Y-44104098D01*
X122641448Y-44109223D01*
X122616022Y-44136845D01*
X122575797Y-44198412D01*
X122573741Y-44201367D01*
X122528124Y-44263047D01*
X122528120Y-44263054D01*
X122511268Y-44296475D01*
X122507811Y-44302472D01*
X122489076Y-44331149D01*
X122458219Y-44401496D01*
X122456803Y-44404503D01*
X122420790Y-44475931D01*
X122410792Y-44508573D01*
X122408288Y-44515323D01*
X122395845Y-44543691D01*
X122395845Y-44543692D01*
X122376178Y-44621347D01*
X122375358Y-44624279D01*
X122350984Y-44703876D01*
X122350983Y-44703879D01*
X122347063Y-44734485D01*
X122345668Y-44741830D01*
X122338867Y-44768688D01*
X122338864Y-44768705D01*
X122331867Y-44853154D01*
X122320702Y-44940344D01*
X122320701Y-44940344D01*
X122321872Y-44967900D01*
X122321716Y-44975655D01*
X122319700Y-44999995D01*
X122319700Y-45000000D01*
X119680300Y-45000000D01*
X119677962Y-44971788D01*
X119673044Y-44912432D01*
X119672667Y-44903563D01*
X119669180Y-44821468D01*
X119664059Y-44797709D01*
X119662879Y-44789762D01*
X119661417Y-44772116D01*
X119661134Y-44768695D01*
X119661133Y-44768692D01*
X119661133Y-44768688D01*
X119640214Y-44686087D01*
X119638794Y-44680479D01*
X119618954Y-44588419D01*
X119611115Y-44568912D01*
X119608541Y-44561015D01*
X119604157Y-44543700D01*
X119566344Y-44457495D01*
X119530064Y-44367210D01*
X119520768Y-44352112D01*
X119516779Y-44344500D01*
X119510924Y-44331151D01*
X119457724Y-44249721D01*
X119405071Y-44164208D01*
X119405070Y-44164207D01*
X119405069Y-44164205D01*
X119398451Y-44156686D01*
X119387727Y-44142584D01*
X119383978Y-44136845D01*
X119315972Y-44062971D01*
X119247565Y-43985246D01*
X119242439Y-43981107D01*
X119229117Y-43968621D01*
X119226785Y-43966088D01*
X119226783Y-43966086D01*
X119145066Y-43902484D01*
X119062080Y-43835477D01*
X119062073Y-43835472D01*
X119059311Y-43833929D01*
X119043643Y-43823542D01*
X119043634Y-43823535D01*
X119043628Y-43823532D01*
X119043626Y-43823530D01*
X118949837Y-43772774D01*
X118853954Y-43719210D01*
X118853953Y-43719209D01*
X118853952Y-43719209D01*
X118851381Y-43718047D01*
X118844284Y-43714898D01*
X118844188Y-43715119D01*
X118839506Y-43713065D01*
X118735723Y-43677436D01*
X118629168Y-43639788D01*
X118629160Y-43639786D01*
X118628612Y-43639692D01*
X118623889Y-43638691D01*
X118619989Y-43637703D01*
X118508675Y-43619128D01*
X118394209Y-43599500D01*
X118394200Y-43599500D01*
X118391049Y-43599500D01*
X118158951Y-43599500D01*
X118158950Y-43599500D01*
X118102533Y-43608913D01*
X118097587Y-43609535D01*
X118095099Y-43609747D01*
X118037469Y-43614652D01*
X118037461Y-43614653D01*
X117985397Y-43628208D01*
X117979981Y-43629363D01*
X117930013Y-43637703D01*
X117872840Y-43657331D01*
X117868330Y-43658690D01*
X117806749Y-43674725D01*
X117806744Y-43674727D01*
X117760711Y-43695535D01*
X117755304Y-43697680D01*
X117710503Y-43713060D01*
X117710498Y-43713063D01*
X117654448Y-43743395D01*
X117650478Y-43745363D01*
X117589514Y-43772922D01*
X117550359Y-43799385D01*
X117545149Y-43802544D01*
X117506379Y-43823526D01*
X117506367Y-43823533D01*
X117453487Y-43864692D01*
X117450124Y-43867133D01*
X117392001Y-43906417D01*
X117391994Y-43906422D01*
X117360248Y-43936847D01*
X117355430Y-43941011D01*
X117323218Y-43966085D01*
X117323209Y-43966093D01*
X117275613Y-44017795D01*
X117272900Y-44020564D01*
X117219882Y-44071378D01*
X117219880Y-44071380D01*
X117195681Y-44104098D01*
X117191448Y-44109223D01*
X117166022Y-44136845D01*
X117125797Y-44198412D01*
X117123741Y-44201367D01*
X117078124Y-44263047D01*
X117078120Y-44263054D01*
X117061268Y-44296475D01*
X117057811Y-44302472D01*
X117039076Y-44331149D01*
X117008219Y-44401496D01*
X117006803Y-44404503D01*
X116970790Y-44475931D01*
X116960792Y-44508573D01*
X116958288Y-44515323D01*
X116945845Y-44543691D01*
X116945845Y-44543692D01*
X116926178Y-44621347D01*
X116925358Y-44624279D01*
X116900984Y-44703876D01*
X116900983Y-44703879D01*
X116897063Y-44734485D01*
X116895668Y-44741830D01*
X116888867Y-44768688D01*
X116888864Y-44768705D01*
X116881867Y-44853154D01*
X116870702Y-44940344D01*
X116870701Y-44940344D01*
X116871872Y-44967900D01*
X116871716Y-44975655D01*
X116869700Y-44999995D01*
X116869700Y-45000000D01*
X113454285Y-45000000D01*
X113465659Y-44870000D01*
X113445063Y-44634592D01*
X113383903Y-44406337D01*
X113284035Y-44192171D01*
X113264456Y-44164208D01*
X113148494Y-43998597D01*
X112981402Y-43831506D01*
X112981395Y-43831501D01*
X112978297Y-43829332D01*
X112940040Y-43802544D01*
X112787834Y-43695967D01*
X112787830Y-43695965D01*
X112786908Y-43695535D01*
X112573663Y-43596097D01*
X112573659Y-43596096D01*
X112573655Y-43596094D01*
X112345413Y-43534938D01*
X112345403Y-43534936D01*
X112110001Y-43514341D01*
X112109999Y-43514341D01*
X111874596Y-43534936D01*
X111874586Y-43534938D01*
X111646344Y-43596094D01*
X111646335Y-43596098D01*
X111432171Y-43695964D01*
X111432169Y-43695965D01*
X111238597Y-43831505D01*
X111071505Y-43998597D01*
X110935965Y-44192169D01*
X110935964Y-44192171D01*
X110836098Y-44406335D01*
X110836094Y-44406344D01*
X110774938Y-44634586D01*
X110774936Y-44634596D01*
X110754341Y-44869999D01*
X110754341Y-44870000D01*
X110774936Y-45105403D01*
X110774938Y-45105413D01*
X110836094Y-45333655D01*
X110836096Y-45333659D01*
X110836097Y-45333663D01*
X110905548Y-45482600D01*
X110935965Y-45547830D01*
X110935967Y-45547834D01*
X111071501Y-45741395D01*
X111071506Y-45741402D01*
X111238597Y-45908493D01*
X111238603Y-45908498D01*
X111424158Y-46038425D01*
X111467783Y-46093002D01*
X111474977Y-46162500D01*
X111443454Y-46224855D01*
X111424158Y-46241575D01*
X111238597Y-46371505D01*
X111071505Y-46538597D01*
X110935965Y-46732169D01*
X110935964Y-46732171D01*
X110836098Y-46946335D01*
X110836094Y-46946344D01*
X110774938Y-47174586D01*
X110774936Y-47174596D01*
X110754341Y-47409999D01*
X110754341Y-47410000D01*
X110774936Y-47645403D01*
X110774938Y-47645413D01*
X110836094Y-47873655D01*
X110836096Y-47873659D01*
X110836097Y-47873663D01*
X110923295Y-48060660D01*
X110935965Y-48087830D01*
X110935967Y-48087834D01*
X110987136Y-48160910D01*
X111071501Y-48281396D01*
X111071506Y-48281402D01*
X111193430Y-48403326D01*
X111226915Y-48464649D01*
X111221931Y-48534341D01*
X111180059Y-48590274D01*
X111149083Y-48607189D01*
X111017669Y-48656203D01*
X111017664Y-48656206D01*
X110902455Y-48742452D01*
X110902452Y-48742455D01*
X110816206Y-48857664D01*
X110816202Y-48857671D01*
X110765908Y-48992517D01*
X110760184Y-49045765D01*
X110759501Y-49052123D01*
X110759500Y-49052135D01*
X110759500Y-50847870D01*
X110759501Y-50847876D01*
X110765908Y-50907483D01*
X110816202Y-51042328D01*
X110816206Y-51042335D01*
X110902452Y-51157544D01*
X110902455Y-51157547D01*
X111017664Y-51243793D01*
X111017671Y-51243797D01*
X111149081Y-51292810D01*
X111205015Y-51334681D01*
X111229432Y-51400145D01*
X111214580Y-51468418D01*
X111193430Y-51496673D01*
X111071503Y-51618600D01*
X110935965Y-51812169D01*
X110935964Y-51812171D01*
X110836098Y-52026335D01*
X110836094Y-52026344D01*
X110774938Y-52254586D01*
X110774936Y-52254596D01*
X110754341Y-52489999D01*
X110754341Y-52490000D01*
X110774936Y-52725403D01*
X110774938Y-52725413D01*
X110836094Y-52953655D01*
X110836096Y-52953659D01*
X110836097Y-52953663D01*
X110897882Y-53086161D01*
X110935965Y-53167830D01*
X110935967Y-53167834D01*
X111071501Y-53361395D01*
X111071506Y-53361402D01*
X111238597Y-53528493D01*
X111238603Y-53528498D01*
X111424158Y-53658425D01*
X111467783Y-53713002D01*
X111474977Y-53782500D01*
X111443454Y-53844855D01*
X111424158Y-53861575D01*
X111238597Y-53991505D01*
X111071505Y-54158597D01*
X110935965Y-54352169D01*
X110935964Y-54352171D01*
X110836098Y-54566335D01*
X110836094Y-54566344D01*
X110774938Y-54794586D01*
X110774936Y-54794596D01*
X110754341Y-55029999D01*
X110754341Y-55030000D01*
X110774936Y-55265403D01*
X110774938Y-55265413D01*
X110836094Y-55493655D01*
X110836096Y-55493659D01*
X110836097Y-55493663D01*
X110906288Y-55644188D01*
X110935965Y-55707830D01*
X110935967Y-55707834D01*
X111022299Y-55831128D01*
X111067993Y-55896386D01*
X111071501Y-55901395D01*
X111071506Y-55901402D01*
X111238597Y-56068493D01*
X111238603Y-56068498D01*
X111424158Y-56198425D01*
X111467783Y-56253002D01*
X111474977Y-56322500D01*
X111443454Y-56384855D01*
X111424158Y-56401575D01*
X111238597Y-56531505D01*
X111071505Y-56698597D01*
X110935965Y-56892169D01*
X110935964Y-56892171D01*
X110836098Y-57106335D01*
X110836094Y-57106344D01*
X110774938Y-57334586D01*
X110774936Y-57334596D01*
X110754341Y-57569999D01*
X110754341Y-57570000D01*
X110774936Y-57805403D01*
X110774938Y-57805413D01*
X110836094Y-58033655D01*
X110836096Y-58033659D01*
X110836097Y-58033663D01*
X110935965Y-58247830D01*
X110935967Y-58247834D01*
X111071501Y-58441395D01*
X111071506Y-58441402D01*
X111238597Y-58608493D01*
X111238603Y-58608498D01*
X111424158Y-58738425D01*
X111467783Y-58793002D01*
X111474977Y-58862500D01*
X111443454Y-58924855D01*
X111424158Y-58941575D01*
X111238597Y-59071505D01*
X111071505Y-59238597D01*
X110935965Y-59432169D01*
X110935964Y-59432171D01*
X110836098Y-59646335D01*
X110836094Y-59646344D01*
X110774938Y-59874586D01*
X110774936Y-59874596D01*
X110754341Y-60109999D01*
X110754341Y-60110000D01*
X110774936Y-60345403D01*
X110774938Y-60345413D01*
X110836094Y-60573655D01*
X110836096Y-60573659D01*
X110836097Y-60573663D01*
X110887839Y-60684623D01*
X110935965Y-60787830D01*
X110935967Y-60787834D01*
X111044281Y-60942521D01*
X111071501Y-60981396D01*
X111071506Y-60981402D01*
X111193430Y-61103326D01*
X111226915Y-61164649D01*
X111221931Y-61234341D01*
X111180059Y-61290274D01*
X111149083Y-61307189D01*
X111017669Y-61356203D01*
X111017664Y-61356206D01*
X110902455Y-61442452D01*
X110902452Y-61442455D01*
X110816206Y-61557664D01*
X110816202Y-61557671D01*
X110765908Y-61692517D01*
X110759501Y-61752116D01*
X110759501Y-61752123D01*
X110759500Y-61752135D01*
X110759500Y-63547870D01*
X110759501Y-63547876D01*
X110765908Y-63607483D01*
X110816202Y-63742328D01*
X110816206Y-63742335D01*
X110902452Y-63857544D01*
X110902455Y-63857547D01*
X111017664Y-63943793D01*
X111017671Y-63943797D01*
X111149081Y-63992810D01*
X111205015Y-64034681D01*
X111229432Y-64100145D01*
X111214580Y-64168418D01*
X111193430Y-64196673D01*
X111071503Y-64318600D01*
X110935965Y-64512169D01*
X110935964Y-64512171D01*
X110836098Y-64726335D01*
X110836094Y-64726344D01*
X110774938Y-64954586D01*
X110774936Y-64954596D01*
X110754341Y-65189999D01*
X110754341Y-65190000D01*
X110774936Y-65425403D01*
X110774938Y-65425413D01*
X110836094Y-65653655D01*
X110836096Y-65653659D01*
X110836097Y-65653663D01*
X110863329Y-65712061D01*
X110935965Y-65867830D01*
X110935967Y-65867834D01*
X111071501Y-66061395D01*
X111071506Y-66061402D01*
X111238597Y-66228493D01*
X111238603Y-66228498D01*
X111424158Y-66358425D01*
X111467783Y-66413002D01*
X111474977Y-66482500D01*
X111443454Y-66544855D01*
X111424158Y-66561575D01*
X111238597Y-66691505D01*
X111071505Y-66858597D01*
X110935965Y-67052169D01*
X110935964Y-67052171D01*
X110836098Y-67266335D01*
X110836094Y-67266344D01*
X110774938Y-67494586D01*
X110774936Y-67494596D01*
X110754341Y-67729999D01*
X110754341Y-67730000D01*
X110774936Y-67965403D01*
X110774938Y-67965413D01*
X110836094Y-68193655D01*
X110836096Y-68193659D01*
X110836097Y-68193663D01*
X110897882Y-68326161D01*
X110935965Y-68407830D01*
X110935967Y-68407834D01*
X111071501Y-68601395D01*
X111071506Y-68601402D01*
X111238597Y-68768493D01*
X111238603Y-68768498D01*
X111424158Y-68898425D01*
X111467783Y-68953002D01*
X111474977Y-69022500D01*
X111443454Y-69084855D01*
X111424158Y-69101575D01*
X111238597Y-69231505D01*
X111071505Y-69398597D01*
X110935965Y-69592169D01*
X110935964Y-69592171D01*
X110836098Y-69806335D01*
X110836094Y-69806344D01*
X110774938Y-70034586D01*
X110774936Y-70034596D01*
X110754341Y-70269999D01*
X110754341Y-70270000D01*
X110774936Y-70505403D01*
X110774938Y-70505413D01*
X110836094Y-70733655D01*
X110836096Y-70733659D01*
X110836097Y-70733663D01*
X110899135Y-70868848D01*
X110935965Y-70947830D01*
X110935967Y-70947834D01*
X111071501Y-71141395D01*
X111071506Y-71141402D01*
X111238597Y-71308493D01*
X111238603Y-71308498D01*
X111424158Y-71438425D01*
X111467783Y-71493002D01*
X111474977Y-71562500D01*
X111443454Y-71624855D01*
X111424158Y-71641575D01*
X111238597Y-71771505D01*
X111071505Y-71938597D01*
X110935965Y-72132169D01*
X110935964Y-72132171D01*
X110836098Y-72346335D01*
X110836094Y-72346344D01*
X110774938Y-72574586D01*
X110774936Y-72574596D01*
X110754341Y-72809999D01*
X110754341Y-72810000D01*
X110774936Y-73045403D01*
X110774938Y-73045413D01*
X110836094Y-73273655D01*
X110836096Y-73273659D01*
X110836097Y-73273663D01*
X110928462Y-73471740D01*
X110935965Y-73487830D01*
X110935967Y-73487834D01*
X111040381Y-73636951D01*
X111071501Y-73681396D01*
X111071506Y-73681402D01*
X111193430Y-73803326D01*
X111226915Y-73864649D01*
X111221931Y-73934341D01*
X111180059Y-73990274D01*
X111149083Y-74007189D01*
X111017669Y-74056203D01*
X111017664Y-74056206D01*
X110902455Y-74142452D01*
X110902452Y-74142455D01*
X110816206Y-74257664D01*
X110816202Y-74257671D01*
X110765908Y-74392517D01*
X110759501Y-74452116D01*
X110759501Y-74452123D01*
X110759500Y-74452135D01*
X110759500Y-76247870D01*
X110759501Y-76247876D01*
X110765908Y-76307483D01*
X110816202Y-76442328D01*
X110816206Y-76442335D01*
X110902452Y-76557544D01*
X110902455Y-76557547D01*
X111017664Y-76643793D01*
X111017671Y-76643797D01*
X111149081Y-76692810D01*
X111205015Y-76734681D01*
X111229432Y-76800145D01*
X111214580Y-76868418D01*
X111193430Y-76896673D01*
X111071503Y-77018600D01*
X110935965Y-77212169D01*
X110935964Y-77212171D01*
X110836098Y-77426335D01*
X110836094Y-77426344D01*
X110774938Y-77654586D01*
X110774936Y-77654596D01*
X110754341Y-77889999D01*
X110754341Y-77890000D01*
X110774936Y-78125403D01*
X110774938Y-78125413D01*
X110836094Y-78353655D01*
X110836096Y-78353659D01*
X110836097Y-78353663D01*
X110920530Y-78534730D01*
X110935965Y-78567830D01*
X110935967Y-78567834D01*
X111071501Y-78761395D01*
X111071506Y-78761402D01*
X111238597Y-78928493D01*
X111238603Y-78928498D01*
X111424158Y-79058425D01*
X111467783Y-79113002D01*
X111474977Y-79182500D01*
X111443454Y-79244855D01*
X111424158Y-79261575D01*
X111238597Y-79391505D01*
X111071505Y-79558597D01*
X110935965Y-79752169D01*
X110935964Y-79752171D01*
X110836098Y-79966335D01*
X110836094Y-79966344D01*
X110774938Y-80194586D01*
X110774936Y-80194596D01*
X110754341Y-80429999D01*
X110754341Y-80430000D01*
X110774936Y-80665403D01*
X110774938Y-80665413D01*
X110836094Y-80893655D01*
X110836096Y-80893659D01*
X110836097Y-80893663D01*
X110883107Y-80994476D01*
X110935965Y-81107830D01*
X110935967Y-81107834D01*
X111071501Y-81301395D01*
X111071506Y-81301402D01*
X111238597Y-81468493D01*
X111238603Y-81468498D01*
X111424158Y-81598425D01*
X111467783Y-81653002D01*
X111474977Y-81722500D01*
X111443454Y-81784855D01*
X111424158Y-81801575D01*
X111238597Y-81931505D01*
X111071505Y-82098597D01*
X110935965Y-82292169D01*
X110935964Y-82292171D01*
X110836098Y-82506335D01*
X110836094Y-82506344D01*
X110774938Y-82734586D01*
X110774936Y-82734596D01*
X110754341Y-82969999D01*
X110754341Y-82970000D01*
X110774936Y-83205403D01*
X110774938Y-83205413D01*
X110836094Y-83433655D01*
X110836096Y-83433659D01*
X110836097Y-83433663D01*
X110878825Y-83525293D01*
X110935965Y-83647830D01*
X110935967Y-83647834D01*
X111071501Y-83841395D01*
X111071506Y-83841402D01*
X111238597Y-84008493D01*
X111238603Y-84008498D01*
X111424158Y-84138425D01*
X111467783Y-84193002D01*
X111474977Y-84262500D01*
X111443454Y-84324855D01*
X111424158Y-84341575D01*
X111238597Y-84471505D01*
X111071505Y-84638597D01*
X110935965Y-84832169D01*
X110935964Y-84832171D01*
X110836098Y-85046335D01*
X110836094Y-85046344D01*
X110774938Y-85274586D01*
X110774936Y-85274596D01*
X110754341Y-85509999D01*
X110754341Y-85510000D01*
X110774936Y-85745403D01*
X110774938Y-85745413D01*
X110836094Y-85973655D01*
X110836096Y-85973659D01*
X110836097Y-85973663D01*
X110883107Y-86074476D01*
X110935965Y-86187830D01*
X110935967Y-86187834D01*
X111044281Y-86342521D01*
X111071501Y-86381396D01*
X111071506Y-86381402D01*
X111193430Y-86503326D01*
X111226915Y-86564649D01*
X111221931Y-86634341D01*
X111180059Y-86690274D01*
X111149083Y-86707189D01*
X111017669Y-86756203D01*
X111017664Y-86756206D01*
X110902455Y-86842452D01*
X110902452Y-86842455D01*
X110816206Y-86957664D01*
X110816202Y-86957671D01*
X110765908Y-87092517D01*
X110759501Y-87152116D01*
X110759501Y-87152123D01*
X110759500Y-87152135D01*
X110759500Y-88947870D01*
X110759501Y-88947876D01*
X110765908Y-89007483D01*
X110816202Y-89142328D01*
X110816206Y-89142335D01*
X110902452Y-89257544D01*
X110902455Y-89257547D01*
X111017664Y-89343793D01*
X111017671Y-89343797D01*
X111149081Y-89392810D01*
X111205015Y-89434681D01*
X111229432Y-89500145D01*
X111214580Y-89568418D01*
X111193430Y-89596673D01*
X111071503Y-89718600D01*
X110935965Y-89912169D01*
X110935964Y-89912171D01*
X110836098Y-90126335D01*
X110836094Y-90126344D01*
X110774938Y-90354586D01*
X110774936Y-90354596D01*
X110754341Y-90589999D01*
X110754341Y-90590000D01*
X110774936Y-90825403D01*
X110774938Y-90825413D01*
X110836094Y-91053655D01*
X110836096Y-91053659D01*
X110836097Y-91053663D01*
X110935965Y-91267830D01*
X110935967Y-91267834D01*
X111071501Y-91461395D01*
X111071506Y-91461402D01*
X111238597Y-91628493D01*
X111238603Y-91628498D01*
X111424158Y-91758425D01*
X111467783Y-91813002D01*
X111474977Y-91882500D01*
X111443454Y-91944855D01*
X111424158Y-91961575D01*
X111238597Y-92091505D01*
X111071505Y-92258597D01*
X110935965Y-92452169D01*
X110935964Y-92452171D01*
X110836098Y-92666335D01*
X110836094Y-92666344D01*
X110774938Y-92894586D01*
X110774936Y-92894596D01*
X110754341Y-93129999D01*
X110754341Y-93130000D01*
X100000500Y-93130000D01*
X100000500Y-48000001D01*
X102994390Y-48000001D01*
X103014804Y-48285433D01*
X103075628Y-48565037D01*
X103075630Y-48565043D01*
X103075631Y-48565046D01*
X103175591Y-48833049D01*
X103175635Y-48833166D01*
X103312770Y-49084309D01*
X103312775Y-49084317D01*
X103484254Y-49313387D01*
X103484270Y-49313405D01*
X103686594Y-49515729D01*
X103686612Y-49515745D01*
X103915682Y-49687224D01*
X103915690Y-49687229D01*
X104166833Y-49824364D01*
X104166832Y-49824364D01*
X104166836Y-49824365D01*
X104166839Y-49824367D01*
X104434954Y-49924369D01*
X104434960Y-49924370D01*
X104434962Y-49924371D01*
X104714566Y-49985195D01*
X104714568Y-49985195D01*
X104714572Y-49985196D01*
X104928552Y-50000500D01*
X105071448Y-50000500D01*
X105285428Y-49985196D01*
X105565046Y-49924369D01*
X105833161Y-49824367D01*
X106084315Y-49687226D01*
X106313395Y-49515739D01*
X106515739Y-49313395D01*
X106687226Y-49084315D01*
X106824367Y-48833161D01*
X106924369Y-48565046D01*
X106959549Y-48403325D01*
X106985195Y-48285433D01*
X106985195Y-48285432D01*
X106985196Y-48285428D01*
X107003564Y-48028595D01*
X107005610Y-48000001D01*
X107005610Y-47999998D01*
X106994140Y-47839625D01*
X106985196Y-47714572D01*
X106976865Y-47676276D01*
X106924371Y-47434962D01*
X106924370Y-47434960D01*
X106924369Y-47434954D01*
X106824367Y-47166839D01*
X106802645Y-47127059D01*
X106687229Y-46915690D01*
X106687224Y-46915682D01*
X106515745Y-46686612D01*
X106515729Y-46686594D01*
X106313405Y-46484270D01*
X106313387Y-46484254D01*
X106084317Y-46312775D01*
X106084309Y-46312770D01*
X105833166Y-46175635D01*
X105833167Y-46175635D01*
X105613166Y-46093579D01*
X105565046Y-46075631D01*
X105565043Y-46075630D01*
X105565037Y-46075628D01*
X105285433Y-46014804D01*
X105071448Y-45999500D01*
X104928552Y-45999500D01*
X104714566Y-46014804D01*
X104434962Y-46075628D01*
X104166833Y-46175635D01*
X103915690Y-46312770D01*
X103915682Y-46312775D01*
X103686612Y-46484254D01*
X103686594Y-46484270D01*
X103484270Y-46686594D01*
X103484254Y-46686612D01*
X103312775Y-46915682D01*
X103312770Y-46915690D01*
X103175635Y-47166833D01*
X103075628Y-47434962D01*
X103014804Y-47714566D01*
X102994390Y-47999998D01*
X102994390Y-48000001D01*
X100000500Y-48000001D01*
X100000500Y-43124500D01*
X100020185Y-43057461D01*
X100072989Y-43011706D01*
X100124500Y-43000500D01*
X174875500Y-43000500D01*
X174942539Y-43020185D01*
G37*
G04 #@! TD.AperFunction*
M02*
