G04 #@! TF.GenerationSoftware,KiCad,Pcbnew,7.0.8-7.0.8~ubuntu22.04.1*
G04 #@! TF.CreationDate,2023-12-12T02:33:24+01:00*
G04 #@! TF.ProjectId,kicad,6b696361-642e-46b6-9963-61645f706362,rev?*
G04 #@! TF.SameCoordinates,Original*
G04 #@! TF.FileFunction,Soldermask,Top*
G04 #@! TF.FilePolarity,Negative*
%FSLAX46Y46*%
G04 Gerber Fmt 4.6, Leading zero omitted, Abs format (unit mm)*
G04 Created by KiCad (PCBNEW 7.0.8-7.0.8~ubuntu22.04.1) date 2023-12-12 02:33:24*
%MOMM*%
%LPD*%
G01*
G04 APERTURE LIST*
G04 Aperture macros list*
%AMRoundRect*
0 Rectangle with rounded corners*
0 $1 Rounding radius*
0 $2 $3 $4 $5 $6 $7 $8 $9 X,Y pos of 4 corners*
0 Add a 4 corners polygon primitive as box body*
4,1,4,$2,$3,$4,$5,$6,$7,$8,$9,$2,$3,0*
0 Add four circle primitives for the rounded corners*
1,1,$1+$1,$2,$3*
1,1,$1+$1,$4,$5*
1,1,$1+$1,$6,$7*
1,1,$1+$1,$8,$9*
0 Add four rect primitives between the rounded corners*
20,1,$1+$1,$2,$3,$4,$5,0*
20,1,$1+$1,$4,$5,$6,$7,0*
20,1,$1+$1,$6,$7,$8,$9,0*
20,1,$1+$1,$8,$9,$2,$3,0*%
G04 Aperture macros list end*
%ADD10RoundRect,0.144000X-0.943000X-0.258000X0.943000X-0.258000X0.943000X0.258000X-0.943000X0.258000X0*%
%ADD11R,1.800000X1.800000*%
%ADD12C,1.800000*%
%ADD13O,1.800000X1.800000*%
%ADD14O,1.500000X1.500000*%
%ADD15O,1.700000X1.700000*%
%ADD16R,3.500000X1.700000*%
%ADD17R,1.700000X1.700000*%
%ADD18R,1.700000X3.500000*%
%ADD19RoundRect,0.237500X-0.237500X0.250000X-0.237500X-0.250000X0.237500X-0.250000X0.237500X0.250000X0*%
%ADD20RoundRect,0.237500X-0.300000X-0.237500X0.300000X-0.237500X0.300000X0.237500X-0.300000X0.237500X0*%
%ADD21R,1.050000X1.500000*%
%ADD22O,1.050000X1.500000*%
%ADD23R,2.200000X2.200000*%
%ADD24O,2.200000X2.200000*%
%ADD25C,3.500000*%
%ADD26RoundRect,0.237500X-0.237500X0.300000X-0.237500X-0.300000X0.237500X-0.300000X0.237500X0.300000X0*%
%ADD27C,1.473200*%
%ADD28RoundRect,0.237500X-0.250000X-0.237500X0.250000X-0.237500X0.250000X0.237500X-0.250000X0.237500X0*%
%ADD29RoundRect,0.237500X0.237500X-0.250000X0.237500X0.250000X-0.237500X0.250000X-0.237500X-0.250000X0*%
%ADD30RoundRect,0.102000X-0.749000X-0.749000X0.749000X-0.749000X0.749000X0.749000X-0.749000X0.749000X0*%
%ADD31C,1.702000*%
%ADD32C,1.600000*%
%ADD33O,1.600000X1.600000*%
%ADD34RoundRect,0.150000X-0.587500X-0.150000X0.587500X-0.150000X0.587500X0.150000X-0.587500X0.150000X0*%
G04 APERTURE END LIST*
D10*
X162560000Y-68580000D03*
X162560000Y-69850000D03*
X162560000Y-71120000D03*
X162560000Y-72390000D03*
X162560000Y-73660000D03*
X162560000Y-74930000D03*
X162560000Y-76200000D03*
X162560000Y-77470000D03*
X167510000Y-77470000D03*
X167510000Y-76200000D03*
X167510000Y-74930000D03*
X167510000Y-73660000D03*
X167510000Y-72390000D03*
X167510000Y-71120000D03*
X167510000Y-69850000D03*
X167510000Y-68580000D03*
D11*
X137160000Y-45720000D03*
D12*
X139700000Y-45720000D03*
D13*
X118275000Y-45000000D03*
D14*
X118575000Y-48030000D03*
X123425000Y-48030000D03*
D13*
X123725000Y-45000000D03*
D15*
X112110000Y-44870000D03*
D16*
X111210000Y-44870000D03*
D15*
X112110000Y-47410000D03*
D16*
X111210000Y-47410000D03*
D17*
X112110000Y-49950000D03*
D16*
X111210000Y-49950000D03*
D15*
X112110000Y-52490000D03*
D16*
X111210000Y-52490000D03*
D15*
X112110000Y-55030000D03*
D16*
X111210000Y-55030000D03*
D15*
X112110000Y-57570000D03*
D16*
X111210000Y-57570000D03*
D15*
X112110000Y-60110000D03*
D16*
X111210000Y-60110000D03*
D17*
X112110000Y-62650000D03*
D16*
X111210000Y-62650000D03*
D15*
X112110000Y-65190000D03*
D16*
X111210000Y-65190000D03*
D15*
X112110000Y-67730000D03*
D16*
X111210000Y-67730000D03*
D15*
X112110000Y-70270000D03*
D16*
X111210000Y-70270000D03*
D15*
X112110000Y-72810000D03*
D16*
X111210000Y-72810000D03*
D17*
X112110000Y-75350000D03*
D16*
X111210000Y-75350000D03*
D15*
X112110000Y-77890000D03*
D16*
X111210000Y-77890000D03*
D15*
X112110000Y-80430000D03*
D16*
X111210000Y-80430000D03*
D15*
X112110000Y-82970000D03*
D16*
X111210000Y-82970000D03*
D15*
X112110000Y-85510000D03*
D16*
X111210000Y-85510000D03*
D17*
X112110000Y-88050000D03*
D16*
X111210000Y-88050000D03*
D15*
X112110000Y-90590000D03*
D16*
X111210000Y-90590000D03*
D15*
X112110000Y-93130000D03*
D16*
X111210000Y-93130000D03*
D15*
X129890000Y-93130000D03*
D16*
X130790000Y-93130000D03*
D15*
X129890000Y-90590000D03*
D16*
X130790000Y-90590000D03*
D17*
X129890000Y-88050000D03*
D16*
X130790000Y-88050000D03*
D15*
X129890000Y-85510000D03*
D16*
X130790000Y-85510000D03*
D15*
X129890000Y-82970000D03*
D16*
X130790000Y-82970000D03*
D15*
X129890000Y-80430000D03*
D16*
X130790000Y-80430000D03*
D15*
X129890000Y-77890000D03*
D16*
X130790000Y-77890000D03*
D17*
X129890000Y-75350000D03*
D16*
X130790000Y-75350000D03*
D15*
X129890000Y-72810000D03*
D16*
X130790000Y-72810000D03*
D15*
X129890000Y-70270000D03*
D16*
X130790000Y-70270000D03*
D15*
X129890000Y-67730000D03*
D16*
X130790000Y-67730000D03*
D15*
X129890000Y-65190000D03*
D16*
X130790000Y-65190000D03*
D17*
X129890000Y-62650000D03*
D16*
X130790000Y-62650000D03*
D15*
X129890000Y-60110000D03*
D16*
X130790000Y-60110000D03*
D15*
X129890000Y-57570000D03*
D16*
X130790000Y-57570000D03*
D15*
X129890000Y-55030000D03*
D16*
X130790000Y-55030000D03*
D15*
X129890000Y-52490000D03*
D16*
X130790000Y-52490000D03*
D17*
X129890000Y-49950000D03*
D16*
X130790000Y-49950000D03*
D15*
X129890000Y-47410000D03*
D16*
X130790000Y-47410000D03*
D15*
X129890000Y-44870000D03*
D16*
X130790000Y-44870000D03*
D15*
X118460000Y-92900000D03*
D18*
X118460000Y-93800000D03*
D17*
X121000000Y-92900000D03*
D18*
X121000000Y-93800000D03*
D15*
X123540000Y-92900000D03*
D18*
X123540000Y-93800000D03*
D19*
X173000000Y-59087500D03*
X173000000Y-60912500D03*
D20*
X156050000Y-66040000D03*
X157775000Y-66040000D03*
D21*
X160020000Y-60960000D03*
D22*
X161290000Y-60960000D03*
X162560000Y-60960000D03*
D11*
X142240000Y-45720000D03*
D12*
X144780000Y-45720000D03*
D23*
X139700000Y-71120000D03*
D24*
X149860000Y-71120000D03*
D25*
X170000000Y-48000000D03*
D19*
X156000000Y-92087500D03*
X156000000Y-93912500D03*
D26*
X170000000Y-59137500D03*
X170000000Y-60862500D03*
D27*
X160020000Y-47540000D03*
X157480000Y-45000000D03*
X157480000Y-50080000D03*
X162560000Y-50080000D03*
X162560000Y-45000000D03*
D11*
X147320000Y-45720000D03*
D12*
X149860000Y-45720000D03*
D28*
X138787500Y-50800000D03*
X140612500Y-50800000D03*
D29*
X139700000Y-83820000D03*
X139700000Y-81995000D03*
D19*
X142240000Y-77827500D03*
X142240000Y-79652500D03*
D29*
X160020000Y-90725000D03*
X160020000Y-88900000D03*
D30*
X138750000Y-92750000D03*
D31*
X138750000Y-97250000D03*
X145250000Y-92750000D03*
X145250000Y-97250000D03*
D21*
X146000000Y-58000000D03*
D22*
X147270000Y-58000000D03*
X148540000Y-58000000D03*
D25*
X170000000Y-103000000D03*
D28*
X142955000Y-50800000D03*
X144780000Y-50800000D03*
D32*
X154000000Y-54000000D03*
D33*
X166700000Y-54000000D03*
D28*
X147320000Y-50800000D03*
X149145000Y-50800000D03*
D34*
X138762500Y-87950000D03*
X138762500Y-89850000D03*
X140637500Y-88900000D03*
D25*
X105000000Y-48000000D03*
X105000000Y-103000000D03*
M02*
